<svg width="907" height="511" viewBox="0 0 907 511" fill="none" xmlns="http://www.w3.org/2000/svg">
<g opacity="0.1" clip-path="url(#clip0_777_6773)">
<mask id="path-1-inside-1_777_6773" fill="white">
<path d="M0 -66.1488H80.6222V14.4734H0V-66.1488Z"/>
</mask>
<path d="M80.6222 14.4734V13.8016H0V14.4734V15.1453H80.6222V14.4734Z" fill="black" mask="url(#path-1-inside-1_777_6773)"/>
<mask id="path-3-inside-2_777_6773" fill="white">
<path d="M80.6221 -66.1488H161.244V14.4734H80.6221V-66.1488Z"/>
</mask>
<path d="M80.6221 14.4734H79.9502V15.1453H80.6221V14.4734ZM161.244 14.4734V13.8016H80.6221V14.4734V15.1453H161.244V14.4734ZM80.6221 14.4734H81.2939V-66.1488H80.6221H79.9502V14.4734H80.6221Z" fill="black" mask="url(#path-3-inside-2_777_6773)"/>
<mask id="path-5-inside-3_777_6773" fill="white">
<path d="M161.245 -66.1488H241.867V14.4734H161.245V-66.1488Z"/>
</mask>
<path d="M161.245 14.4734H160.573V15.1453H161.245V14.4734ZM241.867 14.4734V13.8016H161.245V14.4734V15.1453H241.867V14.4734ZM161.245 14.4734H161.916V-66.1488H161.245H160.573V14.4734H161.245Z" fill="black" mask="url(#path-5-inside-3_777_6773)"/>
<mask id="path-7-inside-4_777_6773" fill="white">
<path d="M241.867 -66.1488H322.489V14.4734H241.867V-66.1488Z"/>
</mask>
<path d="M241.867 14.4734H241.195V15.1453H241.867V14.4734ZM322.489 14.4734V13.8016H241.867V14.4734V15.1453H322.489V14.4734ZM241.867 14.4734H242.539V-66.1488H241.867H241.195V14.4734H241.867Z" fill="black" mask="url(#path-7-inside-4_777_6773)"/>
<mask id="path-9-inside-5_777_6773" fill="white">
<path d="M322.489 -66.1488H403.111V14.4734H322.489V-66.1488Z"/>
</mask>
<path d="M322.489 14.4734H321.817V15.1453H322.489V14.4734ZM403.111 14.4734V13.8016H322.489V14.4734V15.1453H403.111V14.4734ZM322.489 14.4734H323.161V-66.1488H322.489H321.817V14.4734H322.489Z" fill="black" mask="url(#path-9-inside-5_777_6773)"/>
<mask id="path-11-inside-6_777_6773" fill="white">
<path d="M403.111 -66.1488H483.734V14.4734H403.111V-66.1488Z"/>
</mask>
<path d="M403.111 -66.1488H483.734V14.4734H403.111V-66.1488Z" fill="black" fill-opacity="0.3"/>
<path d="M403.111 14.4734H402.439V15.1453H403.111V14.4734ZM483.734 14.4734V13.8016H403.111V14.4734V15.1453H483.734V14.4734ZM403.111 14.4734H403.783V-66.1488H403.111H402.439V14.4734H403.111Z" fill="black" mask="url(#path-11-inside-6_777_6773)"/>
<mask id="path-13-inside-7_777_6773" fill="white">
<path d="M483.733 -66.1488H564.356V14.4734H483.733V-66.1488Z"/>
</mask>
<path d="M483.733 14.4734H483.062V15.1453H483.733V14.4734ZM564.356 14.4734V13.8016H483.733V14.4734V15.1453H564.356V14.4734ZM483.733 14.4734H484.405V-66.1488H483.733H483.062V14.4734H483.733Z" fill="black" mask="url(#path-13-inside-7_777_6773)"/>
<mask id="path-15-inside-8_777_6773" fill="white">
<path d="M564.355 -66.1488H644.978V14.4734H564.355V-66.1488Z"/>
</mask>
<path d="M564.355 14.4734H563.684V15.1453H564.355V14.4734ZM644.978 14.4734V13.8016H564.355V14.4734V15.1453H644.978V14.4734ZM564.355 14.4734H565.027V-66.1488H564.355H563.684V14.4734H564.355Z" fill="black" mask="url(#path-15-inside-8_777_6773)"/>
<mask id="path-17-inside-9_777_6773" fill="white">
<path d="M0 14.4734H80.6222V95.0956H0V14.4734Z"/>
</mask>
<path d="M80.6222 95.0956V94.4238H0V95.0956V95.7675H80.6222V95.0956Z" fill="black" mask="url(#path-17-inside-9_777_6773)"/>
<mask id="path-19-inside-10_777_6773" fill="white">
<path d="M80.6221 14.4734H161.244V95.0956H80.6221V14.4734Z"/>
</mask>
<path d="M80.6221 95.0956H79.9502V95.7675H80.6221V95.0956ZM161.244 95.0956V94.4238H80.6221V95.0956V95.7675H161.244V95.0956ZM80.6221 95.0956H81.2939V14.4734H80.6221H79.9502V95.0956H80.6221Z" fill="black" mask="url(#path-19-inside-10_777_6773)"/>
<mask id="path-21-inside-11_777_6773" fill="white">
<path d="M161.245 14.4734H241.867V95.0956H161.245V14.4734Z"/>
</mask>
<path d="M161.245 14.4734H241.867V95.0956H161.245V14.4734Z" fill="black" fill-opacity="0.3"/>
<path d="M161.245 95.0956H160.573V95.7675H161.245V95.0956ZM241.867 95.0956V94.4238H161.245V95.0956V95.7675H241.867V95.0956ZM161.245 95.0956H161.916V14.4734H161.245H160.573V95.0956H161.245Z" fill="black" mask="url(#path-21-inside-11_777_6773)"/>
<mask id="path-23-inside-12_777_6773" fill="white">
<path d="M241.867 14.4734H322.489V95.0956H241.867V14.4734Z"/>
</mask>
<path d="M241.867 95.0956H241.195V95.7675H241.867V95.0956ZM322.489 95.0956V94.4238H241.867V95.0956V95.7675H322.489V95.0956ZM241.867 95.0956H242.539V14.4734H241.867H241.195V95.0956H241.867Z" fill="black" mask="url(#path-23-inside-12_777_6773)"/>
<mask id="path-25-inside-13_777_6773" fill="white">
<path d="M322.489 14.4734H403.111V95.0956H322.489V14.4734Z"/>
</mask>
<path d="M322.489 95.0956H321.817V95.7675H322.489V95.0956ZM403.111 95.0956V94.4238H322.489V95.0956V95.7675H403.111V95.0956ZM322.489 95.0956H323.161V14.4734H322.489H321.817V95.0956H322.489Z" fill="black" mask="url(#path-25-inside-13_777_6773)"/>
<mask id="path-27-inside-14_777_6773" fill="white">
<path d="M403.111 14.4734H483.734V95.0956H403.111V14.4734Z"/>
</mask>
<path d="M403.111 95.0956H402.439V95.7675H403.111V95.0956ZM483.734 95.0956V94.4238H403.111V95.0956V95.7675H483.734V95.0956ZM403.111 95.0956H403.783V14.4734H403.111H402.439V95.0956H403.111Z" fill="black" mask="url(#path-27-inside-14_777_6773)"/>
<mask id="path-29-inside-15_777_6773" fill="white">
<path d="M483.733 14.4734H564.356V95.0956H483.733V14.4734Z"/>
</mask>
<path d="M483.733 95.0956H483.062V95.7675H483.733V95.0956ZM564.356 95.0956V94.4238H483.733V95.0956V95.7675H564.356V95.0956ZM483.733 95.0956H484.405V14.4734H483.733H483.062V95.0956H483.733Z" fill="black" mask="url(#path-29-inside-15_777_6773)"/>
<mask id="path-31-inside-16_777_6773" fill="white">
<path d="M564.355 14.4734H644.978V95.0956H564.355V14.4734Z"/>
</mask>
<path d="M564.355 95.0956H563.684V95.7675H564.355V95.0956ZM644.978 95.0956V94.4238H564.355V95.0956V95.7675H644.978V95.0956ZM564.355 95.0956H565.027V14.4734H564.355H563.684V95.0956H564.355Z" fill="black" mask="url(#path-31-inside-16_777_6773)"/>
<mask id="path-33-inside-17_777_6773" fill="white">
<path d="M0 95.0957H80.6222V175.718H0V95.0957Z"/>
</mask>
<path d="M80.6222 175.718V175.046H0V175.718V176.39H80.6222V175.718Z" fill="black" mask="url(#path-33-inside-17_777_6773)"/>
<mask id="path-35-inside-18_777_6773" fill="white">
<path d="M80.6221 95.0957H161.244V175.718H80.6221V95.0957Z"/>
</mask>
<path d="M80.6221 175.718H79.9502V176.39H80.6221V175.718ZM161.244 175.718V175.046H80.6221V175.718V176.39H161.244V175.718ZM80.6221 175.718H81.2939V95.0957H80.6221H79.9502V175.718H80.6221Z" fill="black" mask="url(#path-35-inside-18_777_6773)"/>
<mask id="path-37-inside-19_777_6773" fill="white">
<path d="M161.245 95.0957H241.867V175.718H161.245V95.0957Z"/>
</mask>
<path d="M161.245 175.718H160.573V176.39H161.245V175.718ZM241.867 175.718V175.046H161.245V175.718V176.39H241.867V175.718ZM161.245 175.718H161.916V95.0957H161.245H160.573V175.718H161.245Z" fill="black" mask="url(#path-37-inside-19_777_6773)"/>
<mask id="path-39-inside-20_777_6773" fill="white">
<path d="M241.867 95.0957H322.489V175.718H241.867V95.0957Z"/>
</mask>
<path d="M241.867 175.718H241.195V176.39H241.867V175.718ZM322.489 175.718V175.046H241.867V175.718V176.39H322.489V175.718ZM241.867 175.718H242.539V95.0957H241.867H241.195V175.718H241.867Z" fill="black" mask="url(#path-39-inside-20_777_6773)"/>
<mask id="path-41-inside-21_777_6773" fill="white">
<path d="M322.489 95.0957H403.111V175.718H322.489V95.0957Z"/>
</mask>
<path d="M322.489 175.718H321.817V176.39H322.489V175.718ZM403.111 175.718V175.046H322.489V175.718V176.39H403.111V175.718ZM322.489 175.718H323.161V95.0957H322.489H321.817V175.718H322.489Z" fill="black" mask="url(#path-41-inside-21_777_6773)"/>
<mask id="path-43-inside-22_777_6773" fill="white">
<path d="M403.111 95.0957H483.734V175.718H403.111V95.0957Z"/>
</mask>
<path d="M403.111 95.0957H483.734V175.718H403.111V95.0957Z" fill="black" fill-opacity="0.3"/>
<path d="M403.111 175.718H402.439V176.39H403.111V175.718ZM483.734 175.718V175.046H403.111V175.718V176.39H483.734V175.718ZM403.111 175.718H403.783V95.0957H403.111H402.439V175.718H403.111Z" fill="black" mask="url(#path-43-inside-22_777_6773)"/>
<mask id="path-45-inside-23_777_6773" fill="white">
<path d="M483.733 95.0957H564.356V175.718H483.733V95.0957Z"/>
</mask>
<path d="M483.733 175.718H483.062V176.39H483.733V175.718ZM564.356 175.718V175.046H483.733V175.718V176.39H564.356V175.718ZM483.733 175.718H484.405V95.0957H483.733H483.062V175.718H483.733Z" fill="black" mask="url(#path-45-inside-23_777_6773)"/>
<mask id="path-47-inside-24_777_6773" fill="white">
<path d="M564.355 95.0957H644.978V175.718H564.355V95.0957Z"/>
</mask>
<path d="M564.355 175.718H563.684V176.39H564.355V175.718ZM644.978 175.718V175.046H564.355V175.718V176.39H644.978V175.718ZM564.355 175.718H565.027V95.0957H564.355H563.684V175.718H564.355Z" fill="black" mask="url(#path-47-inside-24_777_6773)"/>
<mask id="path-49-inside-25_777_6773" fill="white">
<path d="M0 175.718H80.6222V256.34H0V175.718Z"/>
</mask>
<path d="M0 175.718H80.6222V256.34H0V175.718Z" fill="black" fill-opacity="0.3"/>
<path d="M80.6222 256.34V255.668H0V256.34V257.012H80.6222V256.34Z" fill="black" mask="url(#path-49-inside-25_777_6773)"/>
<mask id="path-51-inside-26_777_6773" fill="white">
<path d="M80.6221 175.718H161.244V256.34H80.6221V175.718Z"/>
</mask>
<path d="M80.6221 256.34H79.9502V257.012H80.6221V256.34ZM161.244 256.34V255.668H80.6221V256.34V257.012H161.244V256.34ZM80.6221 256.34H81.2939V175.718H80.6221H79.9502V256.34H80.6221Z" fill="black" mask="url(#path-51-inside-26_777_6773)"/>
<mask id="path-53-inside-27_777_6773" fill="white">
<path d="M161.245 175.718H241.867V256.34H161.245V175.718Z"/>
</mask>
<path d="M161.245 256.34H160.573V257.012H161.245V256.34ZM241.867 256.34V255.668H161.245V256.34V257.012H241.867V256.34ZM161.245 256.34H161.916V175.718H161.245H160.573V256.34H161.245Z" fill="black" mask="url(#path-53-inside-27_777_6773)"/>
<mask id="path-55-inside-28_777_6773" fill="white">
<path d="M241.867 175.718H322.489V256.34H241.867V175.718Z"/>
</mask>
<path d="M241.867 175.718H322.489V256.34H241.867V175.718Z" fill="black" fill-opacity="0.3"/>
<path d="M241.867 256.34H241.195V257.012H241.867V256.34ZM322.489 256.34V255.668H241.867V256.34V257.012H322.489V256.34ZM241.867 256.34H242.539V175.718H241.867H241.195V256.34H241.867Z" fill="black" mask="url(#path-55-inside-28_777_6773)"/>
<mask id="path-57-inside-29_777_6773" fill="white">
<path d="M322.489 175.718H403.111V256.34H322.489V175.718Z"/>
</mask>
<path d="M322.489 256.34H321.817V257.012H322.489V256.34ZM403.111 256.34V255.668H322.489V256.34V257.012H403.111V256.34ZM322.489 256.34H323.161V175.718H322.489H321.817V256.34H322.489Z" fill="black" mask="url(#path-57-inside-29_777_6773)"/>
<mask id="path-59-inside-30_777_6773" fill="white">
<path d="M403.111 175.718H483.734V256.34H403.111V175.718Z"/>
</mask>
<path d="M403.111 256.34H402.439V257.012H403.111V256.34ZM483.734 256.34V255.668H403.111V256.34V257.012H483.734V256.34ZM403.111 256.34H403.783V175.718H403.111H402.439V256.34H403.111Z" fill="black" mask="url(#path-59-inside-30_777_6773)"/>
<mask id="path-61-inside-31_777_6773" fill="white">
<path d="M483.733 175.718H564.356V256.34H483.733V175.718Z"/>
</mask>
<path d="M483.733 256.34H483.062V257.012H483.733V256.34ZM564.356 256.34V255.668H483.733V256.34V257.012H564.356V256.34ZM483.733 256.34H484.405V175.718H483.733H483.062V256.34H483.733Z" fill="black" mask="url(#path-61-inside-31_777_6773)"/>
<mask id="path-63-inside-32_777_6773" fill="white">
<path d="M564.355 175.718H644.978V256.34H564.355V175.718Z"/>
</mask>
<path d="M564.355 256.34H563.684V257.012H564.355V256.34ZM644.978 256.34V255.668H564.355V256.34V257.012H644.978V256.34ZM564.355 256.34H565.027V175.718H564.355H563.684V256.34H564.355Z" fill="black" mask="url(#path-63-inside-32_777_6773)"/>
<mask id="path-65-inside-33_777_6773" fill="white">
<path d="M0 256.34H80.6222V336.962H0V256.34Z"/>
</mask>
<path d="M80.6222 336.962V336.29H0V336.962V337.634H80.6222V336.962Z" fill="black" mask="url(#path-65-inside-33_777_6773)"/>
<mask id="path-67-inside-34_777_6773" fill="white">
<path d="M80.6221 256.34H161.244V336.962H80.6221V256.34Z"/>
</mask>
<path d="M80.6221 256.34H161.244V336.962H80.6221V256.34Z" fill="black" fill-opacity="0.3"/>
<path d="M80.6221 336.962H79.9502V337.634H80.6221V336.962ZM161.244 336.962V336.29H80.6221V336.962V337.634H161.244V336.962ZM80.6221 336.962H81.2939V256.34H80.6221H79.9502V336.962H80.6221Z" fill="black" mask="url(#path-67-inside-34_777_6773)"/>
<mask id="path-69-inside-35_777_6773" fill="white">
<path d="M161.245 256.34H241.867V336.962H161.245V256.34Z"/>
</mask>
<path d="M161.245 336.962H160.573V337.634H161.245V336.962ZM241.867 336.962V336.29H161.245V336.962V337.634H241.867V336.962ZM161.245 336.962H161.916V256.34H161.245H160.573V336.962H161.245Z" fill="black" mask="url(#path-69-inside-35_777_6773)"/>
<mask id="path-71-inside-36_777_6773" fill="white">
<path d="M241.867 256.34H322.489V336.962H241.867V256.34Z"/>
</mask>
<path d="M241.867 336.962H241.195V337.634H241.867V336.962ZM322.489 336.962V336.29H241.867V336.962V337.634H322.489V336.962ZM241.867 336.962H242.539V256.34H241.867H241.195V336.962H241.867Z" fill="black" mask="url(#path-71-inside-36_777_6773)"/>
<mask id="path-73-inside-37_777_6773" fill="white">
<path d="M322.489 256.34H403.111V336.962H322.489V256.34Z"/>
</mask>
<path d="M322.489 336.962H321.817V337.634H322.489V336.962ZM403.111 336.962V336.29H322.489V336.962V337.634H403.111V336.962ZM322.489 336.962H323.161V256.34H322.489H321.817V336.962H322.489Z" fill="black" mask="url(#path-73-inside-37_777_6773)"/>
<mask id="path-75-inside-38_777_6773" fill="white">
<path d="M403.111 256.34H483.734V336.962H403.111V256.34Z"/>
</mask>
<path d="M403.111 336.962H402.439V337.634H403.111V336.962ZM483.734 336.962V336.29H403.111V336.962V337.634H483.734V336.962ZM403.111 336.962H403.783V256.34H403.111H402.439V336.962H403.111Z" fill="black" mask="url(#path-75-inside-38_777_6773)"/>
<mask id="path-77-inside-39_777_6773" fill="white">
<path d="M483.733 256.34H564.356V336.962H483.733V256.34Z"/>
</mask>
<path d="M483.733 256.34H564.356V336.962H483.733V256.34Z" fill="black" fill-opacity="0.3"/>
<path d="M483.733 336.962H483.062V337.634H483.733V336.962ZM564.356 336.962V336.29H483.733V336.962V337.634H564.356V336.962ZM483.733 336.962H484.405V256.34H483.733H483.062V336.962H483.733Z" fill="black" mask="url(#path-77-inside-39_777_6773)"/>
<mask id="path-79-inside-40_777_6773" fill="white">
<path d="M564.355 256.34H644.978V336.962H564.355V256.34Z"/>
</mask>
<path d="M564.355 336.962H563.684V337.634H564.355V336.962ZM644.978 336.962V336.29H564.355V336.962V337.634H644.978V336.962ZM564.355 336.962H565.027V256.34H564.355H563.684V336.962H564.355Z" fill="black" mask="url(#path-79-inside-40_777_6773)"/>
<mask id="path-81-inside-41_777_6773" fill="white">
<path d="M0 336.962H80.6222V417.585H0V336.962Z"/>
</mask>
<path d="M80.6222 417.585V416.913H0V417.585V418.256H80.6222V417.585Z" fill="black" mask="url(#path-81-inside-41_777_6773)"/>
<mask id="path-83-inside-42_777_6773" fill="white">
<path d="M80.6221 336.962H161.244V417.585H80.6221V336.962Z"/>
</mask>
<path d="M80.6221 417.585H79.9502V418.256H80.6221V417.585ZM161.244 417.585V416.913H80.6221V417.585V418.256H161.244V417.585ZM80.6221 417.585H81.2939V336.962H80.6221H79.9502V417.585H80.6221Z" fill="black" mask="url(#path-83-inside-42_777_6773)"/>
<mask id="path-85-inside-43_777_6773" fill="white">
<path d="M161.245 336.962H241.867V417.585H161.245V336.962Z"/>
</mask>
<path d="M161.245 417.585H160.573V418.256H161.245V417.585ZM241.867 417.585V416.913H161.245V417.585V418.256H241.867V417.585ZM161.245 417.585H161.916V336.962H161.245H160.573V417.585H161.245Z" fill="black" mask="url(#path-85-inside-43_777_6773)"/>
<mask id="path-87-inside-44_777_6773" fill="white">
<path d="M241.867 336.962H322.489V417.585H241.867V336.962Z"/>
</mask>
<path d="M241.867 417.585H241.195V418.256H241.867V417.585ZM322.489 417.585V416.913H241.867V417.585V418.256H322.489V417.585ZM241.867 417.585H242.539V336.962H241.867H241.195V417.585H241.867Z" fill="black" mask="url(#path-87-inside-44_777_6773)"/>
<mask id="path-89-inside-45_777_6773" fill="white">
<path d="M322.489 336.962H403.111V417.585H322.489V336.962Z"/>
</mask>
<path d="M322.489 336.962H403.111V417.585H322.489V336.962Z" fill="black" fill-opacity="0.3"/>
<path d="M322.489 417.585H321.817V418.256H322.489V417.585ZM403.111 417.585V416.913H322.489V417.585V418.256H403.111V417.585ZM322.489 417.585H323.161V336.962H322.489H321.817V417.585H322.489Z" fill="black" mask="url(#path-89-inside-45_777_6773)"/>
<mask id="path-91-inside-46_777_6773" fill="white">
<path d="M403.111 336.962H483.734V417.585H403.111V336.962Z"/>
</mask>
<path d="M403.111 417.585H402.439V418.256H403.111V417.585ZM483.734 417.585V416.913H403.111V417.585V418.256H483.734V417.585ZM403.111 417.585H403.783V336.962H403.111H402.439V417.585H403.111Z" fill="black" mask="url(#path-91-inside-46_777_6773)"/>
<mask id="path-93-inside-47_777_6773" fill="white">
<path d="M483.733 336.962H564.356V417.585H483.733V336.962Z"/>
</mask>
<path d="M483.733 417.585H483.062V418.256H483.733V417.585ZM564.356 417.585V416.913H483.733V417.585V418.256H564.356V417.585ZM483.733 417.585H484.405V336.962H483.733H483.062V417.585H483.733Z" fill="black" mask="url(#path-93-inside-47_777_6773)"/>
<mask id="path-95-inside-48_777_6773" fill="white">
<path d="M564.355 336.962H644.978V417.585H564.355V336.962Z"/>
</mask>
<path d="M564.355 417.585H563.684V418.256H564.355V417.585ZM644.978 417.585V416.913H564.355V417.585V418.256H644.978V417.585ZM564.355 417.585H565.027V336.962H564.355H563.684V417.585H564.355Z" fill="black" mask="url(#path-95-inside-48_777_6773)"/>
<mask id="path-97-inside-49_777_6773" fill="white">
<path d="M0 417.584H80.6222V498.207H0V417.584Z"/>
</mask>
<path d="M80.6222 498.207V497.535H0V498.207V498.879H80.6222V498.207Z" fill="black" mask="url(#path-97-inside-49_777_6773)"/>
<mask id="path-99-inside-50_777_6773" fill="white">
<path d="M80.6221 417.584H161.244V498.207H80.6221V417.584Z"/>
</mask>
<path d="M80.6221 498.207H79.9502V498.879H80.6221V498.207ZM161.244 498.207V497.535H80.6221V498.207V498.879H161.244V498.207ZM80.6221 498.207H81.2939V417.584H80.6221H79.9502V498.207H80.6221Z" fill="black" mask="url(#path-99-inside-50_777_6773)"/>
<mask id="path-101-inside-51_777_6773" fill="white">
<path d="M161.245 417.584H241.867V498.207H161.245V417.584Z"/>
</mask>
<path d="M161.245 498.207H160.573V498.879H161.245V498.207ZM241.867 498.207V497.535H161.245V498.207V498.879H241.867V498.207ZM161.245 498.207H161.916V417.584H161.245H160.573V498.207H161.245Z" fill="black" mask="url(#path-101-inside-51_777_6773)"/>
<mask id="path-103-inside-52_777_6773" fill="white">
<path d="M241.867 417.584H322.489V498.207H241.867V417.584Z"/>
</mask>
<path d="M241.867 417.584H322.489V498.207H241.867V417.584Z" fill="black" fill-opacity="0.3"/>
<path d="M241.867 498.207H241.195V498.879H241.867V498.207ZM322.489 498.207V497.535H241.867V498.207V498.879H322.489V498.207ZM241.867 498.207H242.539V417.584H241.867H241.195V498.207H241.867Z" fill="black" mask="url(#path-103-inside-52_777_6773)"/>
<mask id="path-105-inside-53_777_6773" fill="white">
<path d="M322.489 417.584H403.111V498.207H322.489V417.584Z"/>
</mask>
<path d="M322.489 498.207H321.817V498.879H322.489V498.207ZM403.111 498.207V497.535H322.489V498.207V498.879H403.111V498.207ZM322.489 498.207H323.161V417.584H322.489H321.817V498.207H322.489Z" fill="black" mask="url(#path-105-inside-53_777_6773)"/>
<mask id="path-107-inside-54_777_6773" fill="white">
<path d="M403.111 417.584H483.734V498.207H403.111V417.584Z"/>
</mask>
<path d="M403.111 498.207H402.439V498.879H403.111V498.207ZM483.734 498.207V497.535H403.111V498.207V498.879H483.734V498.207ZM403.111 498.207H403.783V417.584H403.111H402.439V498.207H403.111Z" fill="black" mask="url(#path-107-inside-54_777_6773)"/>
<mask id="path-109-inside-55_777_6773" fill="white">
<path d="M483.733 417.584H564.356V498.207H483.733V417.584Z"/>
</mask>
<path d="M483.733 498.207H483.062V498.879H483.733V498.207ZM564.356 498.207V497.535H483.733V498.207V498.879H564.356V498.207ZM483.733 498.207H484.405V417.584H483.733H483.062V498.207H483.733Z" fill="black" mask="url(#path-109-inside-55_777_6773)"/>
<mask id="path-111-inside-56_777_6773" fill="white">
<path d="M564.355 417.584H644.978V498.207H564.355V417.584Z"/>
</mask>
<path d="M564.355 498.207H563.684V498.879H564.355V498.207ZM644.978 498.207V497.535H564.355V498.207V498.879H644.978V498.207ZM564.355 498.207H565.027V417.584H564.355H563.684V498.207H564.355Z" fill="black" mask="url(#path-111-inside-56_777_6773)"/>
<mask id="path-113-inside-57_777_6773" fill="white">
<path d="M0 498.207H80.6222V578.829H0V498.207Z"/>
</mask>
<path d="M0 578.829H0.671852V498.207H0H-0.671852V578.829H0Z" fill="black" mask="url(#path-113-inside-57_777_6773)"/>
<mask id="path-115-inside-58_777_6773" fill="white">
<path d="M80.6221 498.207H161.244V578.829H80.6221V498.207Z"/>
</mask>
<path d="M80.6221 578.829H81.2939V498.207H80.6221H79.9502V578.829H80.6221Z" fill="black" mask="url(#path-115-inside-58_777_6773)"/>
<mask id="path-117-inside-59_777_6773" fill="white">
<path d="M161.245 498.207H241.867V578.829H161.245V498.207Z"/>
</mask>
<path d="M161.245 578.829H161.916V498.207H161.245H160.573V578.829H161.245Z" fill="black" mask="url(#path-117-inside-59_777_6773)"/>
<mask id="path-119-inside-60_777_6773" fill="white">
<path d="M241.867 498.207H322.489V578.829H241.867V498.207Z"/>
</mask>
<path d="M241.867 578.829H242.539V498.207H241.867H241.195V578.829H241.867Z" fill="black" mask="url(#path-119-inside-60_777_6773)"/>
<mask id="path-121-inside-61_777_6773" fill="white">
<path d="M322.489 498.207H403.111V578.829H322.489V498.207Z"/>
</mask>
<path d="M322.489 578.829H323.161V498.207H322.489H321.817V578.829H322.489Z" fill="black" mask="url(#path-121-inside-61_777_6773)"/>
<mask id="path-123-inside-62_777_6773" fill="white">
<path d="M403.111 498.207H483.734V578.829H403.111V498.207Z"/>
</mask>
<path d="M403.111 578.829H403.783V498.207H403.111H402.439V578.829H403.111Z" fill="black" mask="url(#path-123-inside-62_777_6773)"/>
<mask id="path-125-inside-63_777_6773" fill="white">
<path d="M483.733 498.207H564.356V578.829H483.733V498.207Z"/>
</mask>
<path d="M483.733 578.829H484.405V498.207H483.733H483.062V578.829H483.733Z" fill="black" mask="url(#path-125-inside-63_777_6773)"/>
<g filter="url(#filter0_f_777_6773)">
<circle cx="454.49" cy="256.34" r="642.29" fill="url(#paint0_radial_777_6773)"/>
</g>
</g>
<defs>
<filter id="filter0_f_777_6773" x="-389.356" y="-587.506" width="1687.69" height="1687.69" filterUnits="userSpaceOnUse" color-interpolation-filters="sRGB">
<feFlood flood-opacity="0" result="BackgroundImageFix"/>
<feBlend mode="normal" in="SourceGraphic" in2="BackgroundImageFix" result="shape"/>
<feGaussianBlur stdDeviation="100.778" result="effect1_foregroundBlur_777_6773"/>
</filter>
<radialGradient id="paint0_radial_777_6773" cx="0" cy="0" r="1" gradientUnits="userSpaceOnUse" gradientTransform="translate(454.49 256.34) rotate(90) scale(642.29)">
<stop stop-color="white" stop-opacity="0"/>
<stop offset="0.46589" stop-color="white"/>
</radialGradient>
<clipPath id="clip0_777_6773">
<rect width="907" height="644.978" fill="white" transform="translate(0 -66.1488)"/>
</clipPath>
</defs>
</svg>
