<svg width="17" height="17" viewBox="0 0 17 17" fill="none" xmlns="http://www.w3.org/2000/svg">
<path d="M15.4767 4.43939C15.4767 3.91615 15.2689 3.41434 14.8989 3.04435C14.5289 2.67436 14.0271 2.4665 13.5038 2.4665H13.0106V1.98715C13.0106 1.72174 12.8066 1.49393 12.5411 1.48067C12.4744 1.47746 12.4078 1.48782 12.3452 1.51113C12.2827 1.53443 12.2255 1.5702 12.1772 1.61626C12.1288 1.66231 12.0903 1.71771 12.064 1.77908C12.0377 1.84044 12.0242 1.90651 12.0242 1.97328V2.4665H5.11906V1.98715C5.11906 1.72174 4.91499 1.49393 4.64958 1.48067C4.58289 1.47746 4.51624 1.48782 4.45368 1.51113C4.39111 1.53443 4.33393 1.5702 4.28559 1.61626C4.23726 1.66231 4.19877 1.71771 4.17248 1.77908C4.14618 1.84044 4.13262 1.90651 4.13262 1.97328V2.4665H3.63939C3.11615 2.4665 2.61434 2.67436 2.24435 3.04435C1.87436 3.41434 1.6665 3.91615 1.6665 4.43939V4.80931C1.6665 4.84201 1.6795 4.87338 1.70262 4.8965C1.72574 4.91963 1.75711 4.93262 1.78981 4.93262H15.3534C15.3861 4.93262 15.4175 4.91963 15.4406 4.8965C15.4637 4.87338 15.4767 4.84201 15.4767 4.80931V4.43939ZM1.6665 13.3174C1.6665 13.8406 1.87436 14.3425 2.24435 14.7124C2.61434 15.0824 3.11615 15.2903 3.63939 15.2903H13.5038C14.0271 15.2903 14.5289 15.0824 14.8989 14.7124C15.2689 14.3425 15.4767 13.8406 15.4767 13.3174V6.01154C15.4767 5.98701 15.467 5.96349 15.4497 5.94615C15.4323 5.9288 15.4088 5.91906 15.3843 5.91906H1.75898C1.73446 5.91906 1.71093 5.9288 1.69359 5.94615C1.67625 5.96349 1.6665 5.98701 1.6665 6.01154V13.3174ZM12.2708 6.90551C12.4171 6.90551 12.5602 6.9489 12.6818 7.03019C12.8035 7.11148 12.8983 7.22703 12.9543 7.36222C13.0103 7.49741 13.025 7.64616 12.9964 7.78967C12.9679 7.93319 12.8974 8.06501 12.7939 8.16848C12.6905 8.27195 12.5586 8.34241 12.4151 8.37096C12.2716 8.39951 12.1229 8.38485 11.9877 8.32886C11.8525 8.27286 11.7369 8.17803 11.6556 8.05637C11.5743 7.9347 11.531 7.79167 11.531 7.64534C11.531 7.44912 11.6089 7.26094 11.7476 7.1222C11.8864 6.98345 12.0746 6.90551 12.2708 6.90551ZM12.2708 9.37162C12.4171 9.37162 12.5602 9.41501 12.6818 9.4963C12.8035 9.5776 12.8983 9.69314 12.9543 9.82833C13.0103 9.96352 13.025 10.1123 12.9964 10.2558C12.9679 10.3993 12.8974 10.5311 12.7939 10.6346C12.6905 10.7381 12.5586 10.8085 12.4151 10.8371C12.2716 10.8656 12.1229 10.851 11.9877 10.795C11.8525 10.739 11.7369 10.6441 11.6556 10.5225C11.5743 10.4008 11.531 10.2578 11.531 10.1115C11.531 9.91524 11.6089 9.72706 11.7476 9.58831C11.8864 9.44957 12.0746 9.37162 12.2708 9.37162ZM9.80468 6.90551C9.951 6.90551 10.094 6.9489 10.2157 7.03019C10.3374 7.11148 10.4322 7.22703 10.4882 7.36222C10.5442 7.49741 10.5588 7.64616 10.5303 7.78967C10.5017 7.93319 10.4313 8.06501 10.3278 8.16848C10.2244 8.27195 10.0925 8.34241 9.94901 8.37096C9.8055 8.39951 9.65674 8.38485 9.52156 8.32886C9.38637 8.27286 9.27082 8.17803 9.18953 8.05637C9.10823 7.9347 9.06484 7.79167 9.06484 7.64534C9.06484 7.44912 9.14279 7.26094 9.28154 7.1222C9.42028 6.98345 9.60846 6.90551 9.80468 6.90551ZM9.80468 9.37162C9.951 9.37162 10.094 9.41501 10.2157 9.4963C10.3374 9.5776 10.4322 9.69314 10.4882 9.82833C10.5442 9.96352 10.5588 10.1123 10.5303 10.2558C10.5017 10.3993 10.4313 10.5311 10.3278 10.6346C10.2244 10.7381 10.0925 10.8085 9.94901 10.8371C9.8055 10.8656 9.65674 10.851 9.52156 10.795C9.38637 10.739 9.27082 10.6441 9.18953 10.5225C9.10823 10.4008 9.06484 10.2578 9.06484 10.1115C9.06484 9.91524 9.14279 9.72706 9.28154 9.58831C9.42028 9.44957 9.60846 9.37162 9.80468 9.37162ZM9.80468 11.8377C9.951 11.8377 10.094 11.8811 10.2157 11.9624C10.3374 12.0437 10.4322 12.1593 10.4882 12.2944C10.5442 12.4296 10.5588 12.5784 10.5303 12.7219C10.5017 12.8654 10.4313 12.9972 10.3278 13.1007C10.2244 13.2042 10.0925 13.2746 9.94901 13.3032C9.8055 13.3317 9.65674 13.3171 9.52156 13.2611C9.38637 13.2051 9.27082 13.1103 9.18953 12.9886C9.10823 12.8669 9.06484 12.7239 9.06484 12.5776C9.06484 12.3814 9.14279 12.1932 9.28154 12.0544C9.42028 11.9157 9.60846 11.8377 9.80468 11.8377ZM7.33856 9.37162C7.48489 9.37162 7.62793 9.41501 7.74959 9.4963C7.87126 9.5776 7.96609 9.69314 8.02208 9.82833C8.07808 9.96352 8.09273 10.1123 8.06418 10.2558C8.03564 10.3993 7.96517 10.5311 7.86171 10.6346C7.75824 10.7381 7.62641 10.8085 7.4829 10.8371C7.33939 10.8656 7.19063 10.851 7.05544 10.795C6.92025 10.739 6.80471 10.6441 6.72341 10.5225C6.64212 10.4008 6.59873 10.2578 6.59873 10.1115C6.59873 9.91524 6.67668 9.72706 6.81542 9.58831C6.95417 9.44957 7.14235 9.37162 7.33856 9.37162ZM7.33856 11.8377C7.48489 11.8377 7.62793 11.8811 7.74959 11.9624C7.87126 12.0437 7.96609 12.1593 8.02208 12.2944C8.07808 12.4296 8.09273 12.5784 8.06418 12.7219C8.03564 12.8654 7.96517 12.9972 7.86171 13.1007C7.75824 13.2042 7.62641 13.2746 7.4829 13.3032C7.33939 13.3317 7.19063 13.3171 7.05544 13.2611C6.92025 13.2051 6.80471 13.1103 6.72341 12.9886C6.64212 12.8669 6.59873 12.7239 6.59873 12.5776C6.59873 12.3814 6.67668 12.1932 6.81542 12.0544C6.95417 11.9157 7.14235 11.8377 7.33856 11.8377ZM4.87245 9.37162C5.01878 9.37162 5.16182 9.41501 5.28348 9.4963C5.40515 9.5776 5.49997 9.69314 5.55597 9.82833C5.61196 9.96352 5.62662 10.1123 5.59807 10.2558C5.56952 10.3993 5.49906 10.5311 5.39559 10.6346C5.29212 10.7381 5.1603 10.8085 5.01679 10.8371C4.87327 10.8656 4.72452 10.851 4.58933 10.795C4.45414 10.739 4.3386 10.6441 4.2573 10.5225C4.17601 10.4008 4.13262 10.2578 4.13262 10.1115C4.13262 9.91524 4.21056 9.72706 4.34931 9.58831C4.48805 9.44957 4.67623 9.37162 4.87245 9.37162ZM4.87245 11.8377C5.01878 11.8377 5.16182 11.8811 5.28348 11.9624C5.40515 12.0437 5.49997 12.1593 5.55597 12.2944C5.61196 12.4296 5.62662 12.5784 5.59807 12.7219C5.56952 12.8654 5.49906 12.9972 5.39559 13.1007C5.29212 13.2042 5.1603 13.2746 5.01679 13.3032C4.87327 13.3317 4.72452 13.3171 4.58933 13.2611C4.45414 13.2051 4.3386 13.1103 4.2573 12.9886C4.17601 12.8669 4.13262 12.7239 4.13262 12.5776C4.13262 12.3814 4.21056 12.1932 4.34931 12.0544C4.48805 11.9157 4.67623 11.8377 4.87245 11.8377Z" fill="#9363F2"/>
</svg>
