<svg width="17" height="17" viewBox="0 0 17 17" fill="none" xmlns="http://www.w3.org/2000/svg">
<path d="M8.34551 2.21966C10.4043 2.21966 10.6851 2.21966 11.5273 2.21966C12.276 2.21966 12.6503 2.40683 12.9311 2.50041C13.3054 2.68758 13.5861 2.78116 13.8669 3.06191C14.1476 3.34266 14.3348 3.62341 14.4284 3.99774C14.522 4.27849 14.6156 4.65282 14.7091 5.40148C14.7091 6.24373 14.7091 6.43089 14.7091 8.5833C14.7091 10.7357 14.7091 10.9229 14.7091 11.7651C14.7091 12.5138 14.522 12.8881 14.4284 13.1689C14.2412 13.5432 14.1476 13.8239 13.8669 14.1047C13.5861 14.3854 13.3054 14.5726 12.9311 14.6662C12.6503 14.7598 12.276 14.8534 11.5273 14.9469C10.6851 14.9469 10.4979 14.9469 8.34551 14.9469C6.1931 14.9469 6.00593 14.9469 5.16369 14.9469C4.41502 14.9469 4.04069 14.7598 3.75994 14.6662C3.38561 14.479 3.10486 14.3854 2.82412 14.1047C2.54337 13.8239 2.3562 13.5432 2.26262 13.1689C2.16903 12.8881 2.07545 12.5138 1.98187 11.7651C1.98187 10.9229 1.98187 10.7357 1.98187 8.5833C1.98187 6.43089 1.98187 6.24373 1.98187 5.40148C1.98187 4.65282 2.16903 4.27849 2.26262 3.99774C2.44978 3.62341 2.54337 3.34266 2.82412 3.06191C3.10486 2.78116 3.38561 2.59399 3.75994 2.50041C4.04069 2.40683 4.41502 2.31324 5.16369 2.21966C6.00593 2.21966 6.28668 2.21966 8.34551 2.21966ZM8.34551 0.815918C6.1931 0.815918 6.00593 0.815918 5.16369 0.815918C4.32144 0.815918 3.75994 1.00308 3.29203 1.19025C2.82412 1.37742 2.3562 1.65816 1.88829 2.12608C1.42037 2.59399 1.23321 2.96833 0.952457 3.52982C0.765291 3.99774 0.671708 4.55923 0.578125 5.40148C0.578125 6.24373 0.578125 6.52448 0.578125 8.5833C0.578125 10.7357 0.578125 10.9229 0.578125 11.7651C0.578125 12.6074 0.765291 13.1689 0.952457 13.6368C1.13962 14.1047 1.42037 14.5726 1.88829 15.0405C2.3562 15.5084 2.73053 15.6956 3.29203 15.9763C3.75994 16.1635 4.32144 16.2571 5.16369 16.3507C6.00593 16.3507 6.28668 16.3507 8.34551 16.3507C10.4043 16.3507 10.6851 16.3507 11.5273 16.3507C12.3696 16.3507 12.9311 16.1635 13.399 15.9763C13.8669 15.7892 14.3348 15.5084 14.8027 15.0405C15.2706 14.5726 15.4578 14.1983 15.7386 13.6368C15.9257 13.1689 16.0193 12.6074 16.1129 11.7651C16.1129 10.9229 16.1129 10.6421 16.1129 8.5833C16.1129 6.52448 16.1129 6.24373 16.1129 5.40148C16.1129 4.55923 15.9257 3.99774 15.7386 3.52982C15.5514 3.06191 15.2706 2.59399 14.8027 2.12608C14.3348 1.65816 13.9605 1.471 13.399 1.19025C12.9311 1.00308 12.3696 0.909501 11.5273 0.815918C10.6851 0.815918 10.4979 0.815918 8.34551 0.815918Z" fill="#7E45F0"/>
<path d="M8.34551 4.55923C6.09952 4.55923 4.32144 6.33731 4.32144 8.5833C4.32144 10.8293 6.09952 12.6074 8.34551 12.6074C10.5915 12.6074 12.3696 10.8293 12.3696 8.5833C12.3696 6.33731 10.5915 4.55923 8.34551 4.55923ZM8.34551 11.2036C6.94176 11.2036 5.72518 10.0806 5.72518 8.5833C5.72518 7.17956 6.84818 5.96298 8.34551 5.96298C9.74925 5.96298 10.9658 7.08597 10.9658 8.5833C10.9658 9.98704 9.74925 11.2036 8.34551 11.2036Z" fill="#7E45F0"/>
<path d="M12.4632 5.40148C12.98 5.40148 13.399 4.9825 13.399 4.46565C13.399 3.94881 12.98 3.52982 12.4632 3.52982C11.9463 3.52982 11.5273 3.94881 11.5273 4.46565C11.5273 4.9825 11.9463 5.40148 12.4632 5.40148Z" fill="#7E45F0"/>
</svg>
