<svg width="16" height="16" viewBox="0 0 16 16" fill="none" xmlns="http://www.w3.org/2000/svg">
<path d="M4.16196 15.068H0.980132V5.05462H4.16196V15.068ZM2.57105 3.65088C1.54163 3.65088 0.792969 2.90221 0.792969 1.8728C0.792969 0.843389 1.63522 0.0947266 2.57105 0.0947266C3.60046 0.0947266 4.34912 0.843389 4.34912 1.8728C4.34912 2.90221 3.60046 3.65088 2.57105 3.65088ZM15.7662 15.068H12.5844V9.64018C12.5844 8.04927 11.9293 7.58136 10.9935 7.58136C10.0577 7.58136 9.12184 8.33002 9.12184 9.73376V15.068H5.94003V5.05462H8.93468V6.45836C9.21543 5.80328 10.3384 4.77387 11.9293 4.77387C13.7074 4.77387 15.5791 5.80328 15.5791 8.89152V15.068H15.7662Z" fill="#7E45F0"/>
</svg>
