<svg width="151" height="35" viewBox="0 0 151 35" fill="none" xmlns="http://www.w3.org/2000/svg">
<mask id="path-1-inside-1_30_1274" fill="white">
<path d="M0.5 7.29371C0.5 3.70723 3.40742 0.799805 6.9939 0.799805H27.7744C31.3609 0.799805 34.2683 3.70722 34.2683 7.29371V28.2158C34.2683 31.8023 31.3609 34.7097 27.7744 34.7097H6.9939C3.40742 34.7097 0.5 31.8023 0.5 28.2158V7.29371Z"/>
</mask>
<path d="M0.5 7.29371C0.5 3.70723 3.40742 0.799805 6.9939 0.799805H27.7744C31.3609 0.799805 34.2683 3.70722 34.2683 7.29371V28.2158C34.2683 31.8023 31.3609 34.7097 27.7744 34.7097H6.9939C3.40742 34.7097 0.5 31.8023 0.5 28.2158V7.29371Z" fill="#5C15EC"/>
<g clip-path="url(#paint0_diamond_30_1274_clip_path)" data-figma-skip-parse="true" mask="url(#path-1-inside-1_30_1274)"><g transform="matrix(0.0288705 0.0349556 -0.0348096 0.02875 4.39634 1.4492)"><rect x="0" y="0" width="990.279" height="540.746" fill="url(#paint0_diamond_30_1274)" opacity="0.5" shape-rendering="crispEdges"/><rect x="0" y="0" width="990.279" height="540.746" transform="scale(1 -1)" fill="url(#paint0_diamond_30_1274)" opacity="0.5" shape-rendering="crispEdges"/><rect x="0" y="0" width="990.279" height="540.746" transform="scale(-1 1)" fill="url(#paint0_diamond_30_1274)" opacity="0.5" shape-rendering="crispEdges"/><rect x="0" y="0" width="990.279" height="540.746" transform="scale(-1)" fill="url(#paint0_diamond_30_1274)" opacity="0.5" shape-rendering="crispEdges"/></g></g><path d="M6.9939 0.799805V0.962152H27.7744V0.799805V0.637457H6.9939V0.799805ZM34.2683 7.29371H34.1059V28.2158H34.2683H34.4306V7.29371H34.2683ZM27.7744 34.7097V34.5474H6.9939V34.7097V34.8721H27.7744V34.7097ZM0.5 28.2158H0.662348V7.29371H0.5H0.337652V28.2158H0.5ZM6.9939 34.7097V34.5474C3.49708 34.5474 0.662348 31.7126 0.662348 28.2158H0.5H0.337652C0.337652 31.892 3.31776 34.8721 6.9939 34.8721V34.7097ZM34.2683 28.2158H34.1059C34.1059 31.7126 31.2712 34.5474 27.7744 34.5474V34.7097V34.8721C31.4505 34.8721 34.4306 31.892 34.4306 28.2158H34.2683ZM27.7744 0.799805V0.962152C31.2712 0.962152 34.1059 3.79689 34.1059 7.29371H34.2683H34.4306C34.4306 3.61756 31.4505 0.637457 27.7744 0.637457V0.799805ZM6.9939 0.799805V0.637457C3.31776 0.637457 0.337652 3.61756 0.337652 7.29371H0.5H0.662348C0.662348 3.79689 3.49708 0.962152 6.9939 0.962152V0.799805Z" data-figma-gradient-fill="{&#34;type&#34;:&#34;GRADIENT_DIAMOND&#34;,&#34;stops&#34;:[{&#34;color&#34;:{&#34;r&#34;:1.0,&#34;g&#34;:1.0,&#34;b&#34;:1.0,&#34;a&#34;:1.0},&#34;position&#34;:0.0},{&#34;color&#34;:{&#34;r&#34;:0.92802089452743530,&#34;g&#34;:0.92468261718750,&#34;b&#34;:0.92477279901504517,&#34;a&#34;:0.82313358783721924},&#34;position&#34;:0.16126464307308197},{&#34;color&#34;:{&#34;r&#34;:0.83011472225189209,&#34;g&#34;:0.82223582267761230,&#34;b&#34;:0.82244861125946045,&#34;a&#34;:0.58255952596664429},&#34;position&#34;:0.77304577827453613},{&#34;color&#34;:{&#34;r&#34;:0.633728027343750,&#34;g&#34;:0.61674118041992188,&#34;b&#34;:0.61719983816146851,&#34;a&#34;:0.10000000149011612},&#34;position&#34;:1.0}],&#34;stopsVar&#34;:[{&#34;color&#34;:{&#34;r&#34;:1.0,&#34;g&#34;:1.0,&#34;b&#34;:1.0,&#34;a&#34;:1.0},&#34;position&#34;:0.0},{&#34;color&#34;:{&#34;r&#34;:0.92802089452743530,&#34;g&#34;:0.92468261718750,&#34;b&#34;:0.92477279901504517,&#34;a&#34;:0.82313358783721924},&#34;position&#34;:0.16126464307308197},{&#34;color&#34;:{&#34;r&#34;:0.83011472225189209,&#34;g&#34;:0.82223582267761230,&#34;b&#34;:0.82244861125946045,&#34;a&#34;:0.58255952596664429},&#34;position&#34;:0.77304577827453613},{&#34;color&#34;:{&#34;r&#34;:0.633728027343750,&#34;g&#34;:0.61674118041992188,&#34;b&#34;:0.61719983816146851,&#34;a&#34;:0.10000000149011612},&#34;position&#34;:1.0}],&#34;transform&#34;:{&#34;m00&#34;:57.741073608398438,&#34;m01&#34;:-69.619277954101562,&#34;m02&#34;:10.335445404052734,&#34;m10&#34;:69.911247253417969,&#34;m11&#34;:57.499923706054688,&#34;m12&#34;:-62.256389617919922},&#34;opacity&#34;:0.50,&#34;blendMode&#34;:&#34;NORMAL&#34;,&#34;visible&#34;:true}" mask="url(#path-1-inside-1_30_1274)"/>
<path d="M17.6705 4.97528L18.8038 11.4406C18.8462 11.6789 18.9478 11.9026 19.0994 12.0913C19.2509 12.2799 19.4475 12.4274 19.671 12.5202C19.8945 12.6129 20.1378 12.648 20.3784 12.6221C20.619 12.5961 20.8492 12.5101 21.0478 12.3719L26.421 8.6019C26.4542 8.57898 26.4943 8.56842 26.5344 8.57204C26.5745 8.57567 26.6121 8.59325 26.6406 8.62174C26.6691 8.65022 26.6866 8.68779 26.6903 8.7279C26.6939 8.76802 26.6833 8.80814 26.6604 8.84126L22.8904 14.2145C22.7522 14.4131 22.6662 14.6433 22.6402 14.8839C22.6143 15.1245 22.6494 15.3678 22.7421 15.5913C22.8349 15.8148 22.9824 16.0114 23.171 16.1629C23.3597 16.3145 23.5834 16.4161 23.8217 16.4585L30.287 17.5918C30.327 17.5986 30.3633 17.6194 30.3894 17.6505C30.4155 17.6815 30.4299 17.7207 30.4299 17.7613C30.4299 17.8019 30.4155 17.8411 30.3894 17.8722C30.3633 17.9032 30.327 17.924 30.287 17.9309L23.8217 19.0641C23.5834 19.1065 23.3597 19.2081 23.171 19.3597C22.9824 19.5112 22.8349 19.7078 22.7421 19.9313C22.6494 20.1548 22.6143 20.3981 22.6402 20.6387C22.6662 20.8793 22.7522 21.1095 22.8904 21.3081L26.6604 26.6814C26.6833 26.7145 26.6939 26.7546 26.6903 26.7947C26.6866 26.8348 26.6691 26.8724 26.6406 26.9009C26.6121 26.9294 26.5745 26.947 26.5344 26.9506C26.4943 26.9542 26.4542 26.9436 26.421 26.9207L21.0478 23.1507C20.8492 23.0125 20.619 22.9265 20.3784 22.9006C20.1378 22.8747 19.8945 22.9097 19.671 23.0024C19.4475 23.0952 19.2509 23.2427 19.0994 23.4314C18.9478 23.62 18.8462 23.8438 18.8038 24.082L17.6705 30.5473C17.6637 30.5873 17.6429 30.6236 17.6118 30.6497C17.5808 30.6759 17.5416 30.6902 17.501 30.6902C17.4604 30.6902 17.4212 30.6759 17.3901 30.6497C17.3591 30.6236 17.3383 30.5873 17.3314 30.5473L16.1982 24.082C16.1558 23.8438 16.0542 23.62 15.9026 23.4314C15.7511 23.2427 15.5545 23.0952 15.331 23.0024C15.1075 22.9097 14.8642 22.8747 14.6236 22.9006C14.383 22.9265 14.1528 23.0125 13.9542 23.1507L8.5772 26.9282C8.54407 26.9511 8.50396 26.9617 8.46384 26.9581C8.42372 26.9544 8.38615 26.9369 8.35767 26.9084C8.32919 26.8799 8.3116 26.8423 8.30798 26.8022C8.30435 26.7621 8.31492 26.722 8.33783 26.6888L12.1078 21.3156C12.246 21.117 12.3321 20.8868 12.358 20.6462C12.3839 20.4056 12.3489 20.1623 12.2561 19.9388C12.1634 19.7153 12.0159 19.5187 11.8272 19.3672C11.6385 19.2156 11.4148 19.114 11.1765 19.0716L4.71122 17.9383C4.67124 17.9315 4.63498 17.9107 4.60884 17.8797C4.5827 17.8486 4.56836 17.8094 4.56836 17.7688C4.56836 17.7282 4.5827 17.689 4.60884 17.6579C4.63498 17.6269 4.67124 17.6061 4.71122 17.5992L11.1765 16.466C11.4148 16.4236 11.6385 16.322 11.8272 16.1704C12.0159 16.0189 12.1634 15.8223 12.2561 15.5988C12.3489 15.3753 12.3839 15.132 12.358 14.8914C12.3321 14.6508 12.246 14.4206 12.1078 14.222L8.33783 8.84126C8.31492 8.80814 8.30435 8.76802 8.30798 8.7279C8.3116 8.68779 8.32919 8.65022 8.35767 8.62174C8.38615 8.59325 8.42372 8.57567 8.46384 8.57204C8.50396 8.56842 8.54407 8.57898 8.5772 8.6019L13.9504 12.3719C14.1491 12.5101 14.3793 12.5961 14.6199 12.6221C14.8605 12.648 15.1037 12.6129 15.3272 12.5202C15.5507 12.4274 15.7473 12.2799 15.8989 12.0913C16.0504 11.9026 16.1521 11.6789 16.1945 11.4406L17.3277 4.97528C17.3314 4.93234 17.351 4.89234 17.3828 4.86319C17.4145 4.83405 17.456 4.81787 17.4991 4.81787C17.5422 4.81787 17.5837 4.83405 17.6155 4.86319C17.6472 4.89234 17.6669 4.93234 17.6705 4.97528Z" fill="white"/>
<path d="M52.8474 27.1411H48.5078V13.4032H44.5758V10.0226H56.7794V13.4032H52.8474V27.1411ZM61.6765 13.7388C62.8753 13.7388 63.9142 13.9706 64.7933 14.4341C65.6724 14.8817 66.3438 15.553 66.8073 16.4481C67.2868 17.3272 67.5265 18.422 67.5265 19.7327V21.6028H59.8544C59.8864 22.4659 60.1261 23.1532 60.5737 23.6647C61.0372 24.1761 61.7005 24.4319 62.5636 24.4319C63.3628 24.4319 64.0821 24.352 64.7214 24.1921C65.3767 24.0323 66.0481 23.7766 66.7353 23.4249V26.4218C66.144 26.7575 65.4886 26.9973 64.7694 27.1411C64.0501 27.3009 63.147 27.3809 62.0601 27.3809C60.8134 27.3809 59.6946 27.1411 58.7036 26.6616C57.7126 26.1821 56.9294 25.4468 56.354 24.4559C55.7946 23.4489 55.5148 22.1782 55.5148 20.6438C55.5148 19.0774 55.7706 17.7907 56.2821 16.7837C56.7935 15.7608 57.5128 15.0015 58.4398 14.506C59.3669 13.9946 60.4458 13.7388 61.6765 13.7388ZM61.7964 16.544C61.2849 16.544 60.8614 16.7438 60.5257 17.1433C60.1901 17.527 59.9903 18.1423 59.9263 18.9895H63.6425C63.6425 18.5259 63.5706 18.1104 63.4267 17.7427C63.2829 17.3751 63.0751 17.0874 62.8034 16.8796C62.5476 16.6558 62.212 16.544 61.7964 16.544ZM74.4333 27.3809C73.1706 27.3809 72.0678 27.1491 71.1247 26.6856C70.1977 26.2061 69.4784 25.4708 68.9669 24.4798C68.4714 23.4729 68.2237 22.1862 68.2237 20.6198C68.2237 19.0214 68.5034 17.7188 69.0628 16.7118C69.6383 15.6888 70.4215 14.9376 71.4124 14.4581C72.4034 13.9786 73.5223 13.7388 74.769 13.7388C75.5202 13.7388 76.2475 13.8267 76.9508 14.0026C77.67 14.1784 78.2854 14.4022 78.7969 14.6739L77.6221 17.6708C77.1586 17.447 76.735 17.2712 76.3514 17.1433C75.9678 17.0155 75.5602 16.9515 75.1286 16.9515C74.6331 16.9515 74.1936 17.0874 73.81 17.3591C73.4264 17.6149 73.1227 18.0145 72.8989 18.5579C72.6911 19.1013 72.5872 19.7806 72.5872 20.5958C72.5872 21.411 72.6911 22.0823 72.8989 22.6098C73.1227 23.1212 73.4264 23.5048 73.81 23.7606C74.1936 24.0163 74.6331 24.1442 75.1286 24.1442C75.704 24.1442 76.2715 24.0403 76.8309 23.8325C77.4063 23.6247 77.9338 23.345 78.4133 22.9934V26.302C77.9018 26.6536 77.3184 26.9253 76.6631 27.1171C76.0237 27.293 75.2805 27.3809 74.4333 27.3809ZM84.0196 12.1085C84.0196 12.9077 83.9956 13.6269 83.9477 14.2663C83.8997 14.8897 83.8598 15.3452 83.8278 15.6329H84.0436C84.3153 15.1694 84.619 14.8017 84.9546 14.53C85.2903 14.2583 85.6659 14.0585 86.0815 13.9306C86.513 13.8028 86.9686 13.7388 87.4481 13.7388C88.2792 13.7388 89.0305 13.9067 89.7018 14.2423C90.3731 14.578 90.9005 15.0974 91.2842 15.8007C91.6837 16.504 91.8835 17.4231 91.8835 18.5579V27.1411H87.544V19.6847C87.544 18.7577 87.4241 18.0704 87.1843 17.6229C86.9606 17.1593 86.585 16.9276 86.0575 16.9276C85.546 16.9276 85.1384 17.0954 84.8348 17.4311C84.5311 17.7507 84.3153 18.2222 84.1874 18.8456C84.0755 19.469 84.0196 20.2362 84.0196 21.1473V27.1411H79.704V8.91977H84.0196V12.1085ZM100.943 27.1411H96.6039V13.4032H92.6719V10.0226H104.875V13.4032H100.943V27.1411ZM110.017 13.7149C111.6 13.7149 112.831 14.1145 113.71 14.9136C114.605 15.6968 115.052 16.8636 115.052 18.414V27.1411H112.079L111.264 25.3669H111.144C110.793 25.8305 110.433 26.2141 110.065 26.5178C109.698 26.8214 109.274 27.0372 108.795 27.1651C108.315 27.3089 107.732 27.3809 107.044 27.3809C106.341 27.3809 105.702 27.229 105.126 26.9253C104.551 26.6216 104.095 26.1581 103.76 25.5348C103.424 24.9114 103.256 24.1202 103.256 23.1612C103.256 21.7546 103.72 20.7157 104.647 20.0444C105.574 19.3571 106.909 18.9815 108.651 18.9175L110.737 18.8456V18.462C110.737 17.8227 110.601 17.3591 110.329 17.0714C110.057 16.7837 109.69 16.6399 109.226 16.6399C108.731 16.6399 108.179 16.7358 107.572 16.9276C106.965 17.1034 106.357 17.3272 105.75 17.5989L104.527 14.9136C105.246 14.53 106.061 14.2343 106.973 14.0265C107.884 13.8188 108.899 13.7149 110.017 13.7149ZM109.778 21.1952C108.994 21.2272 108.435 21.411 108.099 21.7466C107.78 22.0663 107.62 22.5059 107.62 23.0653C107.62 23.5608 107.732 23.9204 107.956 24.1442C108.195 24.368 108.499 24.4798 108.867 24.4798C109.394 24.4798 109.842 24.28 110.209 23.8805C110.577 23.4649 110.761 22.9054 110.761 22.2022V21.1473L109.778 21.1952ZM121.093 27.1411H116.777V8.91977H121.093V27.1411ZM127.175 16.6159C127.175 17.1274 127.151 17.6708 127.103 18.2462C127.072 18.8056 127.016 19.3491 126.936 19.8766H127.032C127.111 19.6688 127.215 19.453 127.343 19.2292C127.487 19.0054 127.647 18.7817 127.823 18.5579C127.999 18.3181 128.174 18.0784 128.35 17.8386L131.179 13.9786H135.95L131.611 19.6368L136.214 27.1411H131.323L128.566 22.1063L127.175 23.2811V27.1411H122.86V8.91977H127.175V16.6159Z" fill="#010101"/>
<defs>
<clipPath id="paint0_diamond_30_1274_clip_path"><path d="M6.9939 0.799805V0.962152H27.7744V0.799805V0.637457H6.9939V0.799805ZM34.2683 7.29371H34.1059V28.2158H34.2683H34.4306V7.29371H34.2683ZM27.7744 34.7097V34.5474H6.9939V34.7097V34.8721H27.7744V34.7097ZM0.5 28.2158H0.662348V7.29371H0.5H0.337652V28.2158H0.5ZM6.9939 34.7097V34.5474C3.49708 34.5474 0.662348 31.7126 0.662348 28.2158H0.5H0.337652C0.337652 31.892 3.31776 34.8721 6.9939 34.8721V34.7097ZM34.2683 28.2158H34.1059C34.1059 31.7126 31.2712 34.5474 27.7744 34.5474V34.7097V34.8721C31.4505 34.8721 34.4306 31.892 34.4306 28.2158H34.2683ZM27.7744 0.799805V0.962152C31.2712 0.962152 34.1059 3.79689 34.1059 7.29371H34.2683H34.4306C34.4306 3.61756 31.4505 0.637457 27.7744 0.637457V0.799805ZM6.9939 0.799805V0.637457C3.31776 0.637457 0.337652 3.61756 0.337652 7.29371H0.5H0.662348C0.662348 3.79689 3.49708 0.962152 6.9939 0.962152V0.799805Z" mask="url(#path-1-inside-1_30_1274)"/></clipPath><linearGradient id="paint0_diamond_30_1274" x1="0" y1="0" x2="500" y2="500" gradientUnits="userSpaceOnUse">
<stop stop-color="white"/>
<stop offset="0.161265" stop-color="#EDECEC" stop-opacity="0.823134"/>
<stop offset="0.773046" stop-color="#D4D2D2" stop-opacity="0.58256"/>
<stop offset="1" stop-color="#A29D9D" stop-opacity="0.1"/>
</linearGradient>
</defs>
</svg>
