<svg width="16" height="13" viewBox="0 0 16 13" fill="none" xmlns="http://www.w3.org/2000/svg">
<path d="M15.8942 1.90325C15.3327 2.184 14.7712 2.27759 14.1161 2.37117C14.7712 1.99684 15.2391 1.43534 15.4262 0.686677C14.8647 1.06101 14.2097 1.24817 13.461 1.43534C12.8995 0.873843 12.0573 0.499512 11.215 0.499512C9.24978 0.499512 7.75245 2.37117 8.22036 4.24283C5.69363 4.14924 3.44764 2.93267 1.85673 1.06101C1.01448 2.46475 1.4824 4.24283 2.79256 5.17866C2.32464 5.17866 1.85673 4.99149 1.38881 4.80432C1.38881 6.20807 2.41822 7.51823 3.82197 7.89256C3.35405 7.98614 2.88614 8.07973 2.41822 7.98614C2.79256 9.20272 3.91555 10.1385 5.31929 10.1385C4.1963 10.9808 2.51181 11.4487 0.920898 11.2615C2.32464 12.1038 3.91555 12.6653 5.60004 12.6653C11.3086 12.6653 14.4904 7.89256 14.3033 3.49416C14.9583 3.11983 15.5198 2.55834 15.8942 1.90325Z" fill="#7E45F0"/>
</svg>
