<svg width="127" height="28" viewBox="0 0 127 28" fill="none" xmlns="http://www.w3.org/2000/svg">
<mask id="path-1-inside-1_777_6133" fill="white">
<path d="M0.631836 5.23758C0.631836 2.371 2.95566 0.0471802 5.82224 0.0471802H22.4315C25.2981 0.0471802 27.6219 2.371 27.6219 5.23758V21.96C27.6219 24.8266 25.2981 27.1504 22.4315 27.1504H5.82224C2.95566 27.1504 0.631836 24.8266 0.631836 21.96V5.23758Z"/>
</mask>
<path d="M0.631836 5.23758C0.631836 2.371 2.95566 0.0471802 5.82224 0.0471802H22.4315C25.2981 0.0471802 27.6219 2.371 27.6219 5.23758V21.96C27.6219 24.8266 25.2981 27.1504 22.4315 27.1504H5.82224C2.95566 27.1504 0.631836 24.8266 0.631836 21.96V5.23758Z" fill="#5C15EC"/>
<g clip-path="url(#paint0_diamond_777_6133_clip_path)" data-figma-skip-parse="true" mask="url(#path-1-inside-1_777_6133)"><g transform="matrix(0.0230754 0.0279391 -0.0278224 0.0229791 3.74608 0.56622)"><rect x="0" y="0" width="990.279" height="540.746" fill="url(#paint0_diamond_777_6133)" opacity="0.5" shape-rendering="crispEdges"/><rect x="0" y="0" width="990.279" height="540.746" transform="scale(1 -1)" fill="url(#paint0_diamond_777_6133)" opacity="0.5" shape-rendering="crispEdges"/><rect x="0" y="0" width="990.279" height="540.746" transform="scale(-1 1)" fill="url(#paint0_diamond_777_6133)" opacity="0.5" shape-rendering="crispEdges"/><rect x="0" y="0" width="990.279" height="540.746" transform="scale(-1)" fill="url(#paint0_diamond_777_6133)" opacity="0.5" shape-rendering="crispEdges"/></g></g><path d="M5.82224 0.0471802V0.17694H22.4315V0.0471802V-0.0825798H5.82224V0.0471802ZM27.6219 5.23758H27.4922V21.96H27.6219H27.7517V5.23758H27.6219ZM22.4315 27.1504V27.0207H5.82224V27.1504V27.2802H22.4315V27.1504ZM0.631836 21.96H0.761596V5.23758H0.631836H0.502076V21.96H0.631836ZM5.82224 27.1504V27.0207C3.02733 27.0207 0.761596 24.755 0.761596 21.96H0.631836H0.502076C0.502076 24.8983 2.884 27.2802 5.82224 27.2802V27.1504ZM27.6219 21.96H27.4922C27.4922 24.755 25.2264 27.0207 22.4315 27.0207V27.1504V27.2802C25.3698 27.2802 27.7517 24.8983 27.7517 21.96H27.6219ZM22.4315 0.0471802V0.17694C25.2264 0.17694 27.4922 2.44267 27.4922 5.23758H27.6219H27.7517C27.7517 2.29934 25.3698 -0.0825798 22.4315 -0.0825798V0.0471802ZM5.82224 0.0471802V-0.0825798C2.88399 -0.0825798 0.502076 2.29934 0.502076 5.23758H0.631836H0.761596C0.761596 2.44266 3.02732 0.17694 5.82224 0.17694V0.0471802Z" data-figma-gradient-fill="{&#34;type&#34;:&#34;GRADIENT_DIAMOND&#34;,&#34;stops&#34;:[{&#34;color&#34;:{&#34;r&#34;:1.0,&#34;g&#34;:1.0,&#34;b&#34;:1.0,&#34;a&#34;:1.0},&#34;position&#34;:0.0},{&#34;color&#34;:{&#34;r&#34;:0.92802089452743530,&#34;g&#34;:0.92468261718750,&#34;b&#34;:0.92477279901504517,&#34;a&#34;:0.82313358783721924},&#34;position&#34;:0.16126464307308197},{&#34;color&#34;:{&#34;r&#34;:0.83011472225189209,&#34;g&#34;:0.82223582267761230,&#34;b&#34;:0.82244861125946045,&#34;a&#34;:0.58255952596664429},&#34;position&#34;:0.77304577827453613},{&#34;color&#34;:{&#34;r&#34;:0.633728027343750,&#34;g&#34;:0.61674118041992188,&#34;b&#34;:0.61719983816146851,&#34;a&#34;:0.10000000149011612},&#34;position&#34;:1.0}],&#34;stopsVar&#34;:[{&#34;color&#34;:{&#34;r&#34;:1.0,&#34;g&#34;:1.0,&#34;b&#34;:1.0,&#34;a&#34;:1.0},&#34;position&#34;:0.0},{&#34;color&#34;:{&#34;r&#34;:0.92802089452743530,&#34;g&#34;:0.92468261718750,&#34;b&#34;:0.92477279901504517,&#34;a&#34;:0.82313358783721924},&#34;position&#34;:0.16126464307308197},{&#34;color&#34;:{&#34;r&#34;:0.83011472225189209,&#34;g&#34;:0.82223582267761230,&#34;b&#34;:0.82244861125946045,&#34;a&#34;:0.58255952596664429},&#34;position&#34;:0.77304577827453613},{&#34;color&#34;:{&#34;r&#34;:0.633728027343750,&#34;g&#34;:0.61674118041992188,&#34;b&#34;:0.61719983816146851,&#34;a&#34;:0.10000000149011612},&#34;position&#34;:1.0}],&#34;transform&#34;:{&#34;m00&#34;:46.150863647460938,&#34;m01&#34;:-55.644790649414062,&#34;m02&#34;:8.4930391311645508,&#34;m10&#34;:55.878150939941406,&#34;m11&#34;:45.958118438720703,&#34;m12&#34;:-50.351917266845703},&#34;opacity&#34;:0.50,&#34;blendMode&#34;:&#34;NORMAL&#34;,&#34;visible&#34;:true}" mask="url(#path-1-inside-1_777_6133)"/>
<path d="M14.356 3.38485L15.2618 8.5524C15.2957 8.74283 15.3769 8.92167 15.498 9.07247C15.6192 9.22326 15.7763 9.34115 15.9549 9.41529C16.1336 9.48942 16.328 9.51742 16.5203 9.49671C16.7126 9.476 16.8966 9.40723 17.0554 9.29675L21.35 6.2835C21.3765 6.26519 21.4086 6.25674 21.4406 6.25964C21.4727 6.26254 21.5027 6.27659 21.5255 6.29936C21.5483 6.32212 21.5623 6.35215 21.5652 6.38422C21.5681 6.41628 21.5597 6.44834 21.5414 6.47482L18.5281 10.7695C18.4176 10.9283 18.3489 11.1123 18.3282 11.3046C18.3074 11.4969 18.3354 11.6913 18.4096 11.8699C18.4837 12.0486 18.6016 12.2057 18.7524 12.3268C18.9032 12.448 19.082 12.5292 19.2725 12.5631L24.44 13.4689C24.472 13.4744 24.501 13.491 24.5218 13.5158C24.5427 13.5406 24.5542 13.5719 24.5542 13.6044C24.5542 13.6368 24.5427 13.6682 24.5218 13.693C24.501 13.7178 24.472 13.7344 24.44 13.7399L19.2725 14.6457C19.082 14.6795 18.9032 14.7608 18.7524 14.8819C18.6016 15.003 18.4837 15.1602 18.4096 15.3388C18.3354 15.5175 18.3074 15.7119 18.3282 15.9042C18.3489 16.0965 18.4176 16.2805 18.5281 16.4393L21.5414 20.7339C21.5597 20.7604 21.5681 20.7925 21.5652 20.8245C21.5623 20.8566 21.5483 20.8866 21.5255 20.9094C21.5027 20.9322 21.4727 20.9462 21.4406 20.9491C21.4086 20.952 21.3765 20.9436 21.35 20.9252L17.0554 17.912C16.8966 17.8015 16.7126 17.7328 16.5203 17.712C16.328 17.6913 16.1336 17.7193 15.9549 17.7935C15.7763 17.8676 15.6192 17.9855 15.498 18.1363C15.3769 18.2871 15.2957 18.4659 15.2618 18.6563L14.356 23.8239C14.3505 23.8559 14.3339 23.8848 14.3091 23.9057C14.2843 23.9266 14.2529 23.9381 14.2205 23.9381C14.1881 23.9381 14.1567 23.9266 14.1319 23.9057C14.1071 23.8848 14.0905 23.8559 14.085 23.8239L13.1792 18.6563C13.1453 18.4659 13.0641 18.2871 12.9429 18.1363C12.8218 17.9855 12.6647 17.8676 12.4861 17.7935C12.3074 17.7193 12.113 17.6913 11.9207 17.712C11.7284 17.7328 11.5444 17.8015 11.3856 17.912L7.08794 20.9312C7.06147 20.9495 7.0294 20.958 6.99734 20.9551C6.96528 20.9522 6.93525 20.9381 6.91248 20.9154C6.88972 20.8926 6.87566 20.8626 6.87277 20.8305C6.86987 20.7984 6.87831 20.7664 6.89663 20.7399L9.90987 16.4452C10.0204 16.2865 10.0891 16.1025 10.1098 15.9102C10.1305 15.7179 10.1025 15.5234 10.0284 15.3448C9.95427 15.1661 9.83638 15.009 9.68559 14.8879C9.5348 14.7668 9.35596 14.6855 9.16553 14.6516L3.99797 13.7459C3.96602 13.7404 3.93703 13.7238 3.91614 13.699C3.89525 13.6742 3.88379 13.6428 3.88379 13.6104C3.88379 13.5779 3.89525 13.5465 3.91614 13.5218C3.93703 13.497 3.96602 13.4803 3.99797 13.4748L9.16553 12.5691C9.35596 12.5352 9.5348 12.4539 9.68559 12.3328C9.83638 12.2117 9.95427 12.0546 10.0284 11.8759C10.1025 11.6973 10.1305 11.5028 10.1098 11.3105C10.0891 11.1182 10.0204 10.9342 9.90987 10.7755L6.89663 6.47482C6.87831 6.44834 6.86987 6.41628 6.87277 6.38422C6.87566 6.35215 6.88972 6.32212 6.91248 6.29936C6.93525 6.27659 6.96528 6.26254 6.99734 6.25964C7.0294 6.25674 7.06147 6.26519 7.08794 6.2835L11.3826 9.29675C11.5414 9.40723 11.7254 9.476 11.9177 9.49671C12.11 9.51742 12.3044 9.48942 12.4831 9.41529C12.6617 9.34115 12.8188 9.22326 12.94 9.07247C13.0611 8.92167 13.1423 8.74283 13.1762 8.5524L14.082 3.38485C14.0849 3.35053 14.1006 3.31856 14.126 3.29526C14.1514 3.27196 14.1845 3.25903 14.219 3.25903C14.2534 3.25903 14.2866 3.27196 14.312 3.29526C14.3374 3.31856 14.3531 3.35053 14.356 3.38485Z" fill="white"/>
<path d="M42.2484 21.8976H38.4768V9.95751H35.0594V7.01936H45.6659V9.95751H42.2484V21.8976ZM49.9222 10.2492C50.9641 10.2492 51.867 10.4507 52.6311 10.8535C53.3952 11.2425 53.9786 11.826 54.3815 12.6039C54.7982 13.368 55.0066 14.3196 55.0066 15.4587V17.0841H48.3385C48.3663 17.8342 48.5746 18.4316 48.9636 18.8761C49.3665 19.3207 49.943 19.543 50.6932 19.543C51.3878 19.543 52.0129 19.4735 52.5686 19.3346C53.1382 19.1957 53.7216 18.9734 54.319 18.6678V21.2725C53.805 21.5642 53.2354 21.7726 52.6103 21.8976C51.9851 22.0366 51.2002 22.106 50.2556 22.106C49.172 22.106 48.1996 21.8976 47.3383 21.4809C46.477 21.0641 45.7963 20.4251 45.2961 19.5638C44.8099 18.6886 44.5668 17.5842 44.5668 16.2506C44.5668 14.8892 44.7891 13.7709 45.2336 12.8957C45.6782 12.0066 46.3033 11.3467 47.109 10.9161C47.9148 10.4715 48.8525 10.2492 49.9222 10.2492ZM50.0264 12.6873C49.5818 12.6873 49.2137 12.8609 48.9219 13.2082C48.6302 13.5416 48.4566 14.0765 48.401 14.8127H51.6309C51.6309 14.4099 51.5684 14.0487 51.4433 13.7292C51.3183 13.4097 51.1377 13.1596 50.9015 12.979C50.6793 12.7845 50.3875 12.6873 50.0264 12.6873ZM61.0096 22.106C59.9121 22.106 58.9536 21.9046 58.1339 21.5017C57.3282 21.085 56.7031 20.4459 56.2585 19.5846C55.8279 18.7094 55.6125 17.5911 55.6125 16.2297C55.6125 14.8405 55.8557 13.7083 56.3419 12.8331C56.842 11.9441 57.5227 11.2911 58.384 10.8744C59.2453 10.4576 60.2177 10.2492 61.3013 10.2492C61.9542 10.2492 62.5863 10.3256 63.1976 10.4785C63.8227 10.6313 64.3575 10.8258 64.8021 11.0619L63.781 13.6667C63.3781 13.4722 63.01 13.3194 62.6766 13.2082C62.3432 13.0971 61.989 13.0415 61.6139 13.0415C61.1832 13.0415 60.8012 13.1596 60.4678 13.3958C60.1344 13.618 59.8704 13.9653 59.6759 14.4377C59.4953 14.91 59.405 15.5004 59.405 16.2089C59.405 16.9174 59.4953 17.5008 59.6759 17.9593C59.8704 18.4038 60.1344 18.7372 60.4678 18.9595C60.8012 19.1818 61.1832 19.2929 61.6139 19.2929C62.114 19.2929 62.6071 19.2026 63.0934 19.022C63.5935 18.8414 64.0519 18.5983 64.4687 18.2927V21.1683C64.0241 21.4739 63.5171 21.7101 62.9475 21.8768C62.3918 22.0296 61.7458 22.106 61.0096 22.106ZM69.3413 8.83226C69.3413 9.52686 69.3205 10.152 69.2788 10.7077C69.2371 11.2495 69.2024 11.6454 69.1746 11.8954H69.3622C69.5983 11.4926 69.8623 11.1731 70.154 10.9369C70.4457 10.7007 70.7722 10.5271 71.1334 10.4159C71.5085 10.3048 71.9044 10.2492 72.3211 10.2492C73.0435 10.2492 73.6964 10.3951 74.2799 10.6868C74.8634 10.9786 75.3218 11.4301 75.6552 12.0413C76.0025 12.6526 76.1762 13.4513 76.1762 14.4377V21.8976H72.4045V15.417C72.4045 14.6113 72.3003 14.014 72.0919 13.625C71.8974 13.2221 71.571 13.0207 71.1125 13.0207C70.668 13.0207 70.3138 13.1666 70.0498 13.4583C69.7859 13.7361 69.5983 14.1459 69.4872 14.6877C69.3899 15.2295 69.3413 15.8963 69.3413 16.6882V21.8976H65.5905V6.06082H69.3413V8.83226ZM84.0505 21.8976H80.2788V9.95751H76.8614V7.01936H87.4679V9.95751H84.0505V21.8976ZM91.937 10.2284C93.3123 10.2284 94.3819 10.5757 95.146 11.2703C95.924 11.951 96.3129 12.9651 96.3129 14.3126V21.8976H93.729L93.0205 20.3556H92.9163C92.6107 20.7585 92.2982 21.0919 91.9786 21.3559C91.6591 21.6198 91.291 21.8073 90.8742 21.9185C90.4575 22.0435 89.9504 22.106 89.3531 22.106C88.7418 22.106 88.1861 21.974 87.686 21.7101C87.1859 21.4462 86.79 21.0433 86.4983 20.5015C86.2065 19.9597 86.0607 19.2721 86.0607 18.4385C86.0607 17.2161 86.4635 16.3131 87.2693 15.7296C88.075 15.1323 89.235 14.8058 90.7492 14.7502L92.5621 14.6877V14.3543C92.5621 13.7986 92.444 13.3958 92.2079 13.1457C91.9717 12.8957 91.6522 12.7706 91.2493 12.7706C90.8187 12.7706 90.3394 12.854 89.8115 13.0207C89.2836 13.1735 88.7557 13.368 88.2278 13.6041L87.1651 11.2703C87.7902 10.9369 88.4987 10.6799 89.2905 10.4993C90.0824 10.3187 90.9645 10.2284 91.937 10.2284ZM91.7286 16.7298C91.0479 16.7576 90.5617 16.9174 90.2699 17.2091C89.9921 17.4869 89.8532 17.869 89.8532 18.3552C89.8532 18.7858 89.9504 19.0984 90.1449 19.2929C90.3533 19.4874 90.6172 19.5846 90.9367 19.5846C91.3952 19.5846 91.7842 19.411 92.1037 19.0637C92.4232 18.7025 92.5829 18.2163 92.5829 17.605V16.6882L91.7286 16.7298ZM101.563 21.8976H97.812V6.06082H101.563V21.8976ZM106.85 12.7498C106.85 13.1943 106.829 13.6667 106.787 14.1668C106.759 14.653 106.711 15.1253 106.641 15.5838H106.725C106.794 15.4032 106.884 15.2156 106.995 15.0211C107.12 14.8266 107.259 14.6322 107.412 14.4377C107.565 14.2293 107.718 14.0209 107.871 13.8125L110.33 10.4576H114.476L110.705 15.3754L114.705 21.8976H110.455L108.058 17.5217L106.85 18.5427V21.8976H103.099V6.06082H106.85V12.7498Z" fill="#5C15EC"/>
<defs>
<clipPath id="paint0_diamond_777_6133_clip_path"><path d="M5.82224 0.0471802V0.17694H22.4315V0.0471802V-0.0825798H5.82224V0.0471802ZM27.6219 5.23758H27.4922V21.96H27.6219H27.7517V5.23758H27.6219ZM22.4315 27.1504V27.0207H5.82224V27.1504V27.2802H22.4315V27.1504ZM0.631836 21.96H0.761596V5.23758H0.631836H0.502076V21.96H0.631836ZM5.82224 27.1504V27.0207C3.02733 27.0207 0.761596 24.755 0.761596 21.96H0.631836H0.502076C0.502076 24.8983 2.884 27.2802 5.82224 27.2802V27.1504ZM27.6219 21.96H27.4922C27.4922 24.755 25.2264 27.0207 22.4315 27.0207V27.1504V27.2802C25.3698 27.2802 27.7517 24.8983 27.7517 21.96H27.6219ZM22.4315 0.0471802V0.17694C25.2264 0.17694 27.4922 2.44267 27.4922 5.23758H27.6219H27.7517C27.7517 2.29934 25.3698 -0.0825798 22.4315 -0.0825798V0.0471802ZM5.82224 0.0471802V-0.0825798C2.88399 -0.0825798 0.502076 2.29934 0.502076 5.23758H0.631836H0.761596C0.761596 2.44266 3.02732 0.17694 5.82224 0.17694V0.0471802Z" mask="url(#path-1-inside-1_777_6133)"/></clipPath><linearGradient id="paint0_diamond_777_6133" x1="0" y1="0" x2="500" y2="500" gradientUnits="userSpaceOnUse">
<stop stop-color="white"/>
<stop offset="0.161265" stop-color="#EDECEC" stop-opacity="0.823134"/>
<stop offset="0.773046" stop-color="#D4D2D2" stop-opacity="0.58256"/>
<stop offset="1" stop-color="#A29D9D" stop-opacity="0.1"/>
</linearGradient>
</defs>
</svg>
