<svg width="25" height="24" viewBox="0 0 25 24" fill="none" xmlns="http://www.w3.org/2000/svg">
<path opacity="0.2" d="M18.9889 14.2733L15.3712 17.891L9.58284 16.4439L4.51807 12.8262L7.47372 6.91399L12.477 5.59082L17.4803 6.91399L17.5056 7.0379H13.9241L9.79448 11.0436C9.71771 11.1203 9.65918 11.2133 9.62324 11.3158C9.5873 11.4182 9.57487 11.5274 9.58685 11.6352C9.59884 11.7431 9.63494 11.8469 9.69249 11.9389C9.75003 12.031 9.82755 12.1089 9.91929 12.1669C11.5029 13.1789 13.6527 13.1093 15.3712 11.3791L18.9889 14.2733Z" fill="#5E16EC"/>
<path d="M23.8996 10.2854L21.5915 5.66743C21.5065 5.49746 21.3888 5.3459 21.2452 5.22141C21.1016 5.09692 20.9349 5.00194 20.7546 4.94189C20.5743 4.88184 20.3839 4.8579 20.1943 4.87144C20.0048 4.88497 19.8197 4.93571 19.6497 5.02077L17.4004 6.14497L12.6622 4.89144C12.5406 4.8598 12.4129 4.8598 12.2914 4.89144L7.55308 6.14497L5.30377 5.02077C5.13382 4.93571 4.94877 4.88497 4.7592 4.87144C4.56963 4.8579 4.37925 4.88184 4.19893 4.94189C4.01861 5.00194 3.85189 5.09692 3.70829 5.22141C3.56468 5.3459 3.447 5.49746 3.36197 5.66743L1.05388 10.2845C0.968829 10.4545 0.918086 10.6395 0.904552 10.8291C0.891019 11.0187 0.914961 11.209 0.97501 11.3894C1.03506 11.5697 1.13004 11.7364 1.25453 11.88C1.37902 12.0236 1.53058 12.1413 1.70055 12.2263L4.14249 13.4482L9.16114 17.0324C9.23513 17.085 9.31824 17.1233 9.40624 17.1455L15.1946 18.5926C15.3158 18.623 15.4428 18.6214 15.5633 18.5882C15.6837 18.5549 15.7935 18.491 15.8819 18.4026L20.8626 13.4211L23.2521 12.2263C23.5951 12.0546 23.8559 11.7537 23.9772 11.3897C24.0984 11.0258 24.0711 10.6286 23.8996 10.2854ZM18.9353 13.3035L15.8231 10.8109C15.6837 10.6992 15.5079 10.6431 15.3296 10.6533C15.1513 10.6635 14.983 10.7393 14.8572 10.8661C13.2464 12.4886 11.4511 12.2833 10.3061 11.5598L14.2169 7.76117H17.0938L19.5548 12.6821L18.9353 13.3035ZM4.65621 6.31409L6.50756 7.23842L4.19495 11.8555L2.34721 10.9321L4.65621 6.31409ZM15.1475 17.0885L9.89192 15.7753L5.44215 12.5971L7.97454 7.53235L12.4768 6.33942L13.3631 6.57366L9.29319 10.5242L9.28595 10.5323C9.13275 10.6855 9.0159 10.8712 8.94403 11.0756C8.87217 11.28 8.84712 11.4979 8.87073 11.7133C8.89434 11.9286 8.96601 12.136 9.08046 12.3199C9.1949 12.5039 9.3492 12.6598 9.53196 12.7762C11.3915 13.9637 13.6353 13.7711 15.4026 12.324L17.9033 14.3327L15.1475 17.0885ZM20.755 11.8546L18.4469 7.24203L20.2973 6.31409L22.6063 10.9321L20.755 11.8546ZM12.8186 20.2359C12.7795 20.3923 12.6894 20.5311 12.5624 20.6304C12.4354 20.7297 12.2789 20.7837 12.1177 20.784C12.0582 20.784 11.999 20.7767 11.9413 20.7623L8.17261 19.8199C8.08447 19.7981 8.00128 19.7597 7.92751 19.7068L5.54435 18.0047C5.39782 17.8896 5.30131 17.7225 5.27493 17.5381C5.24854 17.3536 5.29431 17.1661 5.40271 17.0146C5.51111 16.8631 5.67377 16.7592 5.85684 16.7246C6.0399 16.69 6.22925 16.7274 6.38546 16.8289L8.65647 18.4515L12.2959 19.3595C12.482 19.4061 12.642 19.5246 12.7407 19.6892C12.8394 19.8537 12.8688 20.0507 12.8222 20.2368L12.8186 20.2359Z" fill="#5E16EC"/>
</svg>
