<svg width="19" height="14" viewBox="0 0 19 14" fill="none" xmlns="http://www.w3.org/2000/svg">
<path d="M15.4295 1.24036C14.2869 0.705508 13.0446 0.317294 11.7478 0.0929432C11.7296 0.0933059 11.7025 0.102555 11.6844 0.118788C11.5302 0.403534 11.3488 0.77452 11.2309 1.05918C9.86161 0.852326 8.46502 0.852326 7.08663 1.05918C6.96875 0.765905 6.78737 0.403534 6.62414 0.118788C6.61507 0.101558 6.58791 0.0929432 6.56071 0.0929432C5.273 0.317294 4.03965 0.705508 2.8789 1.24036C2.86983 1.24036 2.86074 1.24907 2.85167 1.25768C0.512035 4.76904 -0.140843 8.18545 0.17655 11.5675C0.17655 11.5847 0.185645 11.602 0.203782 11.6106C1.75447 12.7495 3.25074 13.4397 4.72888 13.8969C4.75609 13.9055 4.77417 13.8969 4.78324 13.8797C5.12783 13.4051 5.44524 12.9047 5.70823 12.3785C5.72636 12.3439 5.7083 12.3094 5.67203 12.3008C5.18234 12.111 4.7198 11.8867 4.25731 11.6279C4.23011 11.6106 4.2301 11.5588 4.24823 11.5329C4.34799 11.4639 4.43873 11.3863 4.53848 11.3173C4.55662 11.3 4.58377 11.3 4.59284 11.3086C7.56726 12.6631 10.7684 12.6631 13.6975 11.3086C13.7156 11.3 13.7428 11.3 13.7609 11.3173C13.8516 11.3949 13.9514 11.4639 14.0421 11.5416C14.0784 11.5675 14.0784 11.6192 14.033 11.6365C13.5887 11.9039 13.108 12.1196 12.6183 12.3094C12.582 12.3181 12.573 12.3612 12.5821 12.3871C12.8632 12.9133 13.1715 13.4137 13.507 13.8883C13.5342 13.8969 13.5615 13.9055 13.5887 13.8969C15.0668 13.4397 16.5631 12.7495 18.1138 11.6106C18.1319 11.602 18.141 11.5847 18.141 11.5675C18.5219 7.65921 17.5152 4.26865 15.4658 1.25768C15.4567 1.24907 15.4476 1.24036 15.4295 1.24036ZM6.16164 9.50554C5.27294 9.50554 4.52941 8.68585 4.52941 7.67645C4.52941 6.66705 5.25481 5.84745 6.16164 5.84745C7.07755 5.84745 7.79398 6.67566 7.78491 7.67645C7.78491 8.68585 7.06848 9.50554 6.16164 9.50554ZM12.174 9.50554C11.2853 9.50554 10.5417 8.68585 10.5417 7.67645C10.5417 6.66705 11.2671 5.84745 12.174 5.84745C13.0899 5.84745 13.8154 6.67566 13.8063 7.67645C13.8063 8.68585 13.0899 9.50554 12.174 9.50554Z" fill="white"/>
</svg>
