<svg width="25" height="24" viewBox="0 0 25 24" fill="none" xmlns="http://www.w3.org/2000/svg">
<path opacity="0.6" fill-rule="evenodd" clip-rule="evenodd" d="M3.55561 10.6101C4.66971 10.2396 5.8421 9.74717 6.74619 9.03423C7.81995 8.18743 8.25664 7.09683 8.54989 5.94884C8.92638 4.47396 9.07682 2.90284 9.53334 1.42557C9.70238 0.87697 10.0277 0.669598 10.1673 0.577568C10.5201 0.345101 10.8767 0.282962 11.2122 0.306269C11.6098 0.333161 12.156 0.473588 12.5152 1.09569C12.5664 1.18473 12.633 1.3204 12.6778 1.50625C12.7105 1.6425 12.7316 2.06859 12.7662 2.24428C12.8526 2.67694 12.925 3.10962 12.9928 3.54468C13.2188 4.99267 13.3488 6.22251 14.0628 7.55278C15.0315 9.35873 16.0022 10.4637 17.3186 10.9531C18.5915 11.4264 20.1135 11.3374 22.058 10.9663C22.2431 10.9245 22.4262 10.8886 22.6074 10.8593C23.4647 10.7195 24.2843 11.2448 24.4527 12.042C24.6211 12.8386 24.0762 13.6149 23.2266 13.79C23.0492 13.8264 22.8744 13.8611 22.7015 13.8927C20.0738 14.4999 17.0318 16.6668 15.2639 18.5642C14.719 19.1493 13.9213 20.7849 13.1074 21.8283C12.5069 22.598 11.832 23.1054 11.2653 23.2847C10.8856 23.4054 10.5655 23.3869 10.3011 23.3259C9.9169 23.2375 9.59805 23.0432 9.35346 22.7343C9.22027 22.5651 9.09667 22.3386 9.03777 22.0494C9.00959 21.9102 9.00641 21.5564 9.00705 21.3963C8.84122 20.8638 8.63824 20.3439 8.49033 19.8066C8.13753 18.5248 7.44537 17.7132 6.62324 16.6411C5.85426 15.6377 5.02831 15.0073 3.81753 14.5041C3.66002 14.4682 2.38904 14.1778 1.9402 14.0111C1.28454 13.7666 0.972068 13.3573 0.858737 13.1368C0.66601 12.7627 0.646179 12.4358 0.684596 12.1633C0.741581 11.7611 0.93495 11.4169 1.27814 11.139C1.49072 10.9663 1.80831 10.7984 2.23346 10.7165C2.56192 10.6525 3.43332 10.6155 3.55561 10.6101ZM11.0118 8.52089C11.0707 8.6434 11.1334 8.76651 11.2 8.89082C12.6189 11.5358 14.2055 13.0125 16.1341 13.729L16.1988 13.7523C14.9086 14.6463 13.7407 15.6455 12.8481 16.6035C12.4806 16.9979 11.994 17.8172 11.4683 18.6574C10.9907 17.2083 10.2095 16.184 9.2273 14.9021C8.47689 13.9238 7.69062 13.1876 6.72442 12.5876C7.4742 12.2284 8.18939 11.8077 8.81239 11.3165C9.84966 10.4984 10.5354 9.55056 11.0118 8.52089Z" fill="#5E16EC"/>
</svg>
