<svg width="481" height="603" viewBox="0 0 481 603" fill="none" xmlns="http://www.w3.org/2000/svg">
<path d="M480.203 -162.588V-35.5755L437.336 -78.4421L396.057 -119.721V-162.588H394.469V-119.721L353.19 -78.4421V-162.588H97.5786V-119.721L54.712 -78.4421V-162.588L13.4331 -121.309V-162.588H11.8454V-119.721L-29.4335 -78.4421V-162.588H-285.045V-33.9879H-158.033L-200.9 7.29106L-242.179 50.1577L-200.9 91.4366H-285.045V93.0242H-200.9L-242.179 134.303H-285.045V135.891H-243.766L-285.045 177.17H-200.9L-242.179 220.036H-285.045V602.66H-29.4335V518.515L11.8454 559.794V602.66H13.4331V559.794L54.712 518.515L97.5786 475.648V602.66H353.19V559.794V518.515L394.469 559.794V602.66H396.057V561.381L437.336 602.66V518.515L480.203 559.794V602.66V220.036H353.19L396.057 177.17L437.336 135.891H480.203V134.303H437.336L396.057 93.0242H480.203V91.4366H396.057L437.336 50.1577H480.203H438.924L480.203 7.29106H396.057L437.336 -33.9879H480.203V-162.588ZM394.469 -119.721L437.336 -76.8545V-35.5755H353.19V-76.8545L394.469 -119.721ZM437.336 -76.8545L480.203 -35.5755H437.336V-76.8545ZM183.312 559.794L140.445 518.515H224.591L267.457 559.794H183.312ZM13.4331 474.061L54.712 432.782H140.445L181.724 474.061H13.4331ZM-72.3001 559.794H-156.446L-115.167 518.515H-31.0212L-72.3001 559.794ZM-242.179 305.77L-200.9 262.903V347.048L-242.179 389.915V305.77ZM-158.033 220.036L-199.312 261.315V220.036H-158.033ZM-156.446 134.303V50.1577L-115.167 8.87871V177.17L-156.446 220.036V135.891V134.303ZM-31.0212 -78.4421H-115.167L-156.446 -119.721H-72.3001L-31.0212 -78.4421ZM140.445 -119.721H224.591L181.724 -78.4421H97.5786L140.445 -119.721ZM353.19 262.903L394.469 304.182H310.324L269.045 262.903H353.19ZM310.324 305.77L267.457 347.048H226.178V262.903H267.457L310.324 305.77ZM351.603 518.515V559.794L269.045 475.648H351.603V516.927V518.515ZM183.312 474.061L140.445 432.782L183.312 389.915H224.591V474.061H183.312ZM140.445 432.782H56.2997L97.5786 389.915H181.724L140.445 432.782ZM-199.312 516.927L-242.179 475.648H-73.8878L-115.167 516.927H-199.312ZM-158.033 391.503V474.061H-242.179L-158.033 391.503ZM97.5786 -76.8545L138.858 -35.5755H97.5786V-76.8545ZM267.457 -76.8545L308.736 -35.5755H140.445L183.312 -76.8545H267.457ZM351.603 50.1577V134.303L310.324 177.17V7.29106L351.603 -33.9879V50.1577ZM183.312 389.915L224.591 348.636V389.915H183.312ZM13.4331 389.915L54.712 348.636H97.5786H224.591L181.724 389.915H13.4331ZM-72.3001 474.061V432.782L-31.0212 474.061H-72.3001ZM-31.0212 475.648V516.927L-72.3001 475.648H-31.0212ZM-72.3001 474.061H-156.446V432.782L-115.167 389.915L-72.3001 432.782V474.061ZM-72.3001 50.1577L-31.0212 8.87871V91.4366V177.17L-72.3001 134.303V50.1577ZM11.8454 -33.9879H13.4331H140.445L181.724 7.29106H13.4331L-29.4335 -33.9879H11.8454ZM267.457 220.036V135.891L310.324 93.0242V177.17L267.457 220.036ZM-115.167 389.915L-156.446 431.194V262.903L-115.167 305.77V389.915ZM-115.167 220.036L-156.446 261.315V220.036H-115.167ZM-156.446 262.903L-115.167 220.036V304.182L-156.446 262.903ZM-29.4335 220.036V135.891L11.8454 177.17V262.903L-29.4335 304.182V220.036ZM11.8454 7.29106H-29.4335V-33.9879L11.8454 7.29106ZM-29.4335 7.29106H11.8454L54.712 50.1577L11.8454 91.4366H-29.4335V7.29106ZM267.457 134.303L226.178 177.17V50.1577V8.87871L267.457 50.1577V134.303ZM267.457 220.036L226.178 177.17L267.457 135.891V220.036ZM224.591 347.048L183.312 304.182V135.891L224.591 177.17V220.036V347.048ZM54.712 50.1577H140.445L181.724 91.4366H140.445H97.5786H13.4331L54.712 50.1577ZM181.724 220.036L140.445 177.17V93.0242L181.724 135.891V220.036ZM54.712 135.891L97.5786 93.0242V134.303V135.891V220.036V262.903L54.712 304.182V135.891ZM97.5786 93.0242L54.712 134.303V93.0242H97.5786ZM97.5786 262.903V347.048H13.4331L97.5786 262.903ZM97.5786 93.0242H138.858L97.5786 134.303V93.0242ZM140.445 93.0242V177.17L97.5786 134.303L140.445 93.0242ZM140.445 93.0242H181.724H183.312H224.591V177.17L140.445 93.0242ZM183.312 91.4366L224.591 50.1577V91.4366H183.312ZM183.312 91.4366L140.445 50.1577H224.591L183.312 91.4366ZM54.712 93.0242V134.303L11.8454 177.17L-29.4335 134.303V93.0242H54.712ZM13.4331 177.17L54.712 135.891V220.036L13.4331 261.315V177.17ZM54.712 220.036V304.182L13.4331 347.048V262.903L54.712 220.036ZM11.8454 347.048L-29.4335 305.77L11.8454 262.903V347.048ZM11.8454 347.048H-29.4335V305.77L11.8454 347.048ZM97.5786 220.036V135.891L140.445 177.17V262.903L97.5786 304.182V220.036ZM140.445 178.757L181.724 220.036V304.182L140.445 262.903V178.757ZM224.591 -33.9879V48.57L140.445 -33.9879H224.591ZM224.591 50.1577H140.445L97.5786 7.29106H181.724L224.591 50.1577ZM97.5786 7.29106L138.858 50.1577H54.712L13.4331 7.29106H97.5786ZM97.5786 305.77L140.445 262.903L181.724 305.77V347.048H97.5786V305.77ZM183.312 305.77L224.591 347.048H183.312V305.77ZM226.178 178.757L267.457 220.036H226.178V178.757ZM310.324 93.0242L267.457 134.303V50.1577L310.324 8.87871V93.0242ZM267.457 50.1577L226.178 7.29106V-33.9879H310.324V7.29106L267.457 50.1577ZM-31.0212 7.29106L-72.3001 -33.9879H-31.0212V7.29106ZM-72.3001 -33.9879L-31.0212 7.29106L-72.3001 48.57V-33.9879ZM-115.167 389.915V305.77L-72.3001 347.048V431.194L-115.167 389.915ZM-72.3001 347.048L-115.167 304.182V220.036L-72.3001 262.903V347.048ZM-113.579 220.036H-31.0212V304.182L-113.579 220.036ZM11.8454 348.636H13.4331H54.712L-29.4335 431.194V348.636H11.8454ZM269.045 220.036L351.603 135.891V220.036H269.045ZM310.324 7.29106V-33.9879H351.603L310.324 7.29106ZM140.445 -35.5755L97.5786 -76.8545H181.724L140.445 -35.5755ZM-72.3001 -35.5755L-31.0212 -76.8545V-35.5755H-72.3001ZM-72.3001 -35.5755L-113.579 -76.8545H-31.0212L-72.3001 -35.5755ZM-73.8878 -33.9879L-156.446 48.57V-33.9879H-73.8878ZM-72.3001 -33.9879V50.1577L-115.167 91.4366V7.29106L-72.3001 -33.9879ZM-115.167 93.0242L-72.3001 50.1577V134.303L-115.167 177.17V93.0242ZM-72.3001 135.891L-31.0212 177.17V220.036H-115.167V177.17L-72.3001 135.891ZM-115.167 220.036H-156.446L-115.167 178.757V220.036ZM-72.3001 475.648L-31.0212 516.927H-113.579L-72.3001 475.648ZM-72.3001 432.782V262.903L-31.0212 305.77V348.636V432.782V474.061L-72.3001 432.782ZM-29.4335 432.782L13.4331 389.915H97.5786L54.712 432.782H-29.4335ZM54.712 432.782L11.8454 474.061L-29.4335 432.782H54.712ZM226.178 474.061V391.503L308.736 474.061H226.178ZM226.178 389.915H310.324L351.603 432.782H267.457L226.178 389.915ZM226.178 389.915L267.457 348.636L308.736 389.915H226.178ZM226.178 389.915V348.636H267.457L226.178 389.915ZM226.178 262.903V220.036L267.457 262.903H226.178ZM351.603 -119.721H310.324L351.603 -162.588V-119.721ZM351.603 -119.721V-35.5755H310.324L267.457 -76.8545L310.324 -119.721H351.603ZM267.457 -78.4421H183.312L224.591 -119.721H308.736L267.457 -78.4421ZM-29.4335 -35.5755V-76.8545L11.8454 -35.5755H-29.4335ZM-158.033 -119.721L-115.167 -78.4421H-199.312L-242.179 -119.721H-158.033ZM-199.312 -76.8545H-115.167L-73.8878 -35.5755H-242.179L-199.312 -76.8545ZM-158.033 220.036V262.903V389.915L-199.312 431.194V262.903L-158.033 220.036ZM-200.9 348.636V432.782L-242.179 474.061V389.915L-200.9 348.636ZM-242.179 474.061L-285.045 432.782L-242.179 391.503V474.061ZM-200.9 516.927L-242.179 559.794H-285.045V475.648H-242.179L-200.9 516.927ZM-199.312 518.515H-115.167L-158.033 559.794H-242.179L-199.312 518.515ZM-29.4335 432.782L11.8454 474.061H-29.4335V432.782ZM97.5786 475.648L138.858 516.927H97.5786V475.648ZM97.5786 475.648H224.591H267.457L308.736 516.927H140.445L97.5786 475.648ZM226.178 518.515H310.324L351.603 559.794H267.457L226.178 518.515ZM351.603 559.794L310.324 602.66L269.045 559.794H351.603ZM396.057 474.061H394.469H310.324L269.045 432.782H437.336L480.203 474.061H396.057ZM353.19 432.782L310.324 389.915H394.469L437.336 432.782H353.19ZM394.469 389.915H310.324L269.045 348.636H437.336L394.469 389.915ZM269.045 347.048L310.324 305.77H394.469L437.336 347.048H269.045ZM396.057 305.77H480.203L437.336 347.048L396.057 305.77ZM396.057 304.182L353.19 262.903H437.336L480.203 304.182H396.057ZM267.457 262.903L226.178 220.036H267.457H394.469L437.336 262.903H267.457ZM310.324 -119.721H140.445L183.312 -162.588H351.603L310.324 -119.721ZM181.724 -162.588L97.5786 -78.4421V-162.588H181.724ZM97.5786 -78.4421V-76.8545V-35.5755H13.4331L97.5786 -119.721V-78.4421ZM54.712 -162.588V-78.4421L13.4331 -35.5755V-119.721L54.712 -162.588ZM11.8454 -119.721V-35.5755L-29.4335 -76.8545L11.8454 -119.721ZM-31.0212 -162.588V-78.4421L-113.579 -162.588H-31.0212ZM-115.167 -162.588L-73.8878 -119.721H-242.179L-285.045 -162.588H-115.167ZM-243.766 -119.721H-285.045V-162.588L-243.766 -119.721ZM-285.045 -119.721H-242.179L-200.9 -76.8545L-242.179 -35.5755H-285.045V-119.721ZM-158.033 -33.9879V7.29106H-199.312L-158.033 -33.9879ZM-199.312 7.29106H-158.033V91.4366H-199.312L-242.179 50.1577L-199.312 7.29106ZM-158.033 93.0242V134.303L-199.312 93.0242H-158.033ZM-199.312 93.0242L-158.033 134.303H-242.179L-199.312 93.0242ZM-285.045 177.17L-242.179 135.891H-158.033L-200.9 177.17H-285.045ZM-158.033 135.891V220.036H-242.179L-158.033 135.891ZM-200.9 220.036V262.903L-242.179 304.182L-285.045 262.903V220.036H-200.9ZM-285.045 262.903L-242.179 305.77V389.915L-285.045 431.194V262.903ZM-243.766 474.061H-285.045V432.782L-243.766 474.061ZM-285.045 559.794H-243.766L-285.045 602.66V559.794ZM-242.179 559.794H-73.8878L-115.167 602.66H-285.045L-242.179 559.794ZM-113.579 602.66L-31.0212 518.515V602.66H-113.579ZM11.8454 559.794L-29.4335 516.927V475.648H11.8454H13.4331H54.712V516.927L11.8454 559.794ZM54.712 475.648H97.5786L54.712 516.927V475.648ZM97.5786 518.515H140.445L181.724 559.794L140.445 602.66H97.5786V518.515ZM140.445 602.66L183.312 559.794H267.457L308.736 602.66H140.445ZM310.324 602.66L351.603 561.381V602.66H310.324ZM353.19 475.648H394.469L353.19 516.927V475.648ZM353.19 516.927L394.469 475.648V559.794L353.19 516.927ZM437.336 602.66L396.057 559.794V475.648L437.336 518.515V602.66ZM480.203 559.794L396.057 475.648H480.203V559.794ZM480.203 474.061L438.924 432.782H480.203V474.061ZM437.336 432.782L396.057 389.915L437.336 348.636H480.203V432.782H437.336ZM480.203 347.048H438.924L480.203 305.77V347.048ZM396.057 220.036H480.203V304.182L396.057 220.036ZM353.19 220.036V177.17H394.469L353.19 220.036ZM394.469 177.17H353.19V93.0242H394.469L437.336 134.303L394.469 177.17ZM353.19 91.4366V50.1577L394.469 91.4366H353.19ZM394.469 91.4366L353.19 50.1577H437.336L394.469 91.4366ZM480.203 7.29106L437.336 50.1577H353.19L396.057 7.29106H480.203ZM353.19 48.57V-33.9879H437.336L353.19 48.57Z" fill="url(#paint0_radial_777_5908)" fill-opacity="0.1"/>
<defs>
<radialGradient id="paint0_radial_777_5908" cx="0" cy="0" r="1" gradientUnits="userSpaceOnUse" gradientTransform="translate(86.2497 220.036) scale(374.706 374.703)">
<stop stop-color="#5D16EC"/>
<stop offset="1" stop-color="#5D16EC" stop-opacity="0"/>
</radialGradient>
</defs>
</svg>
