<svg xmlns="http://www.w3.org/2000/svg"  viewBox="0 0 100 100" width="48px" height="48px"><path d="M23.5,93C16.607,93,11,87.393,11,80.5v-57C11,16.607,16.607,11,23.5,11h57C87.393,11,93,16.607,93,23.5v57 C93,87.393,87.393,93,80.5,93H23.5z" opacity=".35"/><path fill="#f2f2f2" d="M21.5,91C14.607,91,9,85.393,9,78.5v-57C9,14.607,14.607,9,21.5,9h57C85.393,9,91,14.607,91,21.5v57 C91,85.393,85.393,91,78.5,91H21.5z"/><path fill="#70bfff" d="M15.5,78.5v-57c0-3.314,2.686-6,6-6h57c3.314,0,6,2.686,6,6v57c0,3.314-2.686,6-6,6h-57 C18.186,84.5,15.5,81.814,15.5,78.5z"/><path fill="#40396e" d="M78.5,86h-57c-4.136,0-7.5-3.364-7.5-7.5v-57c0-4.136,3.364-7.5,7.5-7.5h57 c4.136,0,7.5,3.364,7.5,7.5v57C86,82.636,82.636,86,78.5,86z M21.5,17c-2.481,0-4.5,2.019-4.5,4.5v57c0,2.481,2.019,4.5,4.5,4.5h57 c2.481,0,4.5-2.019,4.5-4.5v-57c0-2.481-2.019-4.5-4.5-4.5H21.5z"/><g><path fill="#f2f2f2" d="M73.501,37.777c-1.58,0.7-3.28,1.167-5.073,1.388c1.823-1.082,3.225-2.808,3.883-4.847 c-1.706,1-3.595,1.734-5.605,2.121c-1.605-1.702-3.895-2.758-6.432-2.758c-4.873,0-8.823,3.915-8.823,8.743 c0,0.683,0.08,1.348,0.231,1.995c-7.331-0.368-13.833-3.853-18.183-9.142c-0.764,1.292-1.194,2.806-1.194,4.403 c0,3.035,1.554,5.707,3.924,7.281c-1.446-0.044-2.808-0.447-4-1.092c0,0.026,0,0.066,0,0.103c0,4.241,3.042,7.773,7.074,8.577 c-0.737,0.202-1.516,0.314-2.318,0.314c-0.57,0-1.125-0.064-1.663-0.161c1.123,3.466,4.38,5.999,8.239,6.075 c-3.019,2.341-6.822,3.743-10.957,3.743c-0.714,0-1.413-0.041-2.103-0.124c3.907,2.474,8.546,3.924,13.525,3.924 c16.226,0,25.102-13.325,25.102-24.884c0-0.379-0.012-0.756-0.03-1.129C70.829,41.083,72.322,39.54,73.501,37.777"/></g></svg>