<svg width="33" height="33" viewBox="0 0 33 33" fill="none" xmlns="http://www.w3.org/2000/svg">
<path opacity="0.2" d="M26.7997 9.39756V23.7976C26.7997 24.0363 26.7049 24.2652 26.5361 24.434C26.3673 24.6027 26.1384 24.6976 25.8997 24.6976H10.5997L6.67908 28.0849C6.548 28.1952 6.38816 28.2658 6.21835 28.2884C6.04855 28.311 5.87582 28.2846 5.72047 28.2124C5.56512 28.1402 5.43359 28.0252 5.34135 27.8809C5.2491 27.7365 5.19996 27.5689 5.19971 27.3976V9.39756C5.19971 9.15886 5.29453 8.92995 5.46331 8.76116C5.63209 8.59238 5.86101 8.49756 6.09971 8.49756H25.8997C26.1384 8.49756 26.3673 8.59238 26.5361 8.76116C26.7049 8.92995 26.7997 9.15886 26.7997 9.39756Z" fill="#9747FF"/>
<path d="M14.6498 16.5977C14.6498 16.3307 14.729 16.0696 14.8773 15.8476C15.0257 15.6256 15.2365 15.4526 15.4832 15.3504C15.7299 15.2482 16.0013 15.2215 16.2632 15.2736C16.5251 15.3257 16.7656 15.4543 16.9544 15.6431C17.1432 15.8319 17.2718 16.0724 17.3239 16.3343C17.376 16.5962 17.3492 16.8676 17.2471 17.1143C17.1449 17.361 16.9719 17.5718 16.7499 17.7201C16.5278 17.8685 16.2668 17.9477 15.9998 17.9477C15.6418 17.9477 15.2984 17.8054 15.0452 17.5522C14.7921 17.2991 14.6498 16.9557 14.6498 16.5977ZM11.0498 17.9477C11.3168 17.9477 11.5778 17.8685 11.7999 17.7201C12.0219 17.5718 12.1949 17.361 12.2971 17.1143C12.3993 16.8676 12.426 16.5962 12.3739 16.3343C12.3218 16.0724 12.1932 15.8319 12.0044 15.6431C11.8156 15.4543 11.5751 15.3257 11.3132 15.2736C11.0513 15.2215 10.7799 15.2482 10.5332 15.3504C10.2865 15.4526 10.0757 15.6256 9.92735 15.8476C9.77901 16.0696 9.69983 16.3307 9.69983 16.5977C9.69983 16.9557 9.84207 17.2991 10.0952 17.5522C10.3484 17.8054 10.6918 17.9477 11.0498 17.9477ZM20.9498 17.9477C21.2168 17.9477 21.4778 17.8685 21.6999 17.7201C21.9219 17.5718 22.0949 17.361 22.1971 17.1143C22.2992 16.8676 22.326 16.5962 22.2739 16.3343C22.2218 16.0724 22.0932 15.8319 21.9044 15.6431C21.7156 15.4543 21.4751 15.3257 21.2132 15.2736C20.9513 15.2215 20.6799 15.2482 20.4332 15.3504C20.1865 15.4526 19.9757 15.6256 19.8274 15.8476C19.679 16.0696 19.5998 16.3307 19.5998 16.5977C19.5998 16.9557 19.7421 17.2991 19.9952 17.5522C20.2484 17.8054 20.5918 17.9477 20.9498 17.9477ZM27.6998 9.39766V23.7977C27.6998 24.275 27.5102 24.7329 27.1726 25.0704C26.8351 25.408 26.3772 25.5977 25.8998 25.5977H10.9373L7.26983 28.7657L7.25971 28.7735C6.9357 29.0481 6.52455 29.1985 6.09983 29.1977C5.83541 29.1972 5.5743 29.1388 5.33484 29.0267C5.02419 28.8831 4.76142 28.6531 4.57789 28.3643C4.39437 28.0754 4.29784 27.7399 4.29983 27.3977V9.39766C4.29983 8.92027 4.48948 8.46243 4.82704 8.12486C5.16461 7.7873 5.62245 7.59766 6.09983 7.59766H25.8998C26.3772 7.59766 26.8351 7.7873 27.1726 8.12486C27.5102 8.46243 27.6998 8.92027 27.6998 9.39766ZM25.8998 9.39766H6.09983V27.3977L10.0115 24.0227C10.1741 23.8792 10.383 23.7993 10.5998 23.7977H25.8998V9.39766Z" fill="#9747FF"/>
</svg>
