<svg width="23" height="23" viewBox="0 0 23 23" fill="none" xmlns="http://www.w3.org/2000/svg">
<path d="M11.6208 15.7544V10.194" stroke="#5E16EC" stroke-width="1.39009" stroke-linecap="round"/>
<path d="M11.6206 6.48707C12.1324 6.48707 12.5473 6.90198 12.5473 7.41379C12.5473 7.92561 12.1324 8.34052 11.6206 8.34052C11.1088 8.34052 10.6938 7.92561 10.6938 7.41379C10.6938 6.90198 11.1088 6.48707 11.6206 6.48707Z" fill="#5E16EC"/>
<path d="M20.8878 11.1208C20.8878 15.4893 20.8878 17.6736 19.5301 19.0303C18.1743 20.388 15.9891 20.388 11.6205 20.388C7.25193 20.388 5.06765 20.388 3.71 19.0303C2.35327 17.6745 2.35327 15.4893 2.35327 11.1208C2.35327 6.75218 2.35327 4.56789 3.71 3.21024C5.06857 1.85352 7.25193 1.85352 11.6205 1.85352C15.9891 1.85352 18.1734 1.85352 19.5301 3.21024C20.4327 4.11287 20.7348 5.38155 20.8368 7.41386" stroke="#AB87F2" stroke-width="1.39009" stroke-linecap="round"/>
</svg>
