<svg width="90" height="90" viewBox="0 0 90 90" fill="none" xmlns="http://www.w3.org/2000/svg">
<path d="M78.75 28.1251V66.5626C78.75 69.7949 77.466 72.8949 75.1804 75.1805C72.8948 77.4661 69.7948 78.7501 66.5625 78.7501H23.4375C20.2052 78.7501 17.1052 77.4661 14.8196 75.1805C12.534 72.8949 11.25 69.7949 11.25 66.5626V28.1251L45 24.3751L78.75 28.1251Z" fill="url(#paint0_linear_789_14959)"/>
<path d="M78.75 28.1251V66.5626C78.75 69.7949 77.466 72.8949 75.1804 75.1805C72.8948 77.4661 69.7948 78.7501 66.5625 78.7501H23.4375C20.2052 78.7501 17.1052 77.4661 14.8196 75.1805C12.534 72.8949 11.25 69.7949 11.25 66.5626V28.1251L45 24.3751L78.75 28.1251Z" fill="url(#paint1_linear_789_14959)"/>
<g filter="url(#filter0_d_789_14959)">
<path d="M27.1875 56.25C28.4307 56.25 29.623 56.7439 30.5021 57.6229C31.3811 58.502 31.875 59.6943 31.875 60.9375C31.875 62.1807 31.3811 63.373 30.5021 64.2521C29.623 65.1311 28.4307 65.625 27.1875 65.625C25.9443 65.625 24.752 65.1311 23.8729 64.2521C22.9939 63.373 22.5 62.1807 22.5 60.9375C22.5 59.6943 22.9939 58.502 23.8729 57.6229C24.752 56.7439 25.9443 56.25 27.1875 56.25ZM45 56.25C46.2432 56.25 47.4355 56.7439 48.3146 57.6229C49.1936 58.502 49.6875 59.6943 49.6875 60.9375C49.6875 62.1807 49.1936 63.373 48.3146 64.2521C47.4355 65.1311 46.2432 65.625 45 65.625C43.7568 65.625 42.5645 65.1311 41.6854 64.2521C40.8064 63.373 40.3125 62.1807 40.3125 60.9375C40.3125 59.6943 40.8064 58.502 41.6854 57.6229C42.5645 56.7439 43.7568 56.25 45 56.25ZM27.1875 39.375C28.4307 39.375 29.623 39.8689 30.5021 40.7479C31.3811 41.627 31.875 42.8193 31.875 44.0625C31.875 45.3057 31.3811 46.498 30.5021 47.3771C29.623 48.2561 28.4307 48.75 27.1875 48.75C25.9443 48.75 24.752 48.2561 23.8729 47.3771C22.9939 46.498 22.5 45.3057 22.5 44.0625C22.5 42.8193 22.9939 41.627 23.8729 40.7479C24.752 39.8689 25.9443 39.375 27.1875 39.375ZM45 39.375C46.2432 39.375 47.4355 39.8689 48.3146 40.7479C49.1936 41.627 49.6875 42.8193 49.6875 44.0625C49.6875 45.3057 49.1936 46.498 48.3146 47.3771C47.4355 48.2561 46.2432 48.75 45 48.75C43.7568 48.75 42.5645 48.2561 41.6854 47.3771C40.8064 46.498 40.3125 45.3057 40.3125 44.0625C40.3125 42.8193 40.8064 41.627 41.6854 40.7479C42.5645 39.8689 43.7568 39.375 45 39.375ZM62.8125 39.375C64.0557 39.375 65.248 39.8689 66.1271 40.7479C67.0061 41.627 67.5 42.8193 67.5 44.0625C67.5 45.3057 67.0061 46.498 66.1271 47.3771C65.248 48.2561 64.0557 48.75 62.8125 48.75C61.5693 48.75 60.377 48.2561 59.4979 47.3771C58.6189 46.498 58.125 45.3057 58.125 44.0625C58.125 42.8193 58.6189 41.627 59.4979 40.7479C60.377 39.8689 61.5693 39.375 62.8125 39.375Z" fill="url(#paint2_linear_789_14959)"/>
</g>
<path d="M66.5625 11.25C69.7948 11.25 72.8948 12.534 75.1804 14.8196C77.466 17.1052 78.75 20.2052 78.75 23.4375V30H11.25V23.4375C11.25 20.2052 12.534 17.1052 14.8196 14.8196C17.1052 12.534 20.2052 11.25 23.4375 11.25H66.5625Z" fill="url(#paint3_linear_789_14959)"/>
<defs>
<filter id="filter0_d_789_14959" x="17.4975" y="36.8738" width="55.005" height="36.255" filterUnits="userSpaceOnUse" color-interpolation-filters="sRGB">
<feFlood flood-opacity="0" result="BackgroundImageFix"/>
<feColorMatrix in="SourceAlpha" type="matrix" values="0 0 0 0 0 0 0 0 0 0 0 0 0 0 0 0 0 0 127 0" result="hardAlpha"/>
<feOffset dy="2.50125"/>
<feGaussianBlur stdDeviation="2.50125"/>
<feColorMatrix type="matrix" values="0 0 0 0 0.1242 0 0 0 0 0.323337 0 0 0 0 0.7958 0 0 0 0.32 0"/>
<feBlend mode="normal" in2="BackgroundImageFix" result="effect1_dropShadow_789_14959"/>
<feBlend mode="normal" in="SourceGraphic" in2="effect1_dropShadow_789_14959" result="shape"/>
</filter>
<linearGradient id="paint0_linear_789_14959" x1="57.1875" y1="85.4289" x2="36.8775" y2="27.4539" gradientUnits="userSpaceOnUse">
<stop stop-color="#B3E0FF"/>
<stop offset="1" stop-color="#B3E0FF"/>
</linearGradient>
<linearGradient id="paint1_linear_789_14959" x1="52.2338" y1="46.6201" x2="62.3438" y2="91.0014" gradientUnits="userSpaceOnUse">
<stop stop-color="#DCF8FF" stop-opacity="0"/>
<stop offset="1" stop-color="#FF6CE8" stop-opacity="0.7"/>
</linearGradient>
<linearGradient id="paint2_linear_789_14959" x1="40.9087" y1="36.345" x2="48.9712" y2="88.8637" gradientUnits="userSpaceOnUse">
<stop stop-color="#0078D4"/>
<stop offset="1" stop-color="#0067BF"/>
</linearGradient>
<linearGradient id="paint3_linear_789_14959" x1="11.25" y1="11.25" x2="68.895" y2="-7.36125" gradientUnits="userSpaceOnUse">
<stop stop-color="#0094F0"/>
<stop offset="1" stop-color="#2764E7"/>
</linearGradient>
</defs>
</svg>
