<svg width="90" height="91" viewBox="0 0 90 91" fill="none" xmlns="http://www.w3.org/2000/svg">
<path d="M44.9998 9.01721C41.4194 9.01721 37.9856 10.4395 35.4538 12.9713C32.9221 15.503 31.4998 18.9368 31.4998 22.5172C31.4998 26.0976 32.9221 29.5314 35.4538 32.0632C37.9856 34.5949 41.4194 36.0172 44.9998 36.0172C48.5802 36.0172 52.014 34.5949 54.5457 32.0632C57.0775 29.5314 58.4998 26.0976 58.4998 22.5172C58.4998 18.9368 57.0775 15.503 54.5457 12.9713C52.014 10.4395 48.5802 9.01721 44.9998 9.01721ZM22.7383 44.9992C22.5853 45.7312 22.5088 46.4872 22.5088 47.2672V63.0172C22.5058 66.2842 23.2158 69.5125 24.5892 72.4768C25.9625 75.4411 27.9662 78.0701 30.4603 80.1802L29.6908 80.4052C27.4074 81.0177 25.0256 81.1744 22.6816 80.8663C20.3376 80.5583 18.0773 79.7914 16.0297 78.6097C13.9821 77.4279 12.1874 75.8544 10.748 73.9789C9.30858 72.1034 8.25275 69.9628 7.64078 67.6792L4.72928 56.8117C4.49996 55.9554 4.44155 55.0624 4.55739 54.1835C4.67323 53.3046 4.96104 52.4572 5.4044 51.6896C5.84776 50.922 6.43798 50.2492 7.14135 49.7097C7.84472 49.1702 8.64748 48.7745 9.50378 48.5452L22.7383 44.9992ZM59.5573 80.1802C62.0514 78.0701 64.055 75.4411 65.4284 72.4768C66.8017 69.5125 67.5117 66.2842 67.5088 63.0172V47.2672C67.5058 46.4872 67.4308 45.7312 67.2838 44.9992L80.5138 48.5452C82.2423 49.0092 83.7158 50.1407 84.6103 51.6908C85.5048 53.241 85.7471 55.083 85.2838 56.8117L82.3723 67.6792C81.7428 70.0274 80.6441 72.2238 79.1425 74.1358C77.641 76.0478 75.7677 77.6359 73.6356 78.8041C71.5035 79.9723 69.1569 80.6965 66.7373 80.933C64.3177 81.1695 61.8752 80.9135 59.5573 80.1802ZM74.2498 18.0172C71.2661 18.0172 68.4046 19.2025 66.2948 21.3123C64.185 23.422 62.9998 26.2835 62.9998 29.2672C62.9998 32.2509 64.185 35.1124 66.2948 37.2222C68.4046 39.3319 71.2661 40.5172 74.2498 40.5172C77.2335 40.5172 80.0949 39.3319 82.2047 37.2222C84.3145 35.1124 85.4998 32.2509 85.4998 29.2672C85.4998 26.2835 84.3145 23.422 82.2047 21.3123C80.0949 19.2025 77.2335 18.0172 74.2498 18.0172ZM15.7498 18.0172C12.7661 18.0172 9.90461 19.2025 7.79483 21.3123C5.68504 23.422 4.49978 26.2835 4.49978 29.2672C4.49978 32.2509 5.68504 35.1124 7.79483 37.2222C9.90461 39.3319 12.7661 40.5172 15.7498 40.5172C18.7335 40.5172 21.5949 39.3319 23.7047 37.2222C25.8145 35.1124 26.9998 32.2509 26.9998 29.2672C26.9998 26.2835 25.8145 23.422 23.7047 21.3123C21.5949 19.2025 18.7335 18.0172 15.7498 18.0172ZM33.7498 40.5172C31.9596 40.5172 30.2427 41.2284 28.9768 42.4942C27.7109 43.7601 26.9998 45.477 26.9998 47.2672V63.0172C26.9998 67.7911 28.8962 72.3695 32.2719 75.7451C35.6475 79.1208 40.2259 81.0172 44.9998 81.0172C49.7737 81.0172 54.352 79.1208 57.7277 75.7451C61.1034 72.3695 62.9998 67.7911 62.9998 63.0172V47.2672C62.9998 45.477 62.2886 43.7601 61.0228 42.4942C59.7569 41.2284 58.04 40.5172 56.2498 40.5172H33.7498Z" fill="#9363F2"/>
</svg>
