<svg width="21" height="16" viewBox="0 0 21 16" fill="none" xmlns="http://www.w3.org/2000/svg">
<path d="M17.343 1.92439C16.0777 1.33454 14.7077 0.906416 13.2806 0.659058C13.2555 0.659415 13.2316 0.669674 13.214 0.687599C13.0428 1.00155 12.843 1.41065 12.7098 1.7246C11.1961 1.49642 9.65681 1.49642 8.14316 1.7246C8.00996 1.40113 7.81017 1.00155 7.62941 0.687599C7.6199 0.668572 7.59135 0.659058 7.56281 0.659058C6.13574 0.906416 4.77527 1.33454 3.50042 1.92439C3.4909 1.92439 3.48139 1.93391 3.47188 1.94342C0.884123 5.81554 0.170588 9.583 0.522598 13.3124C0.522598 13.3314 0.532112 13.3505 0.55114 13.36C2.26362 14.6158 3.90951 15.3769 5.53637 15.8811C5.56491 15.8907 5.59346 15.8811 5.60297 15.8621C5.98352 15.3389 6.32602 14.7871 6.62095 14.2067C6.63997 14.1687 6.62095 14.1306 6.58289 14.1211C6.0406 13.9118 5.52686 13.6644 5.02263 13.379C4.98457 13.36 4.98457 13.3029 5.01311 13.2744C5.11777 13.1983 5.22242 13.1126 5.32707 13.0365C5.3461 13.0175 5.37464 13.0175 5.39367 13.027C8.66641 14.5207 12.196 14.5207 15.4307 13.027C15.4498 13.0175 15.4783 13.0175 15.4973 13.0365C15.602 13.1221 15.7066 13.1983 15.8113 13.2839C15.8493 13.3124 15.8493 13.3695 15.8018 13.3885C15.307 13.6835 14.7838 13.9213 14.2415 14.1306C14.2034 14.1401 14.1939 14.1877 14.2034 14.2162C14.5079 14.7966 14.8504 15.3484 15.2214 15.8716C15.25 15.8811 15.2785 15.8907 15.307 15.8811C16.9434 15.3769 18.5893 14.6158 20.3018 13.36C20.3208 13.3505 20.3303 13.3314 20.3303 13.3124C20.7489 9.00266 19.6358 5.26374 17.3811 1.94342C17.3715 1.93391 17.362 1.92439 17.343 1.92439ZM7.11566 11.0386C6.13574 11.0386 5.31756 10.1348 5.31756 9.02169C5.31756 7.90858 6.11672 7.00476 7.11566 7.00476C8.12413 7.00476 8.92329 7.91809 8.91377 9.02169C8.91377 10.1348 8.11461 11.0386 7.11566 11.0386ZM13.7468 11.0386C12.7669 11.0386 11.9487 10.1348 11.9487 9.02169C11.9487 7.90858 12.7478 7.00476 13.7468 7.00476C14.7552 7.00476 15.5544 7.91809 15.5449 9.02169C15.5449 10.1348 14.7552 11.0386 13.7468 11.0386Z" fill="#7E45F0"/>
</svg>
