<svg width="299" height="95" viewBox="0 0 299 95" fill="none" xmlns="http://www.w3.org/2000/svg">
<g opacity="0.6">
<g filter="url(#filter0_f_789_14756)">
<path d="M-95.1958 58.0935C-95.1602 58.0953 -95.1246 58.0899 -95.0911 58.0779C-95.0576 58.0658 -95.0269 58.0472 -95.0005 58.0232C-94.9742 57.9993 -94.9529 57.9703 -94.9378 57.9381C-94.9227 57.9058 -94.9142 57.8709 -94.9126 57.8353C-94.911 57.7998 -94.9165 57.7642 -94.9287 57.7308C-94.9409 57.6973 -94.9596 57.6666 -94.9837 57.6404C-95.0078 57.6142 -95.0368 57.593 -95.0691 57.578C-95.1014 57.5631 -95.1363 57.5546 -95.1719 57.5532C-95.2434 57.5503 -95.3131 57.5759 -95.3658 57.6243C-95.4185 57.6727 -95.4498 57.74 -95.453 57.8115C-95.4561 57.883 -95.4308 57.9528 -95.3826 58.0056C-95.3344 58.0585 -95.2672 58.0901 -95.1958 58.0935ZM-65.7405 72.6396C-65.5911 72.6476 -65.4647 72.531 -65.4584 72.3827C-65.4548 72.346 -65.4587 72.309 -65.4698 72.2739C-65.481 72.2389 -65.4992 72.2064 -65.5233 72.1786C-65.5474 72.1507 -65.577 72.1281 -65.6101 72.1121C-65.6432 72.0961 -65.6793 72.087 -65.7161 72.0853C-65.7529 72.0837 -65.7896 72.0896 -65.8241 72.1027C-65.8585 72.1157 -65.8899 72.1356 -65.9164 72.1612C-65.9429 72.1868 -65.9638 72.2176 -65.9781 72.2515C-65.9923 72.2855 -65.9994 72.322 -65.999 72.3588C-66.0056 72.5072 -65.8896 72.6343 -65.7405 72.6396ZM-6.76558 75.1771C-6.69388 75.1797 -6.62405 75.1538 -6.57126 75.1053C-6.51845 75.0567 -6.48692 74.9892 -6.48349 74.9176C-6.48074 74.8458 -6.50633 74.7758 -6.55476 74.7228C-6.6032 74.6698 -6.67055 74.6379 -6.74226 74.6342C-6.81381 74.6318 -6.88339 74.6578 -6.93588 74.7065C-6.98837 74.7552 -7.01953 74.8226 -7.0226 74.8941C-7.02567 74.9656 -7.0004 75.0355 -6.95227 75.0885C-6.90414 75.1415 -6.83707 75.1733 -6.76558 75.1771ZM23.3487 61.8352C23.4203 61.8375 23.4898 61.8115 23.5423 61.7629C23.5948 61.7142 23.626 61.6468 23.629 61.5752C23.6321 61.5037 23.6068 61.4339 23.5587 61.3809C23.5106 61.3279 23.4435 61.296 23.372 61.2922C23.3003 61.2897 23.2305 61.3155 23.1777 61.3641C23.1249 61.4127 23.0934 61.4801 23.0899 61.5518C23.0836 61.7001 23.1996 61.8273 23.3487 61.8352ZM33.0509 82.0375C33.2003 82.0428 33.3267 81.9289 33.333 81.7779C33.3346 81.7425 33.3291 81.7071 33.3169 81.6737C33.3047 81.6404 33.286 81.6098 33.262 81.5838C33.2379 81.5577 33.209 81.5366 33.1768 81.5217C33.1445 81.5069 33.1097 81.4985 33.0742 81.4971C32.9249 81.4892 32.7988 81.6058 32.7922 81.7541C32.7858 81.9051 32.9016 82.0295 33.0509 82.0375ZM-155.533 62.0047C-155.384 62.01 -155.257 61.8961 -155.251 61.7452C-155.25 61.7097 -155.255 61.6743 -155.267 61.641C-155.279 61.6077 -155.298 61.5771 -155.322 61.551C-155.346 61.5249 -155.375 61.5038 -155.407 61.489C-155.44 61.4741 -155.474 61.4658 -155.51 61.4644C-155.659 61.4564 -155.785 61.573 -155.792 61.724C-155.798 61.8723 -155.682 61.9994 -155.533 62.0047Z" fill="#F0F3FF"/>
</g>
<g opacity="0.3" filter="url(#filter1_f_789_14756)">
<path d="M-75.3559 50.5457C-75.3201 50.5476 -75.2844 50.5424 -75.2507 50.5304C-75.217 50.5184 -75.186 50.4998 -75.1595 50.4757C-75.133 50.4517 -75.1115 50.4226 -75.0963 50.3902C-75.0812 50.3578 -75.0725 50.3227 -75.071 50.287C-75.0695 50.2512 -75.075 50.2155 -75.0874 50.182C-75.0997 50.1484 -75.1186 50.1176 -75.1429 50.0913C-75.1672 50.0651 -75.1965 50.0439 -75.2291 50.0291C-75.2616 50.0142 -75.2968 50.006 -75.3325 50.0048C-75.4038 50.0024 -75.4732 50.0283 -75.5255 50.0768C-75.5778 50.1253 -75.6088 50.1924 -75.6119 50.2637C-75.615 50.3349 -75.5898 50.4045 -75.5419 50.4573C-75.4939 50.5101 -75.4271 50.5419 -75.3559 50.5457ZM-95.0355 73.2781C-94.8861 73.286 -94.7601 73.1694 -94.7534 73.0211C-94.7503 72.9492 -94.7757 72.879 -94.8242 72.8259C-94.8728 72.7728 -94.9403 72.7411 -95.0122 72.7377C-95.0478 72.7362 -95.0833 72.7418 -95.1167 72.754C-95.1502 72.7662 -95.1809 72.7849 -95.2071 72.809C-95.2332 72.8331 -95.2544 72.8622 -95.2694 72.8945C-95.2844 72.9268 -95.2928 72.9617 -95.2943 72.9973C-95.3007 73.1456 -95.1849 73.2728 -95.0355 73.2781ZM-127.886 74.5759C-127.736 74.5839 -127.61 74.4673 -127.604 74.3164C-127.601 74.2629 -127.615 74.21 -127.643 74.1643C-127.671 74.1187 -127.712 74.0823 -127.76 74.0598C-127.809 74.0373 -127.863 74.0298 -127.916 74.038C-127.969 74.0463 -128.018 74.0701 -128.057 74.1063C-128.097 74.1425 -128.125 74.1896 -128.137 74.2416C-128.15 74.2936 -128.147 74.3482 -128.128 74.3985C-128.11 74.4487 -128.077 74.4924 -128.034 74.524C-127.991 74.5556 -127.939 74.5736 -127.886 74.5759ZM-134.95 56.1155C-134.914 56.1183 -134.878 56.1137 -134.843 56.1021C-134.809 56.0905 -134.777 56.0721 -134.75 56.048C-134.723 56.0239 -134.701 55.9946 -134.685 55.9618C-134.67 55.929 -134.661 55.8934 -134.659 55.8571C-134.658 55.8209 -134.663 55.7846 -134.676 55.7506C-134.689 55.7166 -134.708 55.6855 -134.733 55.6592C-134.758 55.6329 -134.788 55.6118 -134.822 55.5974C-134.855 55.5829 -134.891 55.5752 -134.927 55.5749C-134.997 55.5743 -135.065 55.6009 -135.116 55.6493C-135.167 55.6977 -135.197 55.7639 -135.2 55.8341C-135.203 55.9042 -135.179 55.9728 -135.132 56.0253C-135.086 56.0778 -135.02 56.1102 -134.95 56.1155ZM33.3468 62.5346C33.4959 62.5425 33.6223 62.426 33.6286 62.2777C33.6318 62.2058 33.6063 62.1356 33.5578 62.0825C33.5093 62.0293 33.4417 61.9976 33.3698 61.9942C33.2982 61.9918 33.2284 62.0176 33.1757 62.0662C33.1229 62.1148 33.0914 62.1822 33.088 62.2538C33.0814 62.4021 33.1974 62.5293 33.3468 62.5346Z" fill="#F0F3FF"/>
</g>
<g opacity="0.11" filter="url(#filter2_f_789_14756)">
<path d="M-9.72934 49.5713C-9.65758 49.5743 -9.58756 49.5487 -9.53468 49.5001C-9.4818 49.4515 -9.4504 49.3839 -9.44738 49.3121C-9.44436 49.2404 -9.46997 49.1703 -9.51857 49.1175C-9.56718 49.0646 -9.6348 49.0332 -9.70656 49.0301C-9.7421 49.0287 -9.77757 49.0342 -9.81097 49.0464C-9.84437 49.0586 -9.87505 49.0773 -9.90123 49.1013C-9.92741 49.1254 -9.94859 49.1544 -9.96357 49.1867C-9.97855 49.2189 -9.98703 49.2538 -9.98853 49.2893C-9.99003 49.3249 -9.9845 49.3604 -9.97228 49.3938C-9.96007 49.4272 -9.9414 49.4578 -9.91733 49.484C-9.89326 49.5102 -9.86427 49.5314 -9.83202 49.5463C-9.79976 49.5613 -9.76487 49.5698 -9.72934 49.5713ZM25.5429 73.853C25.6921 73.8583 25.8184 73.7444 25.8247 73.5934C25.8263 73.5579 25.8208 73.5226 25.8086 73.4892C25.7964 73.4559 25.7777 73.4253 25.7537 73.3992C25.7296 73.3731 25.7007 73.3521 25.6685 73.3372C25.6363 73.3223 25.6014 73.314 25.566 73.3126C25.4168 73.3047 25.2905 73.4212 25.2841 73.5722C25.2775 73.7205 25.3935 73.8477 25.5429 73.853Z" fill="#F0F3FF"/>
</g>
<g filter="url(#filter3_f_789_14756)">
<path d="M-26.4218 56.4439C-26.3682 56.4467 -26.3147 56.4388 -26.2641 56.4208C-26.2137 56.4028 -26.1672 56.3749 -26.1275 56.3389C-26.0879 56.3028 -26.0557 56.2592 -26.033 56.2107C-26.0102 56.1621 -25.9973 56.1096 -25.995 56.056C-25.9926 56.0024 -26.001 55.9489 -26.0194 55.8986C-26.0379 55.8483 -26.0661 55.8021 -26.1025 55.7627C-26.1389 55.7233 -26.1828 55.6916 -26.2315 55.6692C-26.2803 55.6469 -26.3329 55.6344 -26.3865 55.6326C-26.4936 55.6288 -26.5977 55.6676 -26.6763 55.7403C-26.755 55.813 -26.8017 55.9138 -26.8063 56.0208C-26.811 56.1278 -26.7732 56.2323 -26.7011 56.3115C-26.6291 56.3907 -26.5287 56.4383 -26.4218 56.4439ZM-46.3094 84.0479C-46.2015 84.0526 -46.0963 84.0142 -46.0167 83.9412C-45.9372 83.8683 -45.8899 83.7667 -45.8853 83.6588C-45.8807 83.551 -45.9191 83.4457 -45.992 83.3662C-46.065 83.2867 -46.1666 83.2394 -46.2744 83.2348C-46.3821 83.2305 -46.4871 83.2691 -46.5664 83.3421C-46.6457 83.415 -46.6929 83.5165 -46.6977 83.6241C-46.7072 83.8466 -46.5334 84.0373 -46.3094 84.0479ZM43.2704 93.3187C43.3782 93.3233 43.4835 93.2849 43.563 93.212C43.6425 93.139 43.6898 93.0374 43.6945 92.9296C43.6991 92.8217 43.6607 92.7165 43.5877 92.6369C43.5148 92.5574 43.4132 92.5101 43.3054 92.5055C43.1976 92.5012 43.0926 92.5398 43.0133 92.6128C42.9339 92.6857 42.8867 92.7872 42.8821 92.8949C42.8778 93.0025 42.9162 93.1074 42.9889 93.1868C43.0616 93.2662 43.1628 93.3136 43.2704 93.3187ZM-132.101 81.1713C-132.047 81.1752 -131.992 81.1681 -131.941 81.1506C-131.89 81.1331 -131.843 81.1054 -131.802 81.0693C-131.762 81.0332 -131.729 80.9894 -131.706 80.9404C-131.682 80.8914 -131.669 80.8382 -131.667 80.7841C-131.664 80.7299 -131.673 80.6758 -131.692 80.625C-131.711 80.5742 -131.74 80.5277 -131.777 80.4882C-131.814 80.4487 -131.859 80.4171 -131.909 80.3953C-131.958 80.3734 -132.012 80.3617 -132.066 80.3608C-132.119 80.3584 -132.172 80.3665 -132.222 80.3846C-132.272 80.4028 -132.318 80.4306 -132.358 80.4665C-132.397 80.5024 -132.429 80.5457 -132.451 80.5939C-132.474 80.6422 -132.487 80.6944 -132.489 80.7475C-132.499 80.9727 -132.325 81.1608 -132.101 81.1713ZM-167.81 73.4025C-167.757 73.4049 -167.704 73.3968 -167.653 73.3787C-167.603 73.3606 -167.557 73.3327 -167.518 73.2968C-167.479 73.2609 -167.447 73.2176 -167.424 73.1694C-167.402 73.1212 -167.389 73.069 -167.387 73.0158C-167.386 72.9109 -167.426 72.81 -167.499 72.7341C-167.571 72.6582 -167.67 72.6132 -167.775 72.6084C-167.879 72.6036 -167.982 72.6395 -168.061 72.7085C-168.14 72.7775 -168.189 72.8743 -168.198 72.9787C-168.201 73.032 -168.193 73.0854 -168.174 73.1356C-168.156 73.1858 -168.128 73.2319 -168.092 73.2713C-168.056 73.3107 -168.013 73.3426 -167.964 73.3651C-167.916 73.3876 -167.863 73.4003 -167.81 73.4025ZM-171.944 62.3862C-171.837 62.3908 -171.731 62.3524 -171.652 62.2795C-171.572 62.2065 -171.525 62.1049 -171.52 61.9971C-171.516 61.8892 -171.554 61.784 -171.627 61.7045C-171.7 61.6249 -171.802 61.5776 -171.909 61.573C-171.963 61.5707 -172.016 61.5789 -172.066 61.5972C-172.117 61.6155 -172.163 61.6436 -172.202 61.6798C-172.241 61.7159 -172.273 61.7595 -172.295 61.808C-172.318 61.8565 -172.331 61.909 -172.333 61.9624C-172.337 62.07 -172.299 62.1749 -172.226 62.2543C-172.153 62.3337 -172.052 62.3811 -171.944 62.3862ZM-39.6387 61.2975C-39.5308 61.3022 -39.4256 61.2638 -39.3461 61.1908C-39.2665 61.1178 -39.2192 61.0163 -39.2146 60.9084C-39.21 60.8006 -39.2484 60.6953 -39.3213 60.6158C-39.3943 60.5363 -39.4959 60.489 -39.6037 60.4844C-39.7114 60.48 -39.8165 60.5186 -39.8958 60.5916C-39.9751 60.6646 -40.0223 60.766 -40.027 60.8737C-40.0313 60.9813 -39.9929 61.0862 -39.9202 61.1656C-39.8474 61.245 -39.7462 61.2924 -39.6387 61.2975ZM-87.5713 79.2907C-87.5181 79.2931 -87.465 79.285 -87.4149 79.2669C-87.3649 79.2488 -87.3189 79.221 -87.2796 79.1851C-87.2402 79.1492 -87.2084 79.1059 -87.1858 79.0576C-87.1633 79.0094 -87.1504 78.9572 -87.148 78.904C-87.1383 78.6789 -87.3123 78.4908 -87.5364 78.4802C-87.5898 78.4779 -87.6431 78.4861 -87.6933 78.5044C-87.7435 78.5227 -87.7896 78.5508 -87.8289 78.5869C-87.8682 78.6231 -87.9 78.6667 -87.9225 78.7152C-87.9449 78.7637 -87.9575 78.8162 -87.9596 78.8696C-87.9694 79.0921 -87.7954 79.2828 -87.5713 79.2907ZM-19.8999 93.8564C-19.6758 93.8643 -19.4865 93.6922 -19.4767 93.467C-19.4671 93.2445 -19.6409 93.0538 -19.8652 93.0432C-19.9731 93.0386 -20.0783 93.077 -20.1578 93.15C-20.2373 93.223 -20.2846 93.3246 -20.2892 93.4324C-20.2938 93.5403 -20.2553 93.6455 -20.1823 93.725C-20.1093 93.8045 -20.0078 93.8518 -19.8999 93.8564ZM52.5782 78.5385C52.6314 78.5409 52.6846 78.5328 52.7346 78.5147C52.7847 78.4965 52.8307 78.4687 52.87 78.4328C52.9093 78.3969 52.9411 78.3536 52.9637 78.3054C52.9863 78.2572 52.9991 78.2049 53.0015 78.1517C53.0054 78.0975 52.9983 78.0431 52.9807 77.9917C52.9632 77.9403 52.9355 77.8929 52.8993 77.8524C52.8631 77.8118 52.8192 77.779 52.7701 77.7557C52.721 77.7325 52.6677 77.7193 52.6134 77.717C52.5591 77.7147 52.5049 77.7233 52.454 77.7423C52.4031 77.7613 52.3566 77.7904 52.3171 77.8277C52.2776 77.865 52.246 77.9099 52.2242 77.9596C52.2023 78.0093 52.1907 78.063 52.1899 78.1173C52.1804 78.3398 52.3541 78.5305 52.5782 78.5385ZM59.7114 63.941C59.9355 63.949 60.1251 63.7768 60.1347 63.5516C60.1445 63.3265 59.9704 63.1384 59.7464 63.1278C59.6386 63.1235 59.5336 63.1621 59.4543 63.2351C59.3749 63.3081 59.3278 63.4095 59.3231 63.5172C59.3135 63.7397 59.4873 63.9304 59.7114 63.941Z" fill="#F0F3FF"/>
</g>
<g filter="url(#filter4_f_789_14756)">
<path d="M-3.28888 38.4655C-3.21738 38.4693 -3.14585 38.4589 -3.0784 38.4349C-3.01095 38.4109 -2.94893 38.3737 -2.89593 38.3256C-2.84292 38.2775 -2.79998 38.2193 -2.7696 38.1545C-2.73921 38.0897 -2.72198 38.0195 -2.7189 37.9479C-2.71582 37.8764 -2.72695 37.805 -2.75165 37.7378C-2.77635 37.6705 -2.81411 37.6089 -2.86278 37.5564C-2.91145 37.5039 -2.97005 37.4616 -3.03519 37.4318C-3.10032 37.4021 -3.17071 37.3856 -3.24227 37.3832C-3.3849 37.3785 -3.52362 37.4303 -3.62829 37.5273C-3.73295 37.6243 -3.79511 37.7587 -3.80126 37.9013C-3.8074 38.0439 -3.75703 38.1831 -3.66109 38.2888C-3.56515 38.3944 -3.43138 38.4579 -3.28888 38.4655ZM9.56117 64.2244C9.78525 64.235 9.9749 64.0602 9.98443 63.8351C9.99423 63.6126 9.82021 63.4218 9.59612 63.4139C9.54293 63.4115 9.48978 63.4196 9.43972 63.4377C9.38966 63.4558 9.34366 63.4836 9.30435 63.5195C9.26505 63.5555 9.2332 63.5988 9.21064 63.647C9.18807 63.6952 9.17523 63.7474 9.17285 63.8006C9.16332 64.0258 9.33708 64.2138 9.56117 64.2244Z" fill="#F0F3FF"/>
</g>
<g opacity="0.3" filter="url(#filter5_f_789_14756)">
<path d="M23.1366 54.2382C23.2802 54.2443 23.4203 54.1932 23.5262 54.096C23.632 53.9989 23.6949 53.8637 23.7011 53.7201C23.7072 53.5765 23.6561 53.4364 23.5589 53.3306C23.4618 53.2247 23.3265 53.1618 23.183 53.1556C23.1119 53.1526 23.0409 53.1636 22.9741 53.188C22.9072 53.2124 22.8459 53.2497 22.7935 53.2978C22.741 53.3459 22.6986 53.4039 22.6686 53.4684C22.6386 53.5329 22.6216 53.6027 22.6185 53.6737C22.6155 53.7448 22.6265 53.8158 22.6509 53.8826C22.6752 53.9495 22.7126 54.0109 22.7607 54.0633C22.8088 54.1157 22.8667 54.1581 22.9313 54.1881C22.9958 54.2181 23.0656 54.2352 23.1366 54.2382ZM49.0915 74.597C49.2343 74.6017 49.3731 74.5498 49.4779 74.4527C49.5827 74.3556 49.6449 74.2211 49.651 74.0784C49.6571 73.9357 49.6067 73.7963 49.5107 73.6906C49.4147 73.5849 49.2808 73.5213 49.1382 73.5137C48.9974 73.5122 48.8616 73.5656 48.7594 73.6625C48.6572 73.7593 48.5967 73.8921 48.5907 74.0328C48.5846 74.1734 48.6335 74.3109 48.727 74.4162C48.8204 74.5215 48.9512 74.5863 49.0915 74.597ZM17.4168 73.7759C17.5602 73.7821 17.7001 73.7312 17.8059 73.6343C17.9117 73.5375 17.9748 73.4027 17.9813 73.2594C17.9875 73.1156 17.9366 72.9752 17.8395 72.869C17.7424 72.7627 17.6072 72.6993 17.4635 72.6925C17.3199 72.6869 17.1799 72.7384 17.074 72.8357C16.9682 72.9329 16.9052 73.0681 16.8987 73.2117C16.8926 73.3552 16.9438 73.4953 17.041 73.6011C17.1381 73.7069 17.2733 73.7698 17.4168 73.7759ZM-138.06 71.6992C-137.989 71.7025 -137.918 71.6917 -137.851 71.6675C-137.784 71.6433 -137.723 71.6062 -137.67 71.5582C-137.618 71.5102 -137.575 71.4524 -137.545 71.3879C-137.515 71.3235 -137.498 71.2538 -137.495 71.1827C-137.492 71.1117 -137.503 71.0407 -137.527 70.9738C-137.551 70.9069 -137.589 70.8455 -137.637 70.793C-137.685 70.7405 -137.743 70.698 -137.807 70.6679C-137.871 70.6379 -137.941 70.6207 -138.012 70.6176C-138.083 70.6145 -138.154 70.6254 -138.221 70.6497C-138.288 70.674 -138.35 70.7112 -138.402 70.7593C-138.455 70.8073 -138.497 70.8652 -138.527 70.9297C-138.557 70.9942 -138.574 71.064 -138.577 71.135C-138.581 71.2061 -138.57 71.2772 -138.546 71.3441C-138.521 71.411 -138.484 71.4724 -138.436 71.5249C-138.388 71.5773 -138.33 71.6197 -138.265 71.6496C-138.201 71.6796 -138.131 71.6964 -138.06 71.6992ZM-159.334 55.8791C-159.262 55.8829 -159.191 55.8725 -159.123 55.8485C-159.056 55.8245 -158.994 55.7873 -158.941 55.7392C-158.888 55.6911 -158.845 55.6329 -158.814 55.5681C-158.784 55.5033 -158.767 55.4331 -158.764 55.3615C-158.761 55.29 -158.772 55.2186 -158.796 55.1514C-158.821 55.0842 -158.859 55.0225 -158.907 54.97C-158.956 54.9175 -159.015 54.8752 -159.08 54.8454C-159.145 54.8157 -159.215 54.7992 -159.287 54.7968C-159.43 54.7921 -159.568 54.8439 -159.673 54.9409C-159.778 55.0379 -159.84 55.1723 -159.846 55.3149C-159.852 55.4575 -159.802 55.5967 -159.706 55.7024C-159.61 55.808 -159.476 55.8715 -159.334 55.8791Z" fill="#F0F3FF"/>
</g>
<g opacity="0.11" filter="url(#filter6_f_789_14756)">
<path d="M38.3493 66.0045C38.4901 66.006 38.6259 65.9526 38.728 65.8557C38.8302 65.7589 38.8907 65.6261 38.8967 65.4854C38.9028 65.3448 38.8539 65.2073 38.7605 65.102C38.667 64.9967 38.5363 64.9319 38.3959 64.9212C38.2531 64.9165 38.1143 64.9684 38.0095 65.0655C37.9048 65.1626 37.8426 65.2971 37.8364 65.4398C37.8303 65.5825 37.8807 65.7219 37.9767 65.8276C38.0728 65.9334 38.2066 65.9969 38.3493 66.0045Z" fill="#F0F3FF"/>
</g>
<g filter="url(#filter7_f_789_14756)">
<path d="M1.9117 -20.4984C1.98144 -20.4986 2.04845 -20.5256 2.09875 -20.5739C2.14906 -20.6222 2.1788 -20.688 2.1818 -20.7577C2.1848 -20.8274 2.16084 -20.8955 2.11487 -20.948C2.0689 -21.0004 2.00448 -21.0331 1.93501 -21.0393C1.89928 -21.0412 1.86354 -21.036 1.82983 -21.024C1.79612 -21.012 1.76513 -20.9934 1.73864 -20.9694C1.71215 -20.9453 1.69069 -20.9162 1.6755 -20.8838C1.66032 -20.8514 1.65171 -20.8164 1.65017 -20.7806C1.64863 -20.7449 1.65419 -20.7092 1.66653 -20.6756C1.67887 -20.642 1.69774 -20.6112 1.72206 -20.585C1.74638 -20.5587 1.77567 -20.5375 1.80822 -20.5227C1.84077 -20.5078 1.87594 -20.4996 1.9117 -20.4984ZM31.368 -5.95181C31.4378 -5.95197 31.5048 -5.97901 31.5551 -6.02731C31.6054 -6.07561 31.6351 -6.14144 31.6381 -6.21111C31.6411 -6.28079 31.6172 -6.34894 31.5712 -6.40138C31.5252 -6.45383 31.4608 -6.48653 31.3913 -6.49269C31.3556 -6.49459 31.3199 -6.4894 31.2862 -6.4774C31.2524 -6.4654 31.2215 -6.44682 31.195 -6.42277C31.1685 -6.39872 31.147 -6.36966 31.1318 -6.33726C31.1167 -6.30486 31.108 -6.26977 31.1065 -6.23402C31.1049 -6.19827 31.1105 -6.16259 31.1229 -6.129C31.1352 -6.09542 31.1541 -6.06461 31.1784 -6.03837C31.2027 -6.01213 31.232 -5.99095 31.2646 -5.97609C31.2971 -5.96124 31.3323 -5.95299 31.368 -5.95181ZM90.3438 -3.41587C90.4921 -3.40952 90.6192 -3.52526 90.6245 -3.67466C90.6263 -3.71029 90.6209 -3.7459 90.6088 -3.77943C90.5966 -3.81297 90.5779 -3.84377 90.5538 -3.87002C90.5296 -3.89627 90.5005 -3.91745 90.468 -3.93234C90.4356 -3.94723 90.4006 -3.95553 90.3649 -3.95675C90.3295 -3.95828 90.2941 -3.95278 90.2608 -3.94059C90.2274 -3.92839 90.1969 -3.90974 90.1708 -3.8857C90.1447 -3.86165 90.1236 -3.83268 90.1087 -3.80047C90.0939 -3.76825 90.0855 -3.73341 90.0841 -3.69795C90.0788 -3.54856 90.1928 -3.42249 90.3438 -3.41587ZM120.458 -16.7581C120.606 -16.7517 120.733 -16.8677 120.739 -17.0168C120.74 -17.0523 120.735 -17.0877 120.723 -17.1211C120.711 -17.1545 120.693 -17.1852 120.669 -17.2114C120.645 -17.2376 120.616 -17.2588 120.584 -17.2739C120.552 -17.2889 120.517 -17.2974 120.482 -17.2989C120.41 -17.3021 120.34 -17.2766 120.286 -17.2281C120.233 -17.1796 120.202 -17.112 120.198 -17.0402C120.193 -16.8908 120.307 -16.7647 120.458 -16.7581ZM130.158 3.44502C130.309 3.45137 130.433 3.33562 130.441 3.18623C130.444 3.11453 130.418 3.04471 130.369 2.99191C130.321 2.93911 130.253 2.90758 130.181 2.90414C130.146 2.90265 130.111 2.90816 130.077 2.92037C130.044 2.93258 130.013 2.95123 129.987 2.97527C129.961 2.99931 129.94 3.02826 129.925 3.06046C129.91 3.09266 129.902 3.12748 129.901 3.16292C129.893 3.31231 130.009 3.43866 130.158 3.44502ZM-58.4247 -16.5875C-58.3885 -16.5847 -58.3521 -16.5893 -58.3177 -16.6009C-58.2832 -16.6125 -58.2515 -16.6308 -58.2244 -16.655C-58.1972 -16.6791 -58.1752 -16.7084 -58.1596 -16.7412C-58.144 -16.774 -58.1352 -16.8096 -58.1336 -16.8459C-58.1321 -16.8822 -58.1379 -16.9184 -58.1506 -16.9524C-58.1633 -16.9864 -58.1828 -17.0175 -58.2078 -17.0438C-58.2328 -17.0701 -58.2628 -17.0912 -58.2961 -17.1056C-58.3294 -17.1201 -58.3653 -17.1278 -58.4016 -17.1281C-58.4719 -17.1287 -58.5396 -17.1021 -58.5905 -17.0537C-58.6414 -17.0053 -58.6716 -16.9391 -58.6746 -16.8689C-58.6775 -16.7988 -58.6532 -16.7302 -58.6065 -16.6777C-58.5599 -16.6252 -58.4947 -16.5928 -58.4247 -16.5875Z" fill="#F0F3FF"/>
</g>
<g opacity="0.11" filter="url(#filter8_f_789_14756)">
<path d="M-61.8512 -31.3699C-61.8156 -31.3684 -61.7802 -31.3739 -61.7467 -31.3861C-61.7133 -31.3983 -61.6827 -31.4169 -61.6565 -31.441C-61.6303 -31.465 -61.6091 -31.494 -61.5941 -31.5263C-61.5791 -31.5585 -61.5706 -31.5934 -61.5691 -31.6289C-61.5676 -31.6645 -61.5731 -31.6999 -61.5853 -31.7333C-61.5975 -31.7667 -61.6161 -31.7974 -61.6402 -31.8236C-61.6642 -31.8498 -61.6932 -31.871 -61.7255 -31.886C-61.7577 -31.901 -61.7926 -31.9095 -61.8281 -31.911C-61.8999 -31.9141 -61.9699 -31.8885 -62.0228 -31.8399C-62.0757 -31.7913 -62.1072 -31.7237 -62.1102 -31.652C-62.1133 -31.5802 -62.0877 -31.5102 -62.0391 -31.4573C-61.9905 -31.4044 -61.9229 -31.3729 -61.8512 -31.3699ZM-73.75 -25.6472C-73.7143 -25.6453 -73.6786 -25.6505 -73.6448 -25.6625C-73.6111 -25.6745 -73.5801 -25.693 -73.5537 -25.7171C-73.5272 -25.7411 -73.5057 -25.7702 -73.4905 -25.8026C-73.4753 -25.835 -73.4667 -25.8701 -73.4652 -25.9058C-73.4636 -25.9416 -73.4692 -25.9773 -73.4816 -26.0109C-73.4939 -26.0445 -73.5128 -26.0753 -73.5371 -26.1015C-73.5614 -26.1277 -73.5907 -26.1489 -73.6232 -26.1638C-73.6558 -26.1786 -73.691 -26.1869 -73.7267 -26.1881C-73.798 -26.1904 -73.8673 -26.1645 -73.9197 -26.1161C-73.972 -26.0676 -74.003 -26.0004 -74.0061 -25.9291C-74.0092 -25.8579 -73.984 -25.7883 -73.936 -25.7355C-73.8881 -25.6827 -73.8213 -25.651 -73.75 -25.6472ZM-65.5221 -9.03214C-65.4524 -9.0323 -65.3854 -9.05934 -65.3351 -9.10763C-65.2848 -9.15593 -65.255 -9.22178 -65.252 -9.29145C-65.249 -9.36113 -65.273 -9.42927 -65.319 -9.48172C-65.3649 -9.53417 -65.4293 -9.56687 -65.4988 -9.57303C-65.5345 -9.57493 -65.5703 -9.56972 -65.604 -9.55772C-65.6377 -9.54572 -65.6687 -9.52716 -65.6952 -9.50311C-65.7217 -9.47906 -65.7431 -9.44998 -65.7583 -9.41759C-65.7735 -9.38519 -65.7821 -9.35011 -65.7837 -9.31436C-65.7852 -9.27861 -65.7796 -9.24291 -65.7673 -9.20932C-65.755 -9.17574 -65.7361 -9.14494 -65.7118 -9.11869C-65.6874 -9.09245 -65.6581 -9.07129 -65.6256 -9.05643C-65.5931 -9.04158 -65.5579 -9.03331 -65.5221 -9.03214ZM-0.674599 -17.0874C-0.639038 -17.0856 -0.603485 -17.091 -0.569984 -17.1031C-0.536491 -17.1151 -0.505707 -17.1337 -0.479401 -17.1577C-0.453094 -17.1817 -0.43177 -17.2106 -0.416672 -17.2428C-0.401581 -17.2751 -0.393005 -17.31 -0.391441 -17.3456C-0.38987 -17.3811 -0.395348 -17.4167 -0.407539 -17.4501C-0.419739 -17.4836 -0.438416 -17.5143 -0.462509 -17.5405C-0.486603 -17.5667 -0.515625 -17.5879 -0.547935 -17.6029C-0.580238 -17.6178 -0.615181 -17.6263 -0.650757 -17.6277C-0.722237 -17.6306 -0.791954 -17.605 -0.844627 -17.5566C-0.897301 -17.5082 -0.92865 -17.4409 -0.931801 -17.3694C-0.934952 -17.2979 -0.90966 -17.2281 -0.861458 -17.1753C-0.813255 -17.1224 -0.746063 -17.0908 -0.674599 -17.0874ZM30.4115 3.76572C30.4477 3.76849 30.4841 3.76394 30.5185 3.75234C30.553 3.74075 30.5847 3.72234 30.6118 3.69823C30.639 3.67412 30.661 3.64481 30.6766 3.61201C30.6922 3.57921 30.701 3.54361 30.7026 3.50733C30.7041 3.47105 30.6983 3.43483 30.6856 3.40082C30.6729 3.36682 30.6534 3.33573 30.6284 3.3094C30.6034 3.28307 30.5734 3.26202 30.5401 3.24754C30.5068 3.23306 30.4709 3.22543 30.4346 3.22511C30.3643 3.22446 30.2966 3.25115 30.2457 3.2995C30.1948 3.34786 30.1646 3.41412 30.1616 3.48428C30.1587 3.55444 30.1831 3.62302 30.2297 3.67553C30.2763 3.72805 30.3415 3.76039 30.4115 3.76572ZM82.4641 3.29079C82.6151 3.29715 82.7396 3.1814 82.7475 3.03201C82.7528 2.88261 82.6389 2.75653 82.4879 2.74991C82.4525 2.74842 82.4171 2.75394 82.3838 2.76614C82.3505 2.77835 82.3199 2.797 82.2938 2.82104C82.2678 2.84509 82.2467 2.87405 82.2318 2.90625C82.2169 2.93845 82.2086 2.97325 82.2072 3.00869C82.1992 3.15808 82.3158 3.28444 82.4641 3.29079Z" fill="#F0F3FF"/>
</g>
<g filter="url(#filter9_f_789_14756)">
<path d="M70.6868 -22.1484C70.912 -22.1388 71.1 -22.3126 71.1106 -22.537C71.1145 -22.5911 71.1074 -22.6454 71.0899 -22.6967C71.0724 -22.7481 71.0447 -22.7954 71.0086 -22.8358C70.9725 -22.8763 70.9286 -22.9091 70.8796 -22.9324C70.8306 -22.9556 70.7774 -22.9687 70.7232 -22.9711C70.669 -22.9734 70.6149 -22.9648 70.5641 -22.9459C70.5132 -22.9269 70.4667 -22.898 70.4273 -22.8607C70.3878 -22.8235 70.3563 -22.7787 70.3344 -22.7291C70.3126 -22.6794 70.3009 -22.6259 70.3001 -22.5717C70.2977 -22.5185 70.3058 -22.4653 70.3239 -22.4153C70.342 -22.3652 70.3698 -22.3192 70.4057 -22.2799C70.4417 -22.2406 70.485 -22.2087 70.5332 -22.1862C70.5814 -22.1636 70.6336 -22.1508 70.6868 -22.1484ZM50.7987 5.45486C50.9039 5.45544 51.0052 5.41524 51.0814 5.34268C51.1575 5.27013 51.2026 5.17087 51.2072 5.06577C51.2117 4.96068 51.1753 4.85791 51.1056 4.77907C51.036 4.70024 50.9385 4.65147 50.8337 4.64301C50.726 4.63837 50.6209 4.67669 50.5415 4.74953C50.4621 4.82238 50.4149 4.92379 50.4102 5.03145C50.4056 5.13911 50.4439 5.2442 50.5168 5.3236C50.5896 5.40301 50.691 5.45023 50.7987 5.45486ZM140.379 14.7256C140.601 14.7351 140.792 14.5611 140.803 14.337C140.807 14.2292 140.769 14.124 140.696 14.0444C140.623 13.9649 140.521 13.9177 140.414 13.9131C140.306 13.9085 140.2 13.9469 140.121 14.0199C140.041 14.0929 139.994 14.1945 139.99 14.3023C139.979 14.5264 140.154 14.7158 140.379 14.7256ZM-34.993 2.57827C-34.9395 2.58106 -34.8859 2.57323 -34.8354 2.5552C-34.7849 2.53718 -34.7385 2.50933 -34.6988 2.47327C-34.6591 2.4372 -34.627 2.39363 -34.6042 2.34508C-34.5815 2.29653 -34.5686 2.24395 -34.5662 2.19038C-34.5639 2.13681 -34.5722 2.08332 -34.5907 2.03298C-34.6091 1.98264 -34.6374 1.93645 -34.6738 1.89708C-34.7102 1.85771 -34.754 1.82595 -34.8028 1.80362C-34.8515 1.78128 -34.9042 1.76882 -34.9578 1.76695C-35.0648 1.76323 -35.169 1.80193 -35.2476 1.87464C-35.3262 1.94735 -35.373 2.04816 -35.3776 2.15515C-35.3822 2.26214 -35.3444 2.36663 -35.2724 2.44588C-35.2004 2.52513 -35.1 2.5727 -34.993 2.57827ZM-70.7018 -5.18902C-70.6485 -5.18675 -70.5953 -5.19501 -70.5451 -5.21333C-70.495 -5.23165 -70.449 -5.25966 -70.4096 -5.29577C-70.3703 -5.33187 -70.3385 -5.37538 -70.316 -5.42377C-70.2935 -5.47218 -70.2808 -5.52454 -70.2785 -5.57786C-70.2763 -5.63119 -70.2845 -5.68444 -70.3029 -5.73457C-70.3212 -5.7847 -70.3492 -5.83072 -70.3853 -5.87003C-70.4214 -5.90933 -70.4649 -5.94114 -70.5133 -5.96364C-70.5617 -5.98613 -70.6141 -5.99887 -70.6674 -6.00113C-70.7751 -6.00569 -70.8802 -5.9673 -70.9596 -5.89438C-71.0389 -5.82146 -71.0861 -5.71999 -71.0907 -5.6123C-71.0952 -5.5046 -71.0568 -5.39951 -70.9839 -5.32013C-70.911 -5.24075 -70.8095 -5.19358 -70.7018 -5.18902ZM-74.8355 -16.2074C-74.782 -16.2046 -74.7284 -16.2125 -74.6779 -16.2305C-74.6274 -16.2485 -74.581 -16.2764 -74.5413 -16.3125C-74.5016 -16.3485 -74.4695 -16.3921 -74.4467 -16.4406C-74.424 -16.4892 -74.4111 -16.5418 -74.4087 -16.5953C-74.4064 -16.6489 -74.4147 -16.7024 -74.4332 -16.7527C-74.4516 -16.8031 -74.4799 -16.8493 -74.5163 -16.8886C-74.5527 -16.928 -74.5965 -16.9598 -74.6453 -16.9821C-74.694 -17.0044 -74.7467 -17.0169 -74.8003 -17.0188C-74.9073 -17.0225 -75.0115 -16.9838 -75.0901 -16.9111C-75.1687 -16.8384 -75.2154 -16.7375 -75.2201 -16.6306C-75.2247 -16.5236 -75.1869 -16.4191 -75.1149 -16.3398C-75.0429 -16.2606 -74.9425 -16.213 -74.8355 -16.2074ZM57.4702 -17.2948C57.5243 -17.2909 57.5787 -17.298 57.6301 -17.3155C57.6815 -17.3331 57.7289 -17.3608 57.7694 -17.3969C57.8099 -17.4331 57.8427 -17.477 57.866 -17.526C57.8892 -17.5751 57.9024 -17.6283 57.9048 -17.6826C57.9071 -17.7368 57.8985 -17.791 57.8796 -17.8419C57.8606 -17.8928 57.8317 -17.9393 57.7944 -17.9788C57.7572 -18.0183 57.7124 -18.05 57.6627 -18.0719C57.613 -18.0938 57.5594 -18.1055 57.5051 -18.1063C57.3993 -18.108 57.297 -18.0683 57.22 -17.9957C57.1431 -17.9231 57.0974 -17.8233 57.0929 -17.7176C57.0883 -17.6118 57.1252 -17.5085 57.1956 -17.4295C57.2661 -17.3506 57.3646 -17.3022 57.4702 -17.2948ZM9.53647 0.699224C9.6441 0.703861 9.74915 0.665556 9.82853 0.592733C9.90791 0.519911 9.9551 0.418535 9.95974 0.310913C9.96437 0.203289 9.92607 0.098238 9.85325 0.018858C9.78043 -0.0605221 9.67905 -0.107716 9.57143 -0.112352C9.46561 -0.114002 9.36333 -0.0742989 9.28634 -0.00168991C9.20934 0.0709171 9.1637 0.170696 9.15915 0.276428C9.15459 0.382162 9.19147 0.485498 9.26194 0.564459C9.33241 0.643419 9.4309 0.691767 9.53647 0.699224ZM77.2081 15.2625C77.4306 15.272 77.6214 15.0983 77.6319 14.8742C77.6317 14.7693 77.591 14.6686 77.5184 14.593C77.4458 14.5174 77.3468 14.4727 77.242 14.4682C77.1373 14.4637 77.0349 14.4997 76.956 14.5688C76.8772 14.638 76.828 14.7348 76.8188 14.8392C76.8108 15.0633 76.983 15.253 77.2081 15.2625ZM149.687 -0.0527611C149.909 -0.0432262 150.1 -0.21698 150.111 -0.441334C150.115 -0.549168 150.077 -0.654417 150.004 -0.733921C149.931 -0.813425 149.829 -0.860676 149.721 -0.865276C149.614 -0.869879 149.508 -0.831459 149.429 -0.758463C149.349 -0.685467 149.302 -0.583878 149.297 -0.476044C149.289 -0.251957 149.462 -0.0625629 149.687 -0.0527611ZM156.82 -14.6513C156.928 -14.647 157.033 -14.6853 157.112 -14.7581C157.191 -14.8308 157.239 -14.932 157.244 -15.0396C157.248 -15.1474 157.21 -15.2527 157.137 -15.3322C157.064 -15.4117 156.963 -15.459 156.855 -15.4636C156.747 -15.4683 156.642 -15.4299 156.562 -15.3569C156.483 -15.284 156.435 -15.1824 156.431 -15.0745C156.428 -15.0211 156.436 -14.9678 156.455 -14.9176C156.473 -14.8673 156.501 -14.8212 156.537 -14.7819C156.573 -14.7425 156.617 -14.7107 156.666 -14.6883C156.714 -14.6659 156.767 -14.6533 156.82 -14.6513Z" fill="#F0F3FF"/>
</g>
<g opacity="0.11" filter="url(#filter10_f_789_14756)">
<path d="M173.06 32.0341C173.131 32.0373 173.202 32.0265 173.269 32.0021C173.336 31.9778 173.397 31.9405 173.449 31.8924C173.502 31.8442 173.544 31.7862 173.574 31.7216C173.604 31.657 173.621 31.5871 173.624 31.516C173.627 31.445 173.616 31.3741 173.592 31.3072C173.568 31.2404 173.531 31.179 173.483 31.1266C173.435 31.0742 173.377 31.0317 173.312 31.0017C173.248 30.9716 173.178 30.9546 173.107 30.9515C172.964 30.9454 172.824 30.9966 172.718 31.0937C172.612 31.1909 172.549 31.3261 172.543 31.4696C172.54 31.5406 172.551 31.6116 172.575 31.6784C172.599 31.7452 172.636 31.8066 172.684 31.859C172.732 31.9115 172.79 31.9539 172.854 31.984C172.919 32.014 172.989 32.031 173.06 32.0341Z" fill="#F0F3FF"/>
</g>
<g filter="url(#filter11_f_789_14756)">
<path d="M174.689 35.0852C174.911 35.0947 175.102 34.9209 175.113 34.6969C175.113 34.592 175.072 34.4913 174.999 34.4157C174.927 34.34 174.828 34.2953 174.723 34.2908C174.618 34.2863 174.516 34.3224 174.437 34.3915C174.358 34.4606 174.309 34.5575 174.3 34.6619C174.292 34.886 174.464 35.0756 174.689 35.0852ZM183.862 29.7897C184.087 29.7993 184.275 29.6255 184.286 29.4012C184.288 29.3478 184.28 29.2944 184.261 29.2442C184.243 29.194 184.215 29.148 184.179 29.1086C184.143 29.0693 184.099 29.0375 184.051 29.0151C184.002 28.9926 183.95 28.98 183.896 28.9779C183.789 28.9737 183.684 29.0122 183.604 29.085C183.525 29.1577 183.478 29.2589 183.472 29.3664C183.464 29.5905 183.637 29.7799 183.862 29.7897ZM160.889 28.2582C161.114 28.268 161.305 28.094 161.313 27.8699C161.315 27.8167 161.307 27.7636 161.289 27.7135C161.271 27.6634 161.243 27.6174 161.207 27.5781C161.171 27.5388 161.128 27.507 161.08 27.4844C161.031 27.4618 160.979 27.449 160.926 27.4466C160.873 27.4441 160.819 27.4522 160.769 27.4704C160.719 27.4886 160.673 27.5165 160.633 27.5526C160.594 27.5887 160.562 27.6322 160.54 27.6807C160.517 27.7291 160.504 27.7815 160.502 27.8349C160.5 27.8881 160.508 27.9413 160.526 27.9913C160.544 28.0414 160.572 28.0874 160.608 28.1267C160.644 28.166 160.687 28.1979 160.735 28.2204C160.783 28.243 160.836 28.2558 160.889 28.2582Z" fill="#F0F3FF"/>
</g>
<g opacity="0.11" filter="url(#filter12_f_789_14756)">
<path d="M147.218 34.1749C147.362 34.1812 147.502 34.1302 147.608 34.0332C147.714 33.9361 147.777 33.801 147.783 33.6574C147.789 33.5139 147.739 33.3737 147.641 33.2677C147.544 33.1617 147.409 33.0986 147.266 33.0923C147.122 33.0861 146.982 33.1372 146.875 33.2343C146.769 33.3314 146.706 33.4666 146.699 33.6104C146.693 33.754 146.745 33.8939 146.842 33.9997C146.939 34.1054 147.075 34.1684 147.218 34.1749Z" fill="#F0F3FF"/>
</g>
<g filter="url(#filter13_f_789_14756)">
<path d="M142.336 28.0032C142.485 28.0095 142.612 27.8938 142.617 27.7444C142.619 27.709 142.614 27.6736 142.602 27.6402C142.59 27.6068 142.571 27.5761 142.547 27.5499C142.524 27.5237 142.495 27.5024 142.463 27.4874C142.43 27.4724 142.396 27.4638 142.36 27.4623C142.288 27.4591 142.218 27.4846 142.165 27.5331C142.112 27.5816 142.08 27.6492 142.077 27.7211C142.074 27.7928 142.1 27.8626 142.149 27.9154C142.197 27.9682 142.265 27.9997 142.336 28.0032ZM171.791 42.5487C171.942 42.5551 172.066 42.4393 172.074 42.2899C172.077 42.2182 172.051 42.1484 172.002 42.0956C171.954 42.0428 171.886 42.0113 171.815 42.0078C171.779 42.0063 171.744 42.0118 171.711 42.024C171.677 42.0362 171.647 42.0548 171.621 42.0789C171.594 42.1029 171.573 42.1319 171.559 42.1641C171.544 42.1963 171.535 42.2312 171.534 42.2666C171.526 42.416 171.643 42.5424 171.791 42.5487ZM230.766 45.0857C230.802 45.0875 230.837 45.0822 230.871 45.0701C230.904 45.0581 230.935 45.0395 230.962 45.0154C230.988 44.9913 231.009 44.9623 231.024 44.9299C231.04 44.8976 231.048 44.8626 231.049 44.8269C231.055 44.6775 230.941 44.5515 230.79 44.5448C230.754 44.5433 230.719 44.5489 230.686 44.5611C230.652 44.5733 230.622 44.5919 230.596 44.616C230.57 44.64 230.549 44.669 230.534 44.7012C230.519 44.7334 230.51 44.7682 230.509 44.8036C230.501 44.953 230.618 45.0794 230.766 45.0857ZM260.883 31.7435C261.031 31.7499 261.158 31.6341 261.163 31.4848C261.171 31.3354 261.055 31.2093 260.904 31.2027C260.868 31.2011 260.833 31.2066 260.8 31.2188C260.766 31.231 260.736 31.2497 260.71 31.2737C260.684 31.2978 260.663 31.3267 260.648 31.3589C260.633 31.3911 260.625 31.426 260.623 31.4614C260.615 31.6108 260.732 31.7372 260.883 31.7435ZM270.583 51.9458C270.731 51.9522 270.858 51.8361 270.866 51.687C270.868 51.6153 270.843 51.5455 270.794 51.4927C270.746 51.4399 270.678 51.4084 270.606 51.4049C270.535 51.4022 270.465 51.4278 270.412 51.4762C270.359 51.5246 270.327 51.592 270.323 51.6637C270.318 51.8131 270.434 51.9392 270.583 51.9458ZM81.9998 31.9133C82.1481 31.9197 82.2752 31.8037 82.2805 31.6545C82.2823 31.6189 82.2769 31.5833 82.2648 31.5497C82.2526 31.5162 82.2339 31.4854 82.2098 31.4592C82.1856 31.4329 82.1565 31.4117 82.1241 31.3969C82.0917 31.382 82.0566 31.3737 82.021 31.3724C81.9855 31.3709 81.9501 31.3764 81.9168 31.3886C81.8835 31.4008 81.8529 31.4194 81.8268 31.4435C81.8007 31.4675 81.7796 31.4965 81.7648 31.5287C81.7499 31.5609 81.7415 31.5958 81.7402 31.6312C81.7349 31.7806 81.8488 31.9067 81.9998 31.9133Z" fill="#F0F3FF"/>
</g>
<g opacity="0.11" filter="url(#filter14_f_789_14756)">
<path d="M78.5719 17.1318C78.7202 17.1382 78.8474 17.0224 78.8527 16.8731C78.8545 16.8376 78.8492 16.8022 78.8372 16.7688C78.8253 16.7354 78.8068 16.7047 78.7829 16.6785C78.7591 16.6523 78.7302 16.6311 78.6981 16.616C78.666 16.601 78.6312 16.5925 78.5957 16.591C78.5239 16.5878 78.4537 16.6133 78.4005 16.6618C78.3474 16.7103 78.3157 16.7779 78.3123 16.8497C78.307 16.9991 78.4209 17.1255 78.5719 17.1318ZM66.6736 22.8545C66.8219 22.8612 66.949 22.7451 66.9543 22.5957C66.9623 22.4466 66.8457 22.3203 66.6948 22.3139C66.6247 22.3138 66.5574 22.3408 66.5068 22.3893C66.4563 22.4378 66.4265 22.504 66.4238 22.574C66.421 22.644 66.4455 22.7123 66.4921 22.7646C66.5387 22.817 66.6037 22.8492 66.6736 22.8545ZM74.9007 39.4696C75.049 39.4759 75.1762 39.3602 75.1815 39.2108C75.1894 39.0614 75.0729 38.9353 74.9245 38.9287C74.8526 38.9255 74.7825 38.951 74.7293 38.9995C74.6762 39.048 74.6445 39.1156 74.6411 39.1875C74.6386 39.2592 74.6644 39.329 74.713 39.3818C74.7616 39.4346 74.829 39.4661 74.9007 39.4696ZM139.748 31.4135C139.897 31.4199 140.024 31.3042 140.029 31.1548C140.031 31.1193 140.026 31.0839 140.014 31.0505C140.002 31.0171 139.983 30.9865 139.959 30.9602C139.935 30.934 139.907 30.9128 139.874 30.8978C139.842 30.8827 139.807 30.8742 139.772 30.8727C139.7 30.8695 139.63 30.895 139.577 30.9435C139.524 30.992 139.492 31.0596 139.489 31.1315C139.486 31.2032 139.512 31.273 139.561 31.3258C139.609 31.3786 139.677 31.4101 139.748 31.4135ZM170.832 52.2645C170.98 52.2709 171.107 52.1549 171.112 52.0057C171.114 51.9703 171.109 51.9349 171.097 51.9015C171.085 51.8681 171.067 51.8374 171.043 51.8112C171.019 51.785 170.99 51.7637 170.958 51.7487C170.926 51.7337 170.891 51.7252 170.856 51.7236C170.82 51.7218 170.784 51.7272 170.751 51.7392C170.717 51.7513 170.686 51.7699 170.66 51.794C170.634 51.818 170.612 51.8471 170.597 51.8794C170.582 51.9118 170.574 51.9468 170.572 51.9824C170.567 52.1318 170.681 52.2579 170.832 52.2645ZM222.888 51.7925C223.039 51.7991 223.164 51.6831 223.172 51.5337C223.174 51.4621 223.148 51.3923 223.1 51.3396C223.051 51.2868 222.984 51.2553 222.912 51.2519C222.877 51.2504 222.841 51.2559 222.808 51.268C222.775 51.2802 222.744 51.2989 222.718 51.3229C222.692 51.347 222.671 51.3759 222.656 51.4082C222.641 51.4404 222.633 51.4752 222.631 51.5107C222.623 51.6598 222.74 51.7861 222.888 51.7925Z" fill="#F0F3FF"/>
</g>
<g opacity="0.3" filter="url(#filter15_f_789_14756)">
<path d="M94.7356 25.6854C94.8866 25.6918 95.011 25.576 95.019 25.4266C95.0215 25.3549 94.9957 25.2851 94.9471 25.2323C94.8985 25.1795 94.8311 25.148 94.7594 25.1445C94.724 25.143 94.6886 25.1485 94.6553 25.1607C94.6219 25.1729 94.5913 25.1915 94.5652 25.2156C94.5392 25.2396 94.5181 25.2686 94.5032 25.3008C94.4884 25.333 94.48 25.3679 94.4787 25.4033C94.4707 25.5527 94.5872 25.6791 94.7356 25.6854Z" fill="#F0F3FF"/>
</g>
<g filter="url(#filter16_f_789_14756)">
<path d="M157.583 13.7515C157.734 13.7579 157.858 13.6421 157.866 13.4927C157.871 13.3433 157.755 13.2173 157.606 13.2109C157.535 13.2081 157.465 13.2337 157.412 13.2821C157.359 13.3304 157.327 13.3977 157.323 13.4694C157.32 13.5411 157.346 13.6109 157.395 13.6637C157.443 13.7165 157.511 13.7481 157.583 13.7515ZM199.267 15.0015C199.415 15.0078 199.542 14.8921 199.547 14.7427C199.555 14.5933 199.439 14.4672 199.29 14.4606C199.218 14.4574 199.148 14.4829 199.095 14.5314C199.042 14.5799 199.01 14.6475 199.007 14.7194C199.004 14.7911 199.03 14.8609 199.079 14.9137C199.127 14.9665 199.195 14.998 199.267 15.0015ZM138.117 37.8493C138.265 37.8557 138.392 37.7399 138.397 37.5906C138.399 37.5551 138.394 37.5197 138.382 37.4863C138.37 37.4529 138.352 37.4223 138.328 37.396C138.304 37.3698 138.275 37.3486 138.243 37.3335C138.211 37.3185 138.176 37.31 138.141 37.3085C138.069 37.3053 137.998 37.3308 137.945 37.3793C137.892 37.4278 137.86 37.4954 137.857 37.5672C137.855 37.6389 137.88 37.7088 137.929 37.7616C137.978 37.8144 138.045 37.8459 138.117 37.8493Z" fill="#F0F3FF"/>
</g>
<g opacity="0.3" filter="url(#filter17_f_789_14756)">
<path d="M119.181 37.0358C119.329 37.0424 119.457 36.9264 119.462 36.7773C119.464 36.7418 119.458 36.7064 119.446 36.673C119.435 36.6396 119.416 36.609 119.392 36.5827C119.368 36.5565 119.339 36.5353 119.307 36.5202C119.275 36.5052 119.24 36.4967 119.205 36.4952C119.169 36.4924 119.132 36.497 119.098 36.5086C119.064 36.5201 119.032 36.5385 119.005 36.5626C118.978 36.5866 118.956 36.6159 118.94 36.6487C118.925 36.6814 118.916 36.7169 118.914 36.7532C118.912 36.7894 118.918 36.8256 118.931 36.8596C118.944 36.8936 118.963 36.9247 118.988 36.951C119.013 36.9774 119.043 36.9985 119.076 37.013C119.109 37.0276 119.145 37.0353 119.181 37.0358Z" fill="#F0F3FF"/>
</g>
<g opacity="0.11" filter="url(#filter18_f_789_14756)">
<path d="M97.7233 19.3099C97.7929 19.3093 97.8596 19.2819 97.9095 19.2334C97.9594 19.1849 97.9888 19.1191 97.9915 19.0496C97.9942 18.9801 97.9701 18.9121 97.9241 18.8599C97.8781 18.8077 97.8138 18.7752 97.7445 18.769C97.7091 18.7675 97.6737 18.773 97.6403 18.7852C97.607 18.7974 97.5764 18.8161 97.5504 18.8401C97.5243 18.8641 97.5032 18.8931 97.4883 18.9253C97.4735 18.9576 97.4651 18.9924 97.4638 19.0278C97.4558 19.1772 97.5724 19.3033 97.7233 19.3099Z" fill="#F0F3FF"/>
</g>
<g opacity="0.3" filter="url(#filter19_f_789_14756)">
<path d="M162.176 20.4543C162.327 20.4606 162.452 20.3449 162.46 20.1955C162.462 20.1238 162.436 20.054 162.388 20.0012C162.339 19.9484 162.272 19.9168 162.2 19.9134C162.128 19.9107 162.058 19.9363 162.005 19.9847C161.952 20.0331 161.92 20.1005 161.917 20.1722C161.914 20.2439 161.94 20.3137 161.989 20.3665C162.037 20.4193 162.105 20.4508 162.176 20.4543ZM142.496 43.1883C142.531 43.19 142.567 43.1848 142.601 43.1727C142.634 43.1606 142.665 43.142 142.691 43.118C142.718 43.0939 142.739 43.0648 142.754 43.0325C142.769 43.0002 142.778 42.9651 142.779 42.9295C142.785 42.7801 142.671 42.654 142.52 42.6474C142.484 42.6459 142.449 42.6514 142.416 42.6636C142.382 42.6758 142.352 42.6945 142.326 42.7185C142.299 42.7426 142.278 42.7715 142.264 42.8037C142.249 42.8359 142.24 42.8707 142.239 42.9062C142.231 43.0556 142.347 43.1819 142.496 43.1883ZM109.646 44.4859C109.797 44.4923 109.921 44.3762 109.929 44.2271C109.932 44.1554 109.906 44.0856 109.857 44.0328C109.809 43.98 109.741 43.9485 109.669 43.945C109.598 43.9423 109.528 43.9679 109.475 44.0163C109.422 44.0647 109.39 44.1321 109.386 44.2038C109.381 44.3532 109.497 44.4793 109.646 44.4859ZM102.581 26.0249C102.732 26.0313 102.857 25.9156 102.865 25.7662C102.867 25.6945 102.841 25.6246 102.793 25.5718C102.744 25.519 102.677 25.4875 102.605 25.4841C102.57 25.4826 102.534 25.4881 102.501 25.5003C102.468 25.5125 102.437 25.5312 102.411 25.5552C102.385 25.5792 102.364 25.6082 102.349 25.6404C102.334 25.6726 102.326 25.7074 102.324 25.7428C102.316 25.8922 102.433 26.0186 102.581 26.0249ZM270.877 32.4443C271.028 32.4506 271.153 32.3346 271.16 32.1855C271.162 32.1499 271.156 32.1144 271.144 32.081C271.132 32.0476 271.113 32.0169 271.089 31.9907C271.065 31.9645 271.036 31.9433 271.004 31.9283C270.971 31.9133 270.936 31.9049 270.901 31.9034C270.865 31.9019 270.83 31.9074 270.797 31.9196C270.763 31.9318 270.733 31.9504 270.707 31.9744C270.681 31.9985 270.66 32.0275 270.645 32.0597C270.63 32.0919 270.621 32.1267 270.62 32.1622C270.612 32.3116 270.729 32.4377 270.877 32.4443Z" fill="#F0F3FF"/>
</g>
<g opacity="0.11" filter="url(#filter20_f_789_14756)">
<path d="M227.802 19.4795C227.951 19.4858 228.078 19.3701 228.083 19.2207C228.091 19.0713 227.974 18.9452 227.826 18.9389C227.754 18.9357 227.684 18.9612 227.631 19.0097C227.578 19.0582 227.546 19.1258 227.543 19.1976C227.537 19.3468 227.654 19.4731 227.802 19.4795ZM263.073 43.7625C263.224 43.7688 263.349 43.6531 263.357 43.5037C263.362 43.3543 263.248 43.2282 263.097 43.2216C263.062 43.2201 263.026 43.2255 262.993 43.2377C262.96 43.2499 262.929 43.2686 262.903 43.2926C262.877 43.3167 262.856 43.3456 262.841 43.3779C262.826 43.4101 262.818 43.4449 262.816 43.4804C262.809 43.6298 262.925 43.7561 263.073 43.7625Z" fill="#F0F3FF"/>
</g>
<g opacity="0.3" filter="url(#filter21_f_789_14756)">
<path d="M194.529 43.2562C194.672 43.262 194.812 43.2107 194.918 43.1137C195.023 43.0167 195.086 42.8817 195.093 42.7384C195.094 42.5976 195.041 42.4618 194.944 42.3596C194.847 42.2575 194.714 42.197 194.574 42.1909C194.433 42.1849 194.296 42.2337 194.19 42.3272C194.085 42.4207 194.02 42.5514 194.01 42.6918C194.007 42.7629 194.018 42.834 194.042 42.9009C194.067 42.9677 194.104 43.0291 194.152 43.0815C194.2 43.134 194.258 43.1764 194.323 43.2063C194.388 43.2363 194.458 43.2533 194.529 43.2562Z" fill="#F0F3FF"/>
</g>
<g opacity="0.11" filter="url(#filter22_f_789_14756)">
<path d="M210.836 35.8261C210.907 35.8294 210.978 35.8185 211.045 35.7943C211.112 35.77 211.174 35.7327 211.226 35.6845C211.278 35.6364 211.321 35.5784 211.351 35.5138C211.381 35.4492 211.398 35.3794 211.4 35.3083C211.404 35.2372 211.393 35.1663 211.369 35.0994C211.344 35.0326 211.307 34.9712 211.259 34.9187C211.211 34.8662 211.153 34.8238 211.089 34.7937C211.025 34.7636 210.955 34.7466 210.884 34.7435C210.74 34.7374 210.6 34.7886 210.494 34.8858C210.389 34.9829 210.326 35.1181 210.32 35.2616C210.316 35.3326 210.327 35.4036 210.351 35.4705C210.376 35.5373 210.413 35.5987 210.461 35.6512C210.509 35.7036 210.567 35.7461 210.631 35.7761C210.695 35.8061 210.765 35.8231 210.836 35.8261Z" fill="#F0F3FF"/>
</g>
<g filter="url(#filter23_f_789_14756)">
<path d="M211.112 26.3531C211.335 26.3626 211.526 26.1889 211.534 25.9648C211.536 25.9116 211.528 25.8585 211.51 25.8084C211.492 25.7583 211.464 25.7123 211.428 25.673C211.392 25.6337 211.349 25.6019 211.3 25.5793C211.252 25.5568 211.2 25.5439 211.147 25.5415C210.922 25.5317 210.734 25.7058 210.723 25.9298C210.712 26.1539 210.887 26.3436 211.112 26.3531ZM191.223 53.9563C191.276 53.9588 191.329 53.9508 191.38 53.9326C191.43 53.9144 191.476 53.8864 191.515 53.8503C191.555 53.8143 191.587 53.7707 191.609 53.7223C191.632 53.6738 191.644 53.6214 191.646 53.5681C191.649 53.5149 191.641 53.4617 191.623 53.4117C191.605 53.3616 191.577 53.3156 191.541 53.2763C191.505 53.237 191.462 53.2051 191.413 53.1826C191.365 53.16 191.313 53.1472 191.26 53.1448C191.035 53.135 190.844 53.309 190.836 53.5331C190.833 53.5863 190.842 53.6394 190.86 53.6895C190.878 53.7395 190.906 53.7855 190.942 53.8248C190.977 53.8642 191.021 53.896 191.069 53.9186C191.117 53.9411 191.169 53.954 191.223 53.9563ZM280.802 63.2258C281.027 63.2364 281.215 63.0616 281.226 62.8364C281.236 62.6139 281.061 62.4232 280.836 62.4153C280.614 62.4047 280.423 62.5795 280.415 62.802C280.405 63.0271 280.579 63.2152 280.802 63.2258ZM105.431 51.08C105.656 51.0896 105.844 50.9155 105.855 50.6915C105.859 50.5838 105.821 50.4788 105.748 50.3995C105.675 50.3201 105.573 50.2729 105.466 50.2682C105.243 50.2587 105.052 50.4324 105.042 50.6568C105.034 50.8809 105.206 51.0702 105.431 51.08ZM69.7229 43.3125C69.8305 43.3168 69.9354 43.2784 70.0148 43.2057C70.0942 43.1329 70.1416 43.0317 70.1467 42.9242C70.1514 42.8163 70.113 42.7111 70.04 42.6316C69.967 42.552 69.8655 42.5047 69.7576 42.5001C69.6498 42.4955 69.5445 42.5339 69.465 42.6068C69.3855 42.6798 69.3382 42.7814 69.3335 42.8892C69.3311 42.9426 69.3393 42.996 69.3576 43.0462C69.3759 43.0964 69.4039 43.1425 69.4401 43.1819C69.4763 43.2212 69.52 43.253 69.5685 43.2754C69.617 43.2978 69.6695 43.3104 69.7229 43.3125ZM65.5887 32.2933C65.6963 32.2977 65.8013 32.2593 65.8807 32.1865C65.96 32.1136 66.0072 32.0123 66.012 31.9047C66.0154 31.8244 65.995 31.7449 65.9532 31.6762C65.9115 31.6076 65.8503 31.5528 65.7774 31.5189C65.7045 31.485 65.6233 31.4735 65.5438 31.4858C65.4644 31.4981 65.3904 31.5336 65.3312 31.588C65.272 31.6423 65.2303 31.713 65.2113 31.7911C65.1922 31.8692 65.1968 31.9512 65.2243 32.0267C65.2519 32.1021 65.3012 32.1678 65.3661 32.2152C65.4309 32.2627 65.5084 32.2899 65.5887 32.2933ZM197.895 31.2057C198.003 31.21 198.107 31.1716 198.187 31.0989C198.266 31.0261 198.314 30.9249 198.319 30.8174C198.323 30.7095 198.285 30.6043 198.212 30.5248C198.139 30.4452 198.037 30.398 197.93 30.3933C197.822 30.3887 197.717 30.4271 197.637 30.5C197.557 30.573 197.51 30.6746 197.506 30.7824C197.498 31.0068 197.67 31.1961 197.895 31.2057ZM149.963 49.201C150.185 49.2105 150.376 49.0368 150.384 48.8127C150.386 48.7595 150.378 48.7064 150.36 48.6563C150.342 48.6062 150.314 48.5602 150.278 48.5209C150.242 48.4816 150.199 48.4498 150.151 48.4272C150.102 48.4046 150.05 48.3918 149.997 48.3894C149.772 48.3796 149.584 48.5536 149.573 48.7777C149.563 49.0018 149.737 49.1915 149.963 49.201ZM217.631 63.7635C217.856 63.7741 218.044 63.5992 218.055 63.3768C218.065 63.1516 217.891 62.9609 217.668 62.9529C217.443 62.9424 217.252 63.1172 217.244 63.3397C217.234 63.5648 217.409 63.7555 217.631 63.7635ZM290.11 48.4487C290.335 48.4583 290.523 48.2845 290.533 48.0604C290.536 48.007 290.528 47.9537 290.509 47.9035C290.491 47.8533 290.463 47.8072 290.427 47.7679C290.391 47.7286 290.347 47.6968 290.298 47.6743C290.25 47.6519 290.198 47.6393 290.144 47.6371C289.922 47.6273 289.731 47.8014 289.723 48.0255C289.721 48.0786 289.729 48.1318 289.747 48.1819C289.765 48.2319 289.793 48.2779 289.829 48.3172C289.865 48.3565 289.908 48.3884 289.956 48.411C290.004 48.4335 290.057 48.4464 290.11 48.4487ZM297.246 33.8494C297.468 33.859 297.659 33.6852 297.667 33.4611C297.669 33.4079 297.661 33.3548 297.643 33.3047C297.625 33.2547 297.597 33.2087 297.561 33.1694C297.525 33.1301 297.482 33.0982 297.434 33.0756C297.385 33.0531 297.333 33.0402 297.28 33.0378C297.055 33.028 296.867 33.2021 296.856 33.4262C296.846 33.6502 297.02 33.8396 297.246 33.8494Z" fill="#F0F3FF"/>
</g>
<g opacity="0.3" filter="url(#filter24_f_789_14756)">
<path d="M233.415 27.5807C233.486 27.5837 233.557 27.5728 233.624 27.5484C233.691 27.524 233.752 27.4867 233.805 27.4386C233.857 27.3905 233.899 27.3326 233.929 27.2681C233.959 27.2036 233.976 27.1339 233.979 27.0628C233.983 26.9918 233.972 26.9208 233.948 26.854C233.924 26.7871 233.886 26.7257 233.838 26.6733C233.791 26.6209 233.733 26.5784 233.668 26.5484C233.604 26.5184 233.534 26.5014 233.463 26.4984C233.392 26.4951 233.321 26.5059 233.254 26.5302C233.187 26.5545 233.126 26.5918 233.073 26.6399C233.021 26.6881 232.978 26.7461 232.948 26.8107C232.918 26.8752 232.902 26.9451 232.899 27.0162C232.895 27.0872 232.906 27.1582 232.93 27.225C232.955 27.2919 232.992 27.3533 233.04 27.4057C233.088 27.4582 233.146 27.5006 233.21 27.5307C233.275 27.5607 233.344 27.5777 233.415 27.5807Z" fill="#F0F3FF"/>
</g>
<g filter="url(#filter25_f_789_14756)">
<path d="M234.244 8.37517C234.388 8.38114 234.528 8.32984 234.633 8.23256C234.739 8.13527 234.802 7.99996 234.808 7.8564C234.814 7.71285 234.762 7.5728 234.665 7.46707C234.568 7.36134 234.433 7.29859 234.289 7.29261C234.218 7.28956 234.147 7.30053 234.08 7.3249C234.013 7.34927 233.952 7.38657 233.9 7.43466C233.847 7.48275 233.805 7.54067 233.775 7.60515C233.745 7.66963 233.728 7.73941 233.725 7.81046C233.719 7.95418 233.77 8.09442 233.867 8.20032C233.965 8.30622 234.1 8.36911 234.244 8.37517ZM247.093 34.133C247.318 34.1428 247.509 33.9688 247.517 33.7447C247.519 33.6915 247.511 33.6384 247.493 33.5883C247.475 33.5382 247.447 33.4922 247.411 33.4529C247.375 33.4136 247.332 33.3818 247.284 33.3592C247.236 33.3366 247.184 33.3238 247.13 33.3214C246.905 33.3116 246.714 33.4856 246.707 33.7097C246.704 33.7629 246.712 33.8161 246.73 33.8661C246.748 33.9162 246.776 33.9622 246.812 34.0015C246.848 34.0408 246.891 34.0727 246.94 34.0952C246.988 34.1178 247.04 34.1306 247.093 34.133Z" fill="#F0F3FF"/>
</g>
<g opacity="0.3" filter="url(#filter26_f_789_14756)">
<path d="M260.668 24.1468C260.74 24.15 260.811 24.1392 260.878 24.1148C260.944 24.0905 261.006 24.0532 261.058 24.0051C261.111 23.9569 261.153 23.8989 261.183 23.8343C261.213 23.7697 261.23 23.6998 261.233 23.6287C261.236 23.5577 261.225 23.4867 261.201 23.4198C261.177 23.353 261.14 23.2916 261.092 23.2391C261.044 23.1867 260.986 23.1442 260.921 23.1142C260.857 23.0842 260.787 23.0672 260.716 23.0642C260.645 23.0612 260.574 23.0721 260.507 23.0965C260.441 23.1209 260.379 23.1582 260.327 23.2063C260.274 23.2544 260.232 23.3123 260.202 23.3768C260.172 23.4413 260.155 23.511 260.152 23.5821C260.149 23.6531 260.16 23.724 260.184 23.7909C260.208 23.8577 260.245 23.9192 260.293 23.9716C260.341 24.0241 260.399 24.0666 260.463 24.0966C260.528 24.1267 260.597 24.1437 260.668 24.1468ZM286.624 44.5051C286.767 44.5112 286.908 44.46 287.013 44.3629C287.119 44.2657 287.182 44.1305 287.188 43.987C287.191 43.916 287.181 43.845 287.156 43.7782C287.132 43.7114 287.095 43.65 287.047 43.5976C286.999 43.5451 286.941 43.5027 286.877 43.4727C286.812 43.4426 286.743 43.4256 286.672 43.4225C286.601 43.4193 286.529 43.4301 286.463 43.4545C286.396 43.4788 286.334 43.5161 286.282 43.5642C286.229 43.6124 286.187 43.6704 286.157 43.735C286.127 43.7996 286.11 43.8695 286.107 43.9406C286.104 44.0116 286.115 44.0826 286.139 44.1494C286.163 44.2162 286.201 44.2776 286.249 44.33C286.297 44.3824 286.354 44.4249 286.419 44.4549C286.483 44.485 286.553 44.502 286.624 44.5051ZM254.95 43.6855C255.021 43.6886 255.092 43.6776 255.159 43.6532C255.225 43.6289 255.287 43.5916 255.339 43.5435C255.392 43.4954 255.434 43.4375 255.464 43.373C255.494 43.3085 255.511 43.2388 255.514 43.1677C255.515 43.0269 255.462 42.8911 255.365 42.7889C255.268 42.6868 255.135 42.6263 254.995 42.6202C254.854 42.6142 254.717 42.6631 254.611 42.7565C254.506 42.85 254.441 42.9807 254.431 43.1211C254.428 43.1922 254.439 43.2633 254.463 43.3302C254.488 43.3971 254.525 43.4585 254.573 43.5109C254.621 43.5634 254.679 43.6058 254.744 43.6357C254.809 43.6657 254.879 43.6826 254.95 43.6855ZM99.4715 41.6099C99.5425 41.613 99.6135 41.602 99.6803 41.5777C99.7471 41.5533 99.8084 41.516 99.8608 41.4679C99.9132 41.4198 99.9556 41.3619 99.9856 41.2974C100.016 41.2329 100.033 41.1632 100.036 41.0921C100.039 41.0211 100.028 40.9501 100.004 40.8833C99.9797 40.8164 99.9426 40.755 99.8946 40.7026C99.8466 40.6501 99.7887 40.6076 99.7243 40.5776C99.6599 40.5475 99.5902 40.5305 99.5191 40.5274C99.3756 40.5213 99.2356 40.5725 99.1298 40.6696C99.024 40.7668 98.9611 40.902 98.955 41.0455C98.9517 41.1165 98.9624 41.1875 98.9866 41.2543C99.0108 41.3212 99.048 41.3826 99.0959 41.435C99.1439 41.4875 99.2018 41.5299 99.2662 41.56C99.3307 41.59 99.4004 41.607 99.4715 41.6099ZM78.1991 25.7877C78.3425 25.7935 78.4824 25.7422 78.5881 25.6451C78.6938 25.548 78.7568 25.413 78.7633 25.2696C78.7678 25.1269 78.7158 24.9882 78.6187 24.8836C78.5216 24.779 78.3871 24.7169 78.2445 24.7108C78.1019 24.7047 77.9626 24.7551 77.8569 24.851C77.7512 24.947 77.6876 25.0807 77.6799 25.2232C77.6769 25.2944 77.688 25.3655 77.7125 25.4323C77.737 25.4992 77.7744 25.5606 77.8226 25.613C77.8708 25.6654 77.9289 25.7078 77.9935 25.7378C78.0581 25.7678 78.1279 25.7847 78.1991 25.7877Z" fill="#F0F3FF"/>
</g>
<g opacity="0.11" filter="url(#filter27_f_789_14756)">
<path d="M275.88 35.913C275.951 35.9161 276.022 35.9051 276.089 35.8807C276.156 35.8563 276.217 35.8191 276.27 35.771C276.322 35.7229 276.365 35.6649 276.395 35.6005C276.425 35.536 276.442 35.4662 276.445 35.3952C276.448 35.3242 276.437 35.2532 276.413 35.1863C276.389 35.1195 276.352 35.0581 276.304 35.0056C276.256 34.9532 276.198 34.9107 276.133 34.8807C276.069 34.8507 275.999 34.8337 275.928 34.8307C275.857 34.8276 275.786 34.8386 275.719 34.863C275.652 34.8874 275.591 34.9247 275.539 34.9727C275.486 35.0208 275.444 35.0788 275.414 35.1433C275.384 35.2077 275.367 35.2775 275.364 35.3485C275.361 35.4196 275.371 35.4905 275.395 35.5574C275.42 35.6242 275.457 35.6856 275.505 35.7381C275.553 35.7905 275.611 35.833 275.675 35.863C275.74 35.893 275.809 35.91 275.88 35.913Z" fill="#F0F3FF"/>
</g>
<g opacity="0.3" filter="url(#filter28_f_789_14756)">
<path d="M117.279 18.2532C117.35 18.2561 117.421 18.245 117.488 18.2206C117.555 18.1961 117.616 18.1587 117.669 18.1105C117.721 18.0624 117.763 18.0044 117.793 17.9398C117.823 17.8753 117.84 17.8055 117.843 17.7344C117.846 17.6633 117.835 17.5923 117.811 17.5255C117.786 17.4587 117.749 17.3974 117.701 17.3451C117.652 17.2927 117.594 17.2504 117.53 17.2204C117.465 17.1905 117.396 17.1736 117.324 17.1706C117.181 17.1649 117.041 17.2161 116.935 17.3131C116.83 17.4102 116.767 17.5451 116.76 17.6884C116.754 17.8322 116.806 17.9724 116.903 18.0783C117 18.1842 117.136 18.2471 117.279 18.2532Z" fill="#F0F3FF"/>
</g>
<g opacity="0.11" filter="url(#filter29_f_789_14756)">
<path d="M110.207 12.5282C110.278 12.5315 110.349 12.5207 110.416 12.4964C110.483 12.4721 110.544 12.4348 110.597 12.3867C110.649 12.3385 110.692 12.2805 110.722 12.216C110.752 12.1514 110.768 12.0815 110.771 12.0104C110.775 11.9394 110.764 11.8684 110.74 11.8016C110.715 11.7347 110.678 11.6733 110.63 11.6208C110.582 11.5684 110.524 11.5259 110.46 11.4958C110.395 11.4658 110.326 11.4487 110.255 11.4457C110.111 11.4396 109.971 11.4907 109.865 11.5879C109.76 11.685 109.697 11.8203 109.691 11.9638C109.687 12.0348 109.698 12.1058 109.722 12.1726C109.746 12.2395 109.784 12.3009 109.832 12.3533C109.88 12.4058 109.937 12.4482 110.002 12.4782C110.066 12.5082 110.136 12.5252 110.207 12.5282Z" fill="#F0F3FF"/>
</g>
<g opacity="0.3" filter="url(#filter30_f_789_14756)">
<path d="M107.299 29.7495C107.37 29.7528 107.441 29.7419 107.508 29.7176C107.575 29.6933 107.636 29.656 107.688 29.6078C107.741 29.5597 107.783 29.5016 107.813 29.437C107.843 29.3724 107.86 29.3026 107.863 29.2314C107.866 29.1604 107.855 29.0895 107.831 29.0227C107.807 28.9559 107.77 28.8945 107.722 28.8421C107.674 28.7896 107.616 28.7472 107.551 28.7171C107.487 28.6871 107.417 28.6701 107.346 28.667C107.203 28.6609 107.063 28.712 106.957 28.8092C106.851 28.9064 106.788 29.0416 106.782 29.1851C106.779 29.2561 106.79 29.327 106.814 29.3938C106.838 29.4607 106.875 29.522 106.923 29.5745C106.971 29.6269 107.029 29.6694 107.093 29.6994C107.158 29.7295 107.228 29.7465 107.299 29.7495Z" fill="#F0F3FF"/>
</g>
<g filter="url(#filter31_f_789_14756)">
<path d="M124.216 30.2055C124.441 30.2151 124.629 30.0413 124.64 29.8172C124.642 29.7638 124.634 29.7105 124.616 29.6603C124.597 29.6101 124.569 29.564 124.533 29.5247C124.497 29.4854 124.453 29.4536 124.405 29.4311C124.356 29.4087 124.304 29.3961 124.25 29.3939C124.028 29.3841 123.837 29.5582 123.829 29.7823C123.827 29.8355 123.835 29.8886 123.853 29.9387C123.871 29.9887 123.899 30.0347 123.935 30.074C123.971 30.1134 124.014 30.1452 124.062 30.1678C124.111 30.1903 124.163 30.2032 124.216 30.2055Z" fill="#F0F3FF"/>
</g>
</g>
<defs>
<filter id="filter0_f_789_14756" x="-156.192" y="57.153" width="189.925" height="25.2847" filterUnits="userSpaceOnUse" color-interpolation-filters="sRGB">
<feFlood flood-opacity="0" result="BackgroundImageFix"/>
<feBlend mode="normal" in="SourceGraphic" in2="BackgroundImageFix" result="shape"/>
<feGaussianBlur stdDeviation="0.199996" result="effect1_foregroundBlur_789_14756"/>
</filter>
<filter id="filter1_f_789_14756" x="-135.6" y="49.6046" width="169.629" height="25.3716" filterUnits="userSpaceOnUse" color-interpolation-filters="sRGB">
<feFlood flood-opacity="0" result="BackgroundImageFix"/>
<feBlend mode="normal" in="SourceGraphic" in2="BackgroundImageFix" result="shape"/>
<feGaussianBlur stdDeviation="0.199996" result="effect1_foregroundBlur_789_14756"/>
</filter>
<filter id="filter2_f_789_14756" x="-10.3888" y="48.6299" width="36.6137" height="25.6232" filterUnits="userSpaceOnUse" color-interpolation-filters="sRGB">
<feFlood flood-opacity="0" result="BackgroundImageFix"/>
<feBlend mode="normal" in="SourceGraphic" in2="BackgroundImageFix" result="shape"/>
<feGaussianBlur stdDeviation="0.199996" result="effect1_foregroundBlur_789_14756"/>
</filter>
<filter id="filter3_f_789_14756" x="-172.733" y="55.2323" width="233.268" height="39.0243" filterUnits="userSpaceOnUse" color-interpolation-filters="sRGB">
<feFlood flood-opacity="0" result="BackgroundImageFix"/>
<feBlend mode="normal" in="SourceGraphic" in2="BackgroundImageFix" result="shape"/>
<feGaussianBlur stdDeviation="0.199996" result="effect1_foregroundBlur_789_14756"/>
</filter>
<filter id="filter4_f_789_14756" x="-4.20175" y="36.9829" width="14.5866" height="27.6419" filterUnits="userSpaceOnUse" color-interpolation-filters="sRGB">
<feFlood flood-opacity="0" result="BackgroundImageFix"/>
<feBlend mode="normal" in="SourceGraphic" in2="BackgroundImageFix" result="shape"/>
<feGaussianBlur stdDeviation="0.199996" result="effect1_foregroundBlur_789_14756"/>
</filter>
<filter id="filter5_f_789_14756" x="-160.246" y="52.7552" width="210.298" height="22.2421" filterUnits="userSpaceOnUse" color-interpolation-filters="sRGB">
<feFlood flood-opacity="0" result="BackgroundImageFix"/>
<feBlend mode="normal" in="SourceGraphic" in2="BackgroundImageFix" result="shape"/>
<feGaussianBlur stdDeviation="0.199996" result="effect1_foregroundBlur_789_14756"/>
</filter>
<filter id="filter6_f_789_14756" x="37.4359" y="64.5209" width="1.86126" height="1.8836" filterUnits="userSpaceOnUse" color-interpolation-filters="sRGB">
<feFlood flood-opacity="0" result="BackgroundImageFix"/>
<feBlend mode="normal" in="SourceGraphic" in2="BackgroundImageFix" result="shape"/>
<feGaussianBlur stdDeviation="0.199996" result="effect1_foregroundBlur_789_14756"/>
</filter>
<filter id="filter7_f_789_14756" x="-59.0748" y="-21.4397" width="189.916" height="25.285" filterUnits="userSpaceOnUse" color-interpolation-filters="sRGB">
<feFlood flood-opacity="0" result="BackgroundImageFix"/>
<feBlend mode="normal" in="SourceGraphic" in2="BackgroundImageFix" result="shape"/>
<feGaussianBlur stdDeviation="0.199996" result="effect1_foregroundBlur_789_14756"/>
</filter>
<filter id="filter8_f_789_14756" x="-74.4063" y="-32.3112" width="157.554" height="36.4777" filterUnits="userSpaceOnUse" color-interpolation-filters="sRGB">
<feFlood flood-opacity="0" result="BackgroundImageFix"/>
<feBlend mode="normal" in="SourceGraphic" in2="BackgroundImageFix" result="shape"/>
<feGaussianBlur stdDeviation="0.199996" result="effect1_foregroundBlur_789_14756"/>
</filter>
<filter id="filter9_f_789_14756" x="-75.6205" y="-23.3714" width="233.265" height="39.0344" filterUnits="userSpaceOnUse" color-interpolation-filters="sRGB">
<feFlood flood-opacity="0" result="BackgroundImageFix"/>
<feBlend mode="normal" in="SourceGraphic" in2="BackgroundImageFix" result="shape"/>
<feGaussianBlur stdDeviation="0.199996" result="effect1_foregroundBlur_789_14756"/>
</filter>
<filter id="filter10_f_789_14756" x="172.142" y="30.5511" width="1.88177" height="1.8836" filterUnits="userSpaceOnUse" color-interpolation-filters="sRGB">
<feFlood flood-opacity="0" result="BackgroundImageFix"/>
<feBlend mode="normal" in="SourceGraphic" in2="BackgroundImageFix" result="shape"/>
<feGaussianBlur stdDeviation="0.199996" result="effect1_foregroundBlur_789_14756"/>
</filter>
<filter id="filter11_f_789_14756" x="160.102" y="27.0462" width="24.5842" height="8.43939" filterUnits="userSpaceOnUse" color-interpolation-filters="sRGB">
<feFlood flood-opacity="0" result="BackgroundImageFix"/>
<feBlend mode="normal" in="SourceGraphic" in2="BackgroundImageFix" result="shape"/>
<feGaussianBlur stdDeviation="0.199996" result="effect1_foregroundBlur_789_14756"/>
</filter>
<filter id="filter12_f_789_14756" x="146.298" y="32.6918" width="1.88519" height="1.8836" filterUnits="userSpaceOnUse" color-interpolation-filters="sRGB">
<feFlood flood-opacity="0" result="BackgroundImageFix"/>
<feBlend mode="normal" in="SourceGraphic" in2="BackgroundImageFix" result="shape"/>
<feGaussianBlur stdDeviation="0.199996" result="effect1_foregroundBlur_789_14756"/>
</filter>
<filter id="filter13_f_789_14756" x="81.34" y="27.062" width="189.926" height="25.284" filterUnits="userSpaceOnUse" color-interpolation-filters="sRGB">
<feFlood flood-opacity="0" result="BackgroundImageFix"/>
<feBlend mode="normal" in="SourceGraphic" in2="BackgroundImageFix" result="shape"/>
<feGaussianBlur stdDeviation="0.199996" result="effect1_foregroundBlur_789_14756"/>
</filter>
<filter id="filter14_f_789_14756" x="66.0236" y="16.1907" width="157.548" height="36.4741" filterUnits="userSpaceOnUse" color-interpolation-filters="sRGB">
<feFlood flood-opacity="0" result="BackgroundImageFix"/>
<feBlend mode="normal" in="SourceGraphic" in2="BackgroundImageFix" result="shape"/>
<feGaussianBlur stdDeviation="0.199996" result="effect1_foregroundBlur_789_14756"/>
</filter>
<filter id="filter15_f_789_14756" x="94.0783" y="24.7443" width="1.34075" height="1.34136" filterUnits="userSpaceOnUse" color-interpolation-filters="sRGB">
<feFlood flood-opacity="0" result="BackgroundImageFix"/>
<feBlend mode="normal" in="SourceGraphic" in2="BackgroundImageFix" result="shape"/>
<feGaussianBlur stdDeviation="0.199996" result="effect1_foregroundBlur_789_14756"/>
</filter>
<filter id="filter16_f_789_14756" x="137.457" y="12.8107" width="62.4907" height="25.4389" filterUnits="userSpaceOnUse" color-interpolation-filters="sRGB">
<feFlood flood-opacity="0" result="BackgroundImageFix"/>
<feBlend mode="normal" in="SourceGraphic" in2="BackgroundImageFix" result="shape"/>
<feGaussianBlur stdDeviation="0.199996" result="effect1_foregroundBlur_789_14756"/>
</filter>
<filter id="filter17_f_789_14756" x="118.514" y="36.0944" width="1.34832" height="1.34161" filterUnits="userSpaceOnUse" color-interpolation-filters="sRGB">
<feFlood flood-opacity="0" result="BackgroundImageFix"/>
<feBlend mode="normal" in="SourceGraphic" in2="BackgroundImageFix" result="shape"/>
<feGaussianBlur stdDeviation="0.199996" result="effect1_foregroundBlur_789_14756"/>
</filter>
<filter id="filter18_f_789_14756" x="97.0634" y="18.3688" width="1.3283" height="1.34112" filterUnits="userSpaceOnUse" color-interpolation-filters="sRGB">
<feFlood flood-opacity="0" result="BackgroundImageFix"/>
<feBlend mode="normal" in="SourceGraphic" in2="BackgroundImageFix" result="shape"/>
<feGaussianBlur stdDeviation="0.199996" result="effect1_foregroundBlur_789_14756"/>
</filter>
<filter id="filter19_f_789_14756" x="101.924" y="19.5132" width="169.637" height="25.373" filterUnits="userSpaceOnUse" color-interpolation-filters="sRGB">
<feFlood flood-opacity="0" result="BackgroundImageFix"/>
<feBlend mode="normal" in="SourceGraphic" in2="BackgroundImageFix" result="shape"/>
<feGaussianBlur stdDeviation="0.199996" result="effect1_foregroundBlur_789_14756"/>
</filter>
<filter id="filter20_f_789_14756" x="227.142" y="18.5386" width="36.6144" height="25.6241" filterUnits="userSpaceOnUse" color-interpolation-filters="sRGB">
<feFlood flood-opacity="0" result="BackgroundImageFix"/>
<feBlend mode="normal" in="SourceGraphic" in2="BackgroundImageFix" result="shape"/>
<feGaussianBlur stdDeviation="0.199996" result="effect1_foregroundBlur_789_14756"/>
</filter>
<filter id="filter21_f_789_14756" x="193.609" y="41.7904" width="1.88372" height="1.86627" filterUnits="userSpaceOnUse" color-interpolation-filters="sRGB">
<feFlood flood-opacity="0" result="BackgroundImageFix"/>
<feBlend mode="normal" in="SourceGraphic" in2="BackgroundImageFix" result="shape"/>
<feGaussianBlur stdDeviation="0.199996" result="effect1_foregroundBlur_789_14756"/>
</filter>
<filter id="filter22_f_789_14756" x="209.919" y="34.3431" width="1.88177" height="1.8836" filterUnits="userSpaceOnUse" color-interpolation-filters="sRGB">
<feFlood flood-opacity="0" result="BackgroundImageFix"/>
<feBlend mode="normal" in="SourceGraphic" in2="BackgroundImageFix" result="shape"/>
<feGaussianBlur stdDeviation="0.199996" result="effect1_foregroundBlur_789_14756"/>
</filter>
<filter id="filter23_f_789_14756" x="64.7997" y="25.1411" width="233.267" height="39.0228" filterUnits="userSpaceOnUse" color-interpolation-filters="sRGB">
<feFlood flood-opacity="0" result="BackgroundImageFix"/>
<feBlend mode="normal" in="SourceGraphic" in2="BackgroundImageFix" result="shape"/>
<feGaussianBlur stdDeviation="0.199996" result="effect1_foregroundBlur_789_14756"/>
</filter>
<filter id="filter24_f_789_14756" x="232.498" y="26.0978" width="1.88177" height="1.88336" filterUnits="userSpaceOnUse" color-interpolation-filters="sRGB">
<feFlood flood-opacity="0" result="BackgroundImageFix"/>
<feBlend mode="normal" in="SourceGraphic" in2="BackgroundImageFix" result="shape"/>
<feGaussianBlur stdDeviation="0.199996" result="effect1_foregroundBlur_789_14756"/>
</filter>
<filter id="filter25_f_789_14756" x="233.324" y="6.89212" width="14.5932" height="27.6413" filterUnits="userSpaceOnUse" color-interpolation-filters="sRGB">
<feFlood flood-opacity="0" result="BackgroundImageFix"/>
<feBlend mode="normal" in="SourceGraphic" in2="BackgroundImageFix" result="shape"/>
<feGaussianBlur stdDeviation="0.199996" result="effect1_foregroundBlur_789_14756"/>
</filter>
<filter id="filter26_f_789_14756" x="77.2795" y="22.6637" width="210.309" height="22.2419" filterUnits="userSpaceOnUse" color-interpolation-filters="sRGB">
<feFlood flood-opacity="0" result="BackgroundImageFix"/>
<feBlend mode="normal" in="SourceGraphic" in2="BackgroundImageFix" result="shape"/>
<feGaussianBlur stdDeviation="0.199996" result="effect1_foregroundBlur_789_14756"/>
</filter>
<filter id="filter27_f_789_14756" x="274.963" y="34.4302" width="1.88177" height="1.88323" filterUnits="userSpaceOnUse" color-interpolation-filters="sRGB">
<feFlood flood-opacity="0" result="BackgroundImageFix"/>
<feBlend mode="normal" in="SourceGraphic" in2="BackgroundImageFix" result="shape"/>
<feGaussianBlur stdDeviation="0.199996" result="effect1_foregroundBlur_789_14756"/>
</filter>
<filter id="filter28_f_789_14756" x="116.36" y="16.7702" width="1.88397" height="1.88348" filterUnits="userSpaceOnUse" color-interpolation-filters="sRGB">
<feFlood flood-opacity="0" result="BackgroundImageFix"/>
<feBlend mode="normal" in="SourceGraphic" in2="BackgroundImageFix" result="shape"/>
<feGaussianBlur stdDeviation="0.199996" result="effect1_foregroundBlur_789_14756"/>
</filter>
<filter id="filter29_f_789_14756" x="109.29" y="11.0452" width="1.88177" height="1.8836" filterUnits="userSpaceOnUse" color-interpolation-filters="sRGB">
<feFlood flood-opacity="0" result="BackgroundImageFix"/>
<feBlend mode="normal" in="SourceGraphic" in2="BackgroundImageFix" result="shape"/>
<feGaussianBlur stdDeviation="0.199996" result="effect1_foregroundBlur_789_14756"/>
</filter>
<filter id="filter30_f_789_14756" x="106.382" y="28.2665" width="1.88177" height="1.8836" filterUnits="userSpaceOnUse" color-interpolation-filters="sRGB">
<feFlood flood-opacity="0" result="BackgroundImageFix"/>
<feBlend mode="normal" in="SourceGraphic" in2="BackgroundImageFix" result="shape"/>
<feGaussianBlur stdDeviation="0.199996" result="effect1_foregroundBlur_789_14756"/>
</filter>
<filter id="filter31_f_789_14756" x="123.429" y="28.9936" width="1.61126" height="1.61236" filterUnits="userSpaceOnUse" color-interpolation-filters="sRGB">
<feFlood flood-opacity="0" result="BackgroundImageFix"/>
<feBlend mode="normal" in="SourceGraphic" in2="BackgroundImageFix" result="shape"/>
<feGaussianBlur stdDeviation="0.199996" result="effect1_foregroundBlur_789_14756"/>
</filter>
</defs>
</svg>
