<svg width="20" height="20" viewBox="0 0 20 20" fill="none" xmlns="http://www.w3.org/2000/svg">
<path d="M18.8811 1.81517C18.1837 1.11777 17.3446 0.769386 16.3638 0.77002H4.48871C3.50728 0.77002 2.66818 1.1184 1.97142 1.81517C1.27402 2.51257 0.925636 3.35166 0.92627 4.33246V16.2076C0.92627 17.189 1.27465 18.0281 1.97142 18.7249C2.66882 19.4223 3.50791 19.7707 4.48871 19.77H7.25992C7.44061 19.77 7.5766 19.7637 7.6679 19.751C7.77423 19.73 7.87019 19.6733 7.93988 19.5903C8.03055 19.4952 8.07588 19.3573 8.07588 19.1766L8.06922 18.335C8.06542 17.7986 8.06351 17.3738 8.06351 17.0606L7.77821 17.1101C7.59753 17.143 7.36897 17.1576 7.09255 17.1538C6.80411 17.1483 6.51659 17.1194 6.23284 17.0673C5.93052 17.0124 5.64598 16.8852 5.40357 16.6964C5.14913 16.504 4.95937 16.2386 4.8596 15.9356L4.73597 15.6503C4.63137 15.4255 4.50049 15.2138 4.34606 15.0198C4.16854 14.789 3.98912 14.6324 3.8078 14.55L3.72221 14.4882C3.66277 14.4451 3.60852 14.3953 3.56054 14.3398C3.5147 14.2882 3.47716 14.2298 3.44927 14.1667C3.42454 14.1084 3.44515 14.0609 3.51108 14.0241C3.57702 13.986 3.69685 13.9673 3.87056 13.968L4.11782 14.006C4.28266 14.0384 4.48649 14.1369 4.72931 14.3018C4.97473 14.4691 5.17973 14.689 5.32939 14.9456C5.51959 15.2829 5.74847 15.5406 6.01602 15.7188C6.2842 15.8963 6.55428 15.985 6.82627 15.985C7.09825 15.985 7.33346 15.9644 7.53191 15.9232C7.72409 15.8834 7.91085 15.8208 8.08824 15.7368C8.16242 15.1846 8.36435 14.7598 8.69403 14.4625C8.26648 14.4202 7.84272 14.3459 7.42635 14.24C7.02003 14.1285 6.62929 13.9665 6.26327 13.7578C5.88025 13.5493 5.54195 13.2675 5.26758 12.9285C5.00384 12.5989 4.78732 12.1662 4.61805 11.6304C4.4494 11.0941 4.36508 10.4753 4.36508 9.77407C4.36508 8.77679 4.69064 7.92724 5.34176 7.2254C5.03744 6.47538 5.06628 5.6347 5.4283 4.70335C5.66795 4.62854 6.02267 4.68401 6.49247 4.86977C6.96226 5.05554 7.30652 5.21404 7.52525 5.34527C7.74398 5.47841 7.91928 5.59 8.05115 5.68003C8.82421 5.46448 9.62325 5.35632 10.4258 5.35859C11.2424 5.35859 12.0343 5.46573 12.8014 5.68003L13.2712 5.38331C13.6326 5.16636 14.0137 4.98422 14.4095 4.83934C14.8464 4.6745 15.1805 4.62917 15.4119 4.70335C15.7828 5.63533 15.8154 6.47633 15.5098 7.22635C16.1616 7.92692 16.4875 8.77648 16.4875 9.77503C16.4875 10.4762 16.4028 11.0966 16.2335 11.6361C16.0649 12.1763 15.8465 12.6093 15.5783 12.9352C15.2983 13.269 14.9588 13.548 14.5769 13.7578C14.1775 13.9803 13.7898 14.1411 13.4138 14.24C12.9975 14.3462 12.5737 14.4209 12.1462 14.4634C12.5741 14.8343 12.7884 15.4195 12.789 16.219V19.1766C12.789 19.3161 12.8096 19.4292 12.8508 19.5161C12.8701 19.5578 12.8975 19.5952 12.9315 19.6261C12.9655 19.657 13.0053 19.6807 13.0486 19.6958C13.1393 19.7288 13.2198 19.7491 13.2902 19.7567C13.3606 19.7656 13.4614 19.7697 13.5926 19.7691H16.3638C17.3453 19.7691 18.1844 19.4207 18.8811 18.7239C19.5779 18.0272 19.9263 17.1881 19.9263 16.2066V4.33246C19.9263 3.35103 19.5785 2.51193 18.8811 1.81517Z" fill="#7E45F0"/>
</svg>
