<svg width="35" height="68" viewBox="0 0 35 68" fill="none" xmlns="http://www.w3.org/2000/svg">
<path fill-rule="evenodd" clip-rule="evenodd" d="M17.5 40C22.1413 40 26.5925 38.1563 29.8744 34.8744C33.1563 31.5925 35 27.1413 35 22.5C35 17.8587 33.1563 13.4075 29.8744 10.1256C26.5925 6.84374 22.1413 5 17.5 5C12.8587 5 8.40752 6.84374 5.12563 10.1256C1.84374 13.4075 0 17.8587 0 22.5C0 27.1413 1.84374 31.5925 5.12563 34.8744C8.40752 38.1563 12.8587 40 17.5 40ZM17.5 15C16.79 15 16.315 15.85 15.365 17.5575L15.12 17.9975C14.85 18.4825 14.715 18.7225 14.505 18.8825C14.2925 19.0425 14.03 19.1025 13.505 19.22L13.03 19.33C11.185 19.7475 10.2625 19.955 10.0425 20.66C9.8225 21.365 10.4525 22.1025 11.71 23.5725L12.035 23.9525C12.3925 24.37 12.5725 24.5775 12.6525 24.8375C12.7325 25.0975 12.705 25.375 12.6525 25.9325L12.6025 26.44C12.4125 28.4025 12.3175 29.385 12.89 29.82C13.465 30.255 14.33 29.8575 16.0575 29.0625L16.5025 28.8575C16.995 28.6325 17.24 28.52 17.5 28.52C17.76 28.52 18.005 28.6325 18.4975 28.8575L18.9425 29.0625C20.67 29.86 21.535 30.255 22.11 29.82C22.685 29.385 22.5875 28.4025 22.3975 26.44L22.3475 25.9325C22.295 25.375 22.2675 25.0975 22.3475 24.8375C22.4275 24.5775 22.6075 24.37 22.965 23.9525L23.29 23.5725C24.5475 22.1025 25.1775 21.3675 24.9575 20.66C24.7375 19.955 23.815 19.7475 21.97 19.33L21.495 19.22C20.97 19.1025 20.7075 19.045 20.495 18.8825C20.285 18.7225 20.15 18.4825 19.88 17.9975L19.635 17.5575C18.685 15.85 18.21 15 17.5 15Z" fill="#5E16EC"/>
<path opacity="0.5" d="M4.28575 50.8075L5.87825 45L7.50075 40H27.5007L29.1232 45L30.7157 50.8075C32.2857 56.5375 33.0707 59.4025 32.0232 60.97C31.6557 61.52 31.1632 61.96 30.5907 62.2525C28.9607 63.0825 26.4407 61.77 21.4032 59.145C19.7282 58.27 18.8883 57.835 17.9983 57.74C17.6674 57.7069 17.3341 57.7069 17.0032 57.74C16.1132 57.835 15.2758 58.2725 13.5983 59.145C8.56075 61.77 6.04075 63.0825 4.41075 62.2525C3.82991 61.9568 3.33618 61.5147 2.97825 60.97C1.92825 59.4025 2.71575 56.5375 4.28575 50.8075Z" fill="#5E16EC"/>
</svg>
