<svg width="54" height="54" viewBox="0 0 54 54" fill="none" xmlns="http://www.w3.org/2000/svg">
<path d="M10.381 17.0756C10.381 14.4864 11.4096 12.0032 13.2405 10.1723C15.0713 8.34144 17.5545 7.31287 20.1438 7.31287C22.733 7.31287 25.2162 8.34144 27.0471 10.1723C28.8779 12.0032 29.9065 14.4864 29.9065 17.0756C29.9065 19.6648 28.8779 22.148 27.0471 23.9789C25.2162 25.8098 22.733 26.8383 20.1438 26.8383C17.5545 26.8383 15.0713 25.8098 13.2405 23.9789C11.4096 22.148 10.381 19.6648 10.381 17.0756ZM13.3099 30.7434C10.7206 30.7434 8.23742 31.772 6.40656 33.6029C4.57569 35.4337 3.54712 37.9169 3.54712 40.5061L3.54712 44.4112H36.7404V40.5061C36.7404 37.9169 35.7118 35.4337 33.881 33.6029C32.0501 31.772 29.5669 30.7434 26.9777 30.7434H13.3099ZM50.4082 44.4112H40.6455V40.5061C40.6455 36.6811 39.0756 33.2232 36.5452 30.7434H40.6455C41.9276 30.7434 43.1971 30.9959 44.3815 31.4866C45.566 31.9772 46.6422 32.6963 47.5488 33.6029C48.4553 34.5094 49.1745 35.5856 49.6651 36.7701C50.1557 37.9546 50.4082 39.2241 50.4082 40.5061V44.4112ZM33.8116 26.8383C32.6197 26.8389 31.4378 26.6211 30.3243 26.1959C32.5749 23.6918 33.8173 20.4424 33.8116 17.0756C33.8168 13.7085 32.5736 10.4591 30.3224 7.95525C31.66 7.44446 33.0935 7.23413 34.5215 7.33918C35.9494 7.44422 37.3368 7.86206 38.5852 8.56309C39.8336 9.26411 40.9126 10.2312 41.7456 11.3957C42.5786 12.5602 43.1453 13.8937 43.4054 15.3017C43.6656 16.7096 43.6129 18.1576 43.251 19.5429C42.8892 20.9282 42.2271 22.217 41.3116 23.3179C40.3961 24.4187 39.2497 25.3048 37.9536 25.9132C36.6574 26.5215 35.2434 26.8374 33.8116 26.8383Z" fill="#5E16EC"/>
</svg>
