<svg width="40" height="40" viewBox="0 0 40 40" fill="none" xmlns="http://www.w3.org/2000/svg">
<path fill-rule="evenodd" clip-rule="evenodd" d="M30.2751 4.60831L30.7001 4.66164C31.8234 4.81664 33.3101 5.02498 34.1517 5.86831C34.8417 6.55664 35.1067 7.67664 35.2651 8.67664L35.3584 9.31997C35.5684 10.8366 35.6234 12.8233 35.2651 15.03C34.5584 19.385 32.2401 24.5816 26.4184 28.605C26.3867 28.9183 26.3851 29.235 26.3917 29.5516L26.4084 30.025C26.4351 30.7533 26.4617 31.4816 26.2584 32.1883C25.9417 33.2883 24.8134 34.0133 23.7584 34.5333L23.2417 34.7783L22.5751 35.0716C21.3284 35.6016 19.6451 36.145 18.5901 35.0883C17.9567 34.4566 17.6967 33.53 17.4851 32.6083L17.4067 32.2633C17.3172 31.828 17.206 31.3975 17.0734 30.9733C16.9901 30.7289 16.9001 30.4816 16.8034 30.2316C16.697 30.3623 16.5841 30.4874 16.4651 30.6066C15.8901 31.1816 15.0317 31.5833 14.3251 31.865C13.5534 32.17 12.6801 32.4366 11.8717 32.6566L11.4567 32.7666L10.6617 32.965L9.94175 33.1316L9.08008 33.315L8.54175 33.42C8.27326 33.4697 7.99672 33.4533 7.73596 33.3723C7.4752 33.2913 7.23806 33.1481 7.04498 32.9551C6.85191 32.762 6.7087 32.5249 6.62771 32.2641C6.54672 32.0033 6.53037 31.7268 6.58008 31.4583L6.72341 30.74L6.98008 29.5766L7.18675 28.7266L7.34341 28.1266C7.56341 27.32 7.83008 26.4466 8.13675 25.6766C8.41675 24.9683 8.81841 24.11 9.39341 23.535L9.52675 23.4066L9.42008 23.3633C9.1352 23.2551 8.8467 23.1567 8.55508 23.0683L8.09341 22.9266C6.93675 22.5766 5.70008 22.2 4.93175 21.43C3.99841 20.4983 4.31341 19.08 4.76341 17.9L4.94675 17.4433L5.24175 16.7766L5.48675 16.26C6.00675 15.2066 6.73175 14.0783 7.83175 13.7616C8.41508 13.595 9.02175 13.585 9.63175 13.6016L9.99841 13.6133C10.4751 13.63 10.9501 13.6483 11.4151 13.6033C15.4384 7.77997 20.6351 5.46164 24.9901 4.75498C26.7371 4.46843 28.5148 4.4191 30.2751 4.60831ZM13.9217 25.7333C13.6595 25.539 13.346 25.4259 13.0201 25.4081C12.6942 25.3903 12.3702 25.4686 12.0884 25.6333L11.9051 25.7566L11.7501 25.895L11.5417 26.1583C11.1084 26.785 10.8617 27.6516 10.6701 28.4616L10.4901 29.2416L10.4051 29.5966L10.7234 29.52L11.4201 29.36C12.3834 29.135 13.4517 28.8433 14.1084 28.2516C14.3939 27.9663 14.5662 27.587 14.5931 27.1842C14.6201 26.7814 14.5 26.3825 14.2551 26.0616L14.1184 25.905L14.0784 25.8666L13.9217 25.7333ZM25.8934 14.11C25.5839 13.8004 25.2165 13.5548 24.8121 13.3872C24.4077 13.2196 23.9743 13.1333 23.5365 13.1332C23.0987 13.1331 22.6653 13.2193 22.2608 13.3867C21.8564 13.5542 21.4888 13.7997 21.1792 14.1091C20.8697 14.4186 20.6241 14.7861 20.4565 15.1905C20.2889 15.5949 20.2026 16.0283 20.2025 16.4661C20.2024 16.9038 20.2886 17.3373 20.456 17.7417C20.6235 18.1462 20.8689 18.5137 21.1784 18.8233C21.8034 19.4486 22.6512 19.7999 23.5353 19.8001C24.4194 19.8002 25.2673 19.4492 25.8926 18.8241C26.5178 18.1991 26.8692 17.3513 26.8693 16.4672C26.8695 15.5832 26.5184 14.7352 25.8934 14.11Z" fill="#5E16EC"/>
</svg>
