<svg width="393" height="393" viewBox="0 0 393 393" fill="none" xmlns="http://www.w3.org/2000/svg">
<g opacity="0.9">
<rect x="269.934" y="23.8056" width="64.7065" height="64.9816" rx="6.14836" transform="rotate(45 269.934 23.8056)" stroke="#5C15EC" stroke-width="0.874412"/>
<path d="M287.779 52.5021L280.457 62.9369C280.188 63.3223 280.02 63.7692 279.97 64.2364C279.919 64.7036 279.986 65.1761 280.166 65.6104C280.345 66.0447 280.631 66.4269 280.997 66.7217C281.363 67.0165 281.797 67.2145 282.26 67.2975L294.816 69.4991C294.893 69.5132 294.962 69.5537 295.013 69.6138C295.063 69.6739 295.09 69.7496 295.09 69.8279C295.09 69.9061 295.063 69.9818 295.013 70.0419C294.962 70.102 294.893 70.1425 294.816 70.1566L282.26 72.3582C281.797 72.4412 281.363 72.6392 280.997 72.934C280.631 73.2288 280.345 73.611 280.166 74.0453C279.986 74.4796 279.919 74.9521 279.97 75.4193C280.02 75.8865 280.188 76.3334 280.457 76.7188L287.779 87.1536C287.825 87.2179 287.846 87.2963 287.839 87.3748C287.833 87.4533 287.799 87.5269 287.743 87.5826C287.687 87.6383 287.614 87.6725 287.535 87.6793C287.457 87.686 287.378 87.6647 287.314 87.6193L276.879 80.2969C276.494 80.0279 276.047 79.8603 275.58 79.8093C275.112 79.7583 274.64 79.8257 274.206 80.0053C273.771 80.1849 273.389 80.4708 273.094 80.8368C272.799 81.2028 272.601 81.6371 272.518 82.0997L270.317 94.6557C270.303 94.7327 270.262 94.8023 270.202 94.8524C270.142 94.9025 270.066 94.9299 269.988 94.9299C269.91 94.9299 269.834 94.9025 269.774 94.8524C269.714 94.8023 269.673 94.7327 269.659 94.6557L267.458 82.0997C267.375 81.6371 267.177 81.2028 266.882 80.8368C266.587 80.4708 266.205 80.1849 265.771 80.0053C265.336 79.8257 264.864 79.7583 264.397 79.8093C263.929 79.8603 263.483 80.0279 263.097 80.2969L252.662 87.6193C252.598 87.6647 252.52 87.686 252.441 87.6793C252.363 87.6725 252.289 87.6383 252.233 87.5826C252.178 87.5269 252.143 87.4533 252.137 87.3748C252.13 87.2963 252.151 87.2179 252.197 87.1536L259.519 76.7188C259.788 76.3334 259.956 75.8865 260.007 75.4193C260.058 74.9521 259.99 74.4796 259.811 74.0453C259.631 73.611 259.345 73.2288 258.979 72.934C258.613 72.6392 258.179 72.4412 257.716 72.3582L245.145 70.1617C245.068 70.1477 244.998 70.1071 244.948 70.047C244.898 69.9869 244.871 69.9112 244.871 69.833C244.871 69.7548 244.898 69.679 244.948 69.6189C244.998 69.5589 245.068 69.5183 245.145 69.5043L257.701 67.3026C258.163 67.2197 258.598 67.0217 258.964 66.7268C259.33 66.432 259.616 66.0499 259.795 65.6156C259.975 65.1812 260.042 64.7087 259.991 64.2415C259.94 63.7743 259.773 63.3275 259.504 62.9421L252.181 52.5072C252.136 52.4429 252.115 52.3645 252.121 52.286C252.128 52.2075 252.162 52.1339 252.218 52.0782C252.274 52.0225 252.347 51.9883 252.426 51.9816C252.504 51.9749 252.583 51.9961 252.647 52.0416L263.082 59.3639C263.467 59.6329 263.914 59.8006 264.381 59.8515C264.848 59.9025 265.321 59.8351 265.755 59.6555C266.19 59.476 266.572 59.19 266.867 58.824C267.161 58.458 267.359 58.0237 267.442 57.5612L269.654 44.9949C269.668 44.9179 269.709 44.8483 269.769 44.7982C269.829 44.7481 269.905 44.7206 269.983 44.7206C270.061 44.7206 270.137 44.7481 270.197 44.7982C270.257 44.8483 270.298 44.9179 270.312 44.9949L272.513 57.5509C272.596 58.0135 272.794 58.4478 273.089 58.8138C273.384 59.1798 273.766 59.4657 274.2 59.6453C274.635 59.8248 275.107 59.8922 275.574 59.8413C276.042 59.7903 276.488 59.6226 276.874 59.3537L287.309 52.0313C287.373 51.9774 287.455 51.9494 287.538 51.953C287.622 51.9565 287.701 51.9914 287.76 52.0505C287.819 52.1097 287.854 52.189 287.858 52.2726C287.861 52.3562 287.833 52.4381 287.779 52.5021Z" fill="white"/>
</g>
<g opacity="0.4">
<rect x="214.092" y="79.6472" width="64.7065" height="64.9816" rx="6.14836" transform="rotate(45 214.092 79.6472)" stroke="#5C15EC" stroke-width="0.874412"/>
<path d="M231.938 108.345L224.615 118.779C224.346 119.165 224.179 119.612 224.128 120.079C224.077 120.546 224.144 121.019 224.324 121.453C224.503 121.887 224.789 122.269 225.155 122.564C225.521 122.859 225.956 123.057 226.418 123.14L238.974 125.342C239.051 125.356 239.121 125.396 239.171 125.456C239.221 125.516 239.248 125.592 239.248 125.67C239.248 125.748 239.221 125.824 239.171 125.884C239.121 125.944 239.051 125.985 238.974 125.999L226.418 128.201C225.956 128.284 225.521 128.482 225.155 128.776C224.789 129.071 224.503 129.453 224.324 129.888C224.144 130.322 224.077 130.795 224.128 131.262C224.179 131.729 224.346 132.176 224.615 132.561L231.938 142.996C231.983 143.06 232.004 143.139 231.998 143.217C231.991 143.296 231.957 143.369 231.901 143.425C231.845 143.481 231.772 143.515 231.693 143.522C231.615 143.528 231.536 143.507 231.472 143.462L221.037 136.139C220.652 135.87 220.205 135.703 219.738 135.652C219.271 135.601 218.798 135.668 218.364 135.848C217.929 136.027 217.547 136.313 217.252 136.679C216.958 137.045 216.76 137.479 216.677 137.942L214.475 150.498C214.461 150.575 214.42 150.645 214.36 150.695C214.3 150.745 214.225 150.772 214.146 150.772C214.068 150.772 213.992 150.745 213.932 150.695C213.872 150.645 213.832 150.575 213.818 150.498L211.616 137.942C211.533 137.479 211.335 137.045 211.04 136.679C210.745 136.313 210.363 136.027 209.929 135.848C209.495 135.668 209.022 135.601 208.555 135.652C208.088 135.703 207.641 135.87 207.255 136.139L196.821 143.462C196.756 143.507 196.678 143.528 196.599 143.522C196.521 143.515 196.447 143.481 196.392 143.425C196.336 143.369 196.302 143.296 196.295 143.217C196.288 143.139 196.309 143.06 196.355 142.996L203.677 132.561C203.946 132.176 204.114 131.729 204.165 131.262C204.216 130.795 204.148 130.322 203.969 129.888C203.789 129.453 203.503 129.071 203.137 128.776C202.771 128.482 202.337 128.284 201.874 128.201L189.303 126.004C189.226 125.99 189.156 125.949 189.106 125.889C189.056 125.829 189.029 125.754 189.029 125.675C189.029 125.597 189.056 125.521 189.106 125.461C189.156 125.401 189.226 125.361 189.303 125.347L201.859 123.145C202.322 123.062 202.756 122.864 203.122 122.569C203.488 122.274 203.774 121.892 203.953 121.458C204.133 121.024 204.2 120.551 204.149 120.084C204.098 119.617 203.931 119.17 203.662 118.784L196.339 108.35C196.294 108.285 196.273 108.207 196.279 108.128C196.286 108.05 196.32 107.976 196.376 107.921C196.432 107.865 196.505 107.831 196.584 107.824C196.662 107.817 196.741 107.839 196.805 107.884L207.24 115.206C207.625 115.475 208.072 115.643 208.539 115.694C209.007 115.745 209.479 115.678 209.913 115.498C210.348 115.318 210.73 115.032 211.025 114.666C211.32 114.3 211.518 113.866 211.6 113.404L213.812 100.837C213.826 100.76 213.867 100.691 213.927 100.641C213.987 100.59 214.063 100.563 214.141 100.563C214.219 100.563 214.295 100.59 214.355 100.641C214.415 100.691 214.456 100.76 214.47 100.837L216.672 113.393C216.754 113.856 216.952 114.29 217.247 114.656C217.542 115.022 217.924 115.308 218.359 115.488C218.793 115.667 219.265 115.735 219.733 115.684C220.2 115.633 220.647 115.465 221.032 115.196L231.467 107.874C231.531 107.82 231.613 107.792 231.696 107.795C231.78 107.799 231.859 107.834 231.918 107.893C231.978 107.952 232.012 108.031 232.016 108.115C232.02 108.199 231.992 108.281 231.938 108.345Z" fill="white"/>
</g>
<g opacity="0.7">
<rect x="158.25" y="135.489" width="64.7065" height="64.9816" rx="6.14836" transform="rotate(45 158.25 135.489)" stroke="#5C15EC" stroke-width="0.874412"/>
<path d="M176.096 164.185L168.774 174.62C168.505 175.005 168.337 175.452 168.286 175.919C168.235 176.387 168.302 176.859 168.482 177.293C168.662 177.728 168.947 178.11 169.313 178.405C169.679 178.7 170.114 178.898 170.576 178.98L183.132 181.182C183.209 181.196 183.279 181.237 183.329 181.297C183.379 181.357 183.407 181.433 183.407 181.511C183.407 181.589 183.379 181.665 183.329 181.725C183.279 181.785 183.209 181.826 183.132 181.84L170.576 184.041C170.114 184.124 169.679 184.322 169.313 184.617C168.947 184.912 168.661 185.294 168.482 185.728C168.302 186.163 168.235 186.635 168.286 187.102C168.337 187.569 168.505 188.016 168.774 188.402L176.096 198.837C176.141 198.901 176.163 198.979 176.156 199.058C176.149 199.136 176.115 199.21 176.059 199.266C176.004 199.321 175.93 199.356 175.851 199.362C175.773 199.369 175.695 199.348 175.63 199.302L165.195 191.98C164.81 191.711 164.363 191.543 163.896 191.492C163.429 191.441 162.956 191.509 162.522 191.688C162.088 191.868 161.705 192.154 161.411 192.52C161.116 192.886 160.918 193.32 160.835 193.783L158.633 206.339C158.619 206.416 158.579 206.485 158.519 206.535C158.458 206.585 158.383 206.613 158.304 206.613C158.226 206.613 158.151 206.585 158.09 206.535C158.03 206.485 157.99 206.416 157.976 206.339L155.774 193.783C155.691 193.32 155.493 192.886 155.198 192.52C154.904 192.154 154.521 191.868 154.087 191.688C153.653 191.509 153.18 191.441 152.713 191.492C152.246 191.543 151.799 191.711 151.414 191.98L140.979 199.302C140.914 199.348 140.836 199.369 140.758 199.362C140.679 199.356 140.605 199.321 140.55 199.266C140.494 199.21 140.46 199.136 140.453 199.058C140.446 198.979 140.468 198.901 140.513 198.837L147.835 188.402C148.104 188.016 148.272 187.569 148.323 187.102C148.374 186.635 148.307 186.163 148.127 185.728C147.947 185.294 147.662 184.912 147.296 184.617C146.93 184.322 146.495 184.124 146.033 184.041L133.461 181.845C133.384 181.831 133.315 181.79 133.265 181.73C133.214 181.67 133.187 181.594 133.187 181.516C133.187 181.438 133.214 181.362 133.265 181.302C133.315 181.242 133.384 181.201 133.461 181.187L146.017 178.986C146.48 178.903 146.914 178.705 147.28 178.41C147.646 178.115 147.932 177.733 148.112 177.299C148.291 176.864 148.359 176.392 148.308 175.925C148.257 175.457 148.089 175.01 147.82 174.625L140.498 164.19C140.452 164.126 140.431 164.048 140.438 163.969C140.444 163.891 140.479 163.817 140.534 163.761C140.59 163.705 140.664 163.671 140.742 163.665C140.821 163.658 140.899 163.679 140.963 163.725L151.398 171.047C151.784 171.316 152.23 171.484 152.698 171.535C153.165 171.585 153.637 171.518 154.072 171.339C154.506 171.159 154.888 170.873 155.183 170.507C155.478 170.141 155.676 169.707 155.759 169.244L157.971 156.678C157.985 156.601 158.025 156.531 158.085 156.481C158.145 156.431 158.221 156.404 158.299 156.404C158.378 156.404 158.453 156.431 158.513 156.481C158.573 156.531 158.614 156.601 158.628 156.678L160.83 169.234C160.913 169.696 161.111 170.131 161.405 170.497C161.7 170.863 162.082 171.149 162.517 171.328C162.951 171.508 163.424 171.575 163.891 171.524C164.358 171.473 164.805 171.306 165.19 171.037L175.625 163.714C175.689 163.66 175.771 163.632 175.855 163.636C175.938 163.64 176.017 163.674 176.077 163.734C176.136 163.793 176.171 163.872 176.174 163.956C176.178 164.039 176.15 164.121 176.096 164.185Z" fill="white"/>
</g>
<g opacity="0.8">
<rect x="102.409" y="191.331" width="64.7065" height="64.9816" rx="6.14836" transform="rotate(45 102.409 191.331)" stroke="#5C15EC" stroke-width="0.874412"/>
<path d="M120.255 220.027L112.932 230.462C112.663 230.847 112.496 231.294 112.445 231.761C112.394 232.228 112.461 232.701 112.641 233.135C112.82 233.57 113.106 233.952 113.472 234.247C113.838 234.541 114.272 234.739 114.735 234.822L127.291 237.024C127.368 237.038 127.438 237.079 127.488 237.139C127.538 237.199 127.565 237.275 127.565 237.353C127.565 237.431 127.538 237.507 127.488 237.567C127.438 237.627 127.368 237.667 127.291 237.681L114.735 239.883C114.272 239.966 113.838 240.164 113.472 240.459C113.106 240.754 112.82 241.136 112.641 241.57C112.461 242.004 112.394 242.477 112.445 242.944C112.496 243.411 112.663 243.858 112.932 244.244L120.255 254.678C120.3 254.743 120.321 254.821 120.315 254.9C120.308 254.978 120.274 255.052 120.218 255.108C120.162 255.163 120.089 255.197 120.01 255.204C119.932 255.211 119.853 255.19 119.789 255.144L109.354 247.822C108.969 247.553 108.522 247.385 108.055 247.334C107.587 247.283 107.115 247.351 106.681 247.53C106.246 247.71 105.864 247.996 105.569 248.362C105.275 248.728 105.077 249.162 104.994 249.625L102.792 262.181C102.778 262.258 102.737 262.327 102.677 262.377C102.617 262.427 102.541 262.455 102.463 262.455C102.385 262.455 102.309 262.427 102.249 262.377C102.189 262.327 102.148 262.258 102.134 262.181L99.9328 249.625C99.8499 249.162 99.6519 248.728 99.357 248.362C99.0622 247.996 98.6801 247.71 98.2458 247.53C97.8114 247.351 97.3389 247.283 96.8717 247.334C96.4045 247.385 95.9577 247.553 95.5723 247.822L85.1374 255.144C85.0731 255.19 84.9947 255.211 84.9162 255.204C84.8377 255.197 84.7641 255.163 84.7084 255.108C84.6527 255.052 84.6185 254.978 84.6118 254.9C84.6051 254.821 84.6263 254.743 84.6718 254.678L91.9941 244.244C92.2631 243.858 92.4308 243.411 92.4817 242.944C92.5327 242.477 92.4653 242.004 92.2857 241.57C92.1062 241.136 91.8202 240.754 91.4542 240.459C91.0882 240.164 90.654 239.966 90.1914 239.883L77.6199 237.687C77.543 237.673 77.4734 237.632 77.4233 237.572C77.3731 237.512 77.3457 237.436 77.3457 237.358C77.3457 237.28 77.3731 237.204 77.4233 237.144C77.4734 237.084 77.543 237.043 77.6199 237.029L90.1759 234.828C90.6385 234.745 91.0728 234.547 91.4388 234.252C91.8048 233.957 92.0908 233.575 92.2703 233.14C92.4499 232.706 92.5173 232.234 92.4663 231.766C92.4154 231.299 92.2477 230.852 91.9787 230.467L84.6564 220.032C84.6109 219.968 84.5897 219.889 84.5964 219.811C84.6031 219.732 84.6373 219.659 84.693 219.603C84.7487 219.547 84.8223 219.513 84.9008 219.506C84.9793 219.5 85.0577 219.521 85.122 219.566L95.5569 226.889C95.9422 227.158 96.3891 227.325 96.8563 227.376C97.3235 227.427 97.796 227.36 98.2303 227.18C98.6647 227.001 99.0468 226.715 99.3416 226.349C99.6365 225.983 99.8344 225.549 99.9174 225.086L102.129 212.52C102.143 212.443 102.184 212.373 102.244 212.323C102.304 212.273 102.38 212.246 102.458 212.246C102.536 212.246 102.612 212.273 102.672 212.323C102.732 212.373 102.773 212.443 102.787 212.52L104.988 225.076C105.071 225.538 105.269 225.973 105.564 226.339C105.859 226.705 106.241 226.991 106.675 227.17C107.11 227.35 107.582 227.417 108.05 227.366C108.517 227.315 108.964 227.148 109.349 226.879L119.784 219.556C119.848 219.502 119.93 219.474 120.013 219.478C120.097 219.481 120.176 219.516 120.235 219.575C120.295 219.635 120.329 219.714 120.333 219.797C120.336 219.881 120.309 219.963 120.255 220.027Z" fill="white"/>
</g>
<g opacity="0.4">
<rect x="46.5671" y="247.173" width="64.7065" height="64.9816" rx="6.14836" transform="rotate(45 46.5671 247.173)" stroke="#5C15EC" stroke-width="0.874412"/>
<path d="M64.4126 275.869L57.0902 286.304C56.8212 286.69 56.6535 287.136 56.6026 287.604C56.5516 288.071 56.619 288.543 56.7986 288.978C56.9781 289.412 57.2641 289.794 57.6301 290.089C57.9961 290.384 58.4304 290.582 58.893 290.665L71.449 292.866C71.526 292.88 71.5956 292.921 71.6457 292.981C71.6958 293.041 71.7232 293.117 71.7232 293.195C71.7232 293.273 71.6958 293.349 71.6457 293.409C71.5955 293.469 71.526 293.51 71.449 293.524L58.893 295.725C58.4304 295.808 57.9961 296.006 57.6301 296.301C57.2641 296.596 56.9781 296.978 56.7986 297.412C56.619 297.847 56.5516 298.319 56.6026 298.786C56.6536 299.254 56.8212 299.701 57.0902 300.086L64.4126 310.521C64.458 310.585 64.4793 310.663 64.4726 310.742C64.4658 310.82 64.4316 310.894 64.3759 310.95C64.3202 311.006 64.2466 311.04 64.1681 311.046C64.0896 311.053 64.0112 311.032 63.9469 310.986L53.5121 303.664C53.1267 303.395 52.6798 303.227 52.2126 303.176C51.7454 303.126 51.2729 303.193 50.8386 303.372C50.4043 303.552 50.0221 303.838 49.7273 304.204C49.4325 304.57 49.2345 305.004 49.1515 305.467L46.9499 318.023C46.9358 318.1 46.8952 318.169 46.8352 318.22C46.7751 318.27 46.6994 318.297 46.6211 318.297C46.5429 318.297 46.4672 318.27 46.4071 318.22C46.347 318.169 46.3065 318.1 46.2924 318.023L44.0908 305.467C44.0078 305.004 43.8098 304.57 43.515 304.204C43.2202 303.838 42.838 303.552 42.4037 303.372C41.9694 303.193 41.4969 303.126 41.0297 303.176C40.5625 303.227 40.1156 303.395 39.7302 303.664L29.2954 310.986C29.2311 311.032 29.1527 311.053 29.0742 311.046C28.9957 311.04 28.9221 311.005 28.8664 310.95C28.8107 310.894 28.7764 310.82 28.7697 310.742C28.763 310.663 28.7843 310.585 28.8297 310.521L36.1521 300.086C36.4211 299.701 36.5887 299.254 36.6397 298.786C36.6907 298.319 36.6233 297.847 36.4437 297.412C36.2641 296.978 35.9782 296.596 35.6122 296.301C35.2462 296.006 34.8119 295.808 34.3493 295.725L21.7779 293.529C21.7009 293.515 21.6313 293.474 21.5812 293.414C21.5311 293.354 21.5037 293.278 21.5037 293.2C21.5037 293.122 21.5311 293.046 21.5812 292.986C21.6313 292.926 21.7009 292.885 21.7779 292.871L34.3339 290.67C34.7965 290.587 35.2308 290.389 35.5968 290.094C35.9628 289.799 36.2487 289.417 36.4283 288.983C36.6078 288.548 36.6752 288.076 36.6243 287.609C36.5733 287.142 36.4056 286.695 36.1367 286.309L28.8143 275.874C28.7689 275.81 28.7476 275.732 28.7543 275.653C28.761 275.575 28.7953 275.501 28.851 275.445C28.9067 275.39 28.9803 275.355 29.0588 275.349C29.1373 275.342 29.2156 275.363 29.28 275.409L39.7148 282.731C40.1002 283 40.5471 283.168 41.0143 283.219C41.4815 283.27 41.954 283.202 42.3883 283.023C42.8226 282.843 43.2048 282.557 43.4996 282.191C43.7944 281.825 43.9924 281.391 44.0754 280.928L46.2873 268.362C46.3013 268.285 46.3419 268.215 46.402 268.165C46.462 268.115 46.5378 268.088 46.616 268.088C46.6942 268.088 46.77 268.115 46.83 268.165C46.8901 268.215 46.9307 268.285 46.9447 268.362L49.1464 280.918C49.2293 281.381 49.4273 281.815 49.7221 282.181C50.017 282.547 50.3991 282.833 50.8334 283.012C51.2678 283.192 51.7403 283.259 52.2075 283.208C52.6747 283.157 53.1215 282.99 53.5069 282.721L63.9417 275.398C64.0057 275.345 64.0877 275.317 64.1713 275.32C64.2549 275.324 64.3341 275.359 64.3933 275.418C64.4525 275.477 64.4873 275.556 64.4909 275.64C64.4944 275.723 64.4665 275.805 64.4126 275.869Z" fill="white"/>
</g>
<g opacity="0.8">
<rect x="346.45" y="53.9476" width="64.7065" height="64.9816" rx="6.14836" transform="rotate(45 346.45 53.9476)" stroke="#5C15EC" stroke-width="0.874412"/>
<path d="M364.296 82.6446L356.973 93.0794C356.704 93.4648 356.537 93.9116 356.486 94.3788C356.435 94.846 356.502 95.3186 356.682 95.7529C356.861 96.1872 357.147 96.5693 357.513 96.8642C357.879 97.159 358.313 97.357 358.776 97.4399L371.332 99.6416C371.409 99.6556 371.479 99.6962 371.529 99.7563C371.579 99.8163 371.606 99.8921 371.606 99.9703C371.606 100.049 371.579 100.124 371.529 100.184C371.479 100.244 371.409 100.285 371.332 100.299L358.776 102.501C358.313 102.584 357.879 102.782 357.513 103.076C357.147 103.371 356.861 103.753 356.682 104.188C356.502 104.622 356.435 105.095 356.486 105.562C356.537 106.029 356.704 106.476 356.973 106.861L364.296 117.296C364.341 117.36 364.362 117.439 364.356 117.517C364.349 117.596 364.315 117.669 364.259 117.725C364.203 117.781 364.13 117.815 364.051 117.822C363.973 117.828 363.894 117.807 363.83 117.762L353.395 110.439C353.01 110.17 352.563 110.003 352.096 109.952C351.628 109.901 351.156 109.968 350.722 110.148C350.287 110.327 349.905 110.613 349.61 110.979C349.316 111.345 349.118 111.78 349.035 112.242L346.833 124.798C346.819 124.875 346.778 124.945 346.718 124.995C346.658 125.045 346.582 125.072 346.504 125.072C346.426 125.072 346.35 125.045 346.29 124.995C346.23 124.945 346.19 124.875 346.175 124.798L343.974 112.242C343.891 111.78 343.693 111.345 343.398 110.979C343.103 110.613 342.721 110.327 342.287 110.148C341.852 109.968 341.38 109.901 340.913 109.952C340.446 110.003 339.999 110.17 339.613 110.439L329.178 117.762C329.114 117.807 329.036 117.828 328.957 117.822C328.879 117.815 328.805 117.781 328.749 117.725C328.694 117.669 328.659 117.596 328.653 117.517C328.646 117.439 328.667 117.36 328.713 117.296L336.035 106.861C336.304 106.476 336.472 106.029 336.523 105.562C336.574 105.095 336.506 104.622 336.327 104.188C336.147 103.753 335.861 103.371 335.495 103.076C335.129 102.782 334.695 102.584 334.232 102.501L321.661 100.304C321.584 100.29 321.514 100.25 321.464 100.189C321.414 100.129 321.387 100.054 321.387 99.9754C321.387 99.8972 321.414 99.8215 321.464 99.7614C321.514 99.7013 321.584 99.6608 321.661 99.6467L334.217 97.4451C334.68 97.3621 335.114 97.1641 335.48 96.8693C335.846 96.5745 336.132 96.1923 336.311 95.758C336.491 95.3237 336.558 94.8512 336.507 94.384C336.456 93.9168 336.289 93.4699 336.02 93.0845L328.697 82.6497C328.652 82.5853 328.631 82.507 328.637 82.4285C328.644 82.35 328.678 82.2764 328.734 82.2207C328.79 82.165 328.863 82.1307 328.942 82.124C329.02 82.1173 329.099 82.1386 329.163 82.184L339.598 89.5064C339.983 89.7753 340.43 89.943 340.897 89.994C341.365 90.045 341.837 89.9776 342.271 89.798C342.706 89.6184 343.088 89.3325 343.383 88.9665C343.677 88.6005 343.875 88.1662 343.958 87.7036L346.17 75.1373C346.184 75.0604 346.225 74.9908 346.285 74.9406C346.345 74.8905 346.421 74.8631 346.499 74.8631C346.577 74.8631 346.653 74.8905 346.713 74.9406C346.773 74.9908 346.814 75.0604 346.828 75.1373L349.029 87.6933C349.112 88.1559 349.31 88.5902 349.605 88.9562C349.9 89.3222 350.282 89.6082 350.716 89.7877C351.151 89.9673 351.623 90.0347 352.091 89.9837C352.558 89.9328 353.005 89.7651 353.39 89.4961L363.825 82.1738C363.889 82.1198 363.971 82.0919 364.054 82.0954C364.138 82.099 364.217 82.1338 364.276 82.193C364.336 82.2522 364.37 82.3314 364.374 82.415C364.377 82.4987 364.35 82.5806 364.296 82.6446Z" fill="white"/>
</g>
<g opacity="0.8">
<rect x="290.608" y="109.789" width="64.7065" height="64.9816" rx="6.14836" transform="rotate(45 290.608 109.789)" stroke="#5C15EC" stroke-width="0.874412"/>
<path d="M308.454 138.486L301.131 148.92C300.862 149.306 300.695 149.753 300.644 150.22C300.593 150.687 300.66 151.16 300.84 151.594C301.019 152.028 301.305 152.41 301.671 152.705C302.037 153 302.472 153.198 302.934 153.281L315.49 155.483C315.567 155.497 315.637 155.537 315.687 155.597C315.737 155.657 315.764 155.733 315.764 155.811C315.764 155.89 315.737 155.965 315.687 156.025C315.637 156.085 315.567 156.126 315.49 156.14L302.934 158.342C302.472 158.425 302.037 158.623 301.671 158.918C301.305 159.212 301.019 159.594 300.84 160.029C300.66 160.463 300.593 160.936 300.644 161.403C300.695 161.87 300.862 162.317 301.131 162.702L308.454 173.137C308.499 173.201 308.521 173.28 308.514 173.358C308.507 173.437 308.473 173.51 308.417 173.566C308.361 173.622 308.288 173.656 308.209 173.663C308.131 173.669 308.052 173.648 307.988 173.603L297.553 166.28C297.168 166.011 296.721 165.844 296.254 165.793C295.787 165.742 295.314 165.809 294.88 165.989C294.446 166.168 294.063 166.454 293.769 166.82C293.474 167.186 293.276 167.621 293.193 168.083L290.991 180.639C290.977 180.716 290.937 180.786 290.876 180.836C290.816 180.886 290.741 180.913 290.662 180.913C290.584 180.913 290.508 180.886 290.448 180.836C290.388 180.786 290.348 180.716 290.334 180.639L288.132 168.083C288.049 167.621 287.851 167.186 287.556 166.82C287.261 166.454 286.879 166.168 286.445 165.989C286.011 165.809 285.538 165.742 285.071 165.793C284.604 165.844 284.157 166.011 283.771 166.28L273.337 173.603C273.272 173.648 273.194 173.669 273.115 173.663C273.037 173.656 272.963 173.622 272.908 173.566C272.852 173.51 272.818 173.437 272.811 173.358C272.804 173.28 272.826 173.201 272.871 173.137L280.193 162.702C280.462 162.317 280.63 161.87 280.681 161.403C280.732 160.936 280.665 160.463 280.485 160.029C280.305 159.594 280.019 159.212 279.653 158.918C279.287 158.623 278.853 158.425 278.391 158.342L265.819 156.145C265.742 156.131 265.673 156.091 265.622 156.031C265.572 155.97 265.545 155.895 265.545 155.817C265.545 155.738 265.572 155.663 265.622 155.602C265.673 155.542 265.742 155.502 265.819 155.488L278.375 153.286C278.838 153.203 279.272 153.005 279.638 152.71C280.004 152.416 280.29 152.033 280.47 151.599C280.649 151.165 280.717 150.692 280.666 150.225C280.615 149.758 280.447 149.311 280.178 148.926L272.856 138.491C272.81 138.426 272.789 138.348 272.796 138.27C272.802 138.191 272.837 138.117 272.892 138.062C272.948 138.006 273.022 137.972 273.1 137.965C273.179 137.958 273.257 137.98 273.321 138.025L283.756 145.347C284.141 145.616 284.588 145.784 285.056 145.835C285.523 145.886 285.995 145.819 286.43 145.639C286.864 145.459 287.246 145.174 287.541 144.808C287.836 144.442 288.034 144.007 288.117 143.545L290.329 130.978C290.343 130.901 290.383 130.832 290.443 130.782C290.503 130.732 290.579 130.704 290.657 130.704C290.735 130.704 290.811 130.732 290.871 130.782C290.931 130.832 290.972 130.901 290.986 130.978L293.188 143.534C293.271 143.997 293.469 144.431 293.763 144.797C294.058 145.163 294.44 145.449 294.875 145.629C295.309 145.808 295.782 145.876 296.249 145.825C296.716 145.774 297.163 145.606 297.548 145.337L307.983 138.015C308.047 137.961 308.129 137.933 308.213 137.937C308.296 137.94 308.375 137.975 308.435 138.034C308.494 138.093 308.529 138.172 308.532 138.256C308.536 138.34 308.508 138.422 308.454 138.486Z" fill="white"/>
</g>
<g opacity="0.8">
<rect x="234.767" y="165.631" width="64.7065" height="64.9816" rx="6.14836" transform="rotate(45 234.767 165.631)" stroke="#5C15EC" stroke-width="0.874412"/>
<path d="M252.612 194.328L245.29 204.763C245.021 205.148 244.853 205.595 244.802 206.062C244.751 206.53 244.819 207.002 244.998 207.436C245.178 207.871 245.464 208.253 245.83 208.548C246.196 208.842 246.63 209.04 247.093 209.123L259.649 211.325C259.726 211.339 259.795 211.38 259.845 211.44C259.895 211.5 259.923 211.576 259.923 211.654C259.923 211.732 259.895 211.808 259.845 211.868C259.795 211.928 259.726 211.968 259.649 211.982L247.093 214.184C246.63 214.267 246.196 214.465 245.83 214.76C245.464 215.055 245.178 215.437 244.998 215.871C244.819 216.306 244.751 216.778 244.802 217.245C244.853 217.712 245.021 218.159 245.29 218.545L252.612 228.98C252.658 229.044 252.679 229.122 252.672 229.201C252.666 229.279 252.631 229.353 252.576 229.409C252.52 229.464 252.446 229.498 252.368 229.505C252.289 229.512 252.211 229.491 252.147 229.445L241.712 222.123C241.326 221.854 240.88 221.686 240.412 221.635C239.945 221.584 239.473 221.652 239.038 221.831C238.604 222.011 238.222 222.297 237.927 222.663C237.632 223.029 237.434 223.463 237.351 223.926L235.15 236.482C235.136 236.559 235.095 236.628 235.035 236.678C234.975 236.728 234.899 236.756 234.821 236.756C234.743 236.756 234.667 236.728 234.607 236.678C234.547 236.628 234.506 236.559 234.492 236.482L232.29 223.926C232.208 223.463 232.01 223.029 231.715 222.663C231.42 222.297 231.038 222.011 230.603 221.831C230.169 221.652 229.697 221.584 229.229 221.635C228.762 221.686 228.315 221.854 227.93 222.123L217.495 229.445C217.431 229.491 217.352 229.512 217.274 229.505C217.195 229.498 217.122 229.464 217.066 229.409C217.01 229.353 216.976 229.279 216.969 229.201C216.963 229.122 216.984 229.044 217.029 228.98L224.352 218.545C224.621 218.159 224.788 217.712 224.839 217.245C224.89 216.778 224.823 216.306 224.643 215.871C224.464 215.437 224.178 215.055 223.812 214.76C223.446 214.465 223.012 214.267 222.549 214.184L209.978 211.988C209.901 211.974 209.831 211.933 209.781 211.873C209.731 211.813 209.703 211.737 209.703 211.659C209.703 211.581 209.731 211.505 209.781 211.445C209.831 211.385 209.901 211.344 209.978 211.33L222.534 209.129C222.996 209.046 223.43 208.848 223.796 208.553C224.162 208.258 224.448 207.876 224.628 207.441C224.808 207.007 224.875 206.535 224.824 206.067C224.773 205.6 224.605 205.153 224.336 204.768L217.014 194.333C216.969 194.269 216.947 194.19 216.954 194.112C216.961 194.033 216.995 193.96 217.051 193.904C217.106 193.848 217.18 193.814 217.258 193.808C217.337 193.801 217.415 193.822 217.48 193.867L227.915 201.19C228.3 201.459 228.747 201.627 229.214 201.677C229.681 201.728 230.154 201.661 230.588 201.481C231.022 201.302 231.404 201.016 231.699 200.65C231.994 200.284 232.192 199.85 232.275 199.387L234.487 186.821C234.501 186.744 234.542 186.674 234.602 186.624C234.662 186.574 234.737 186.547 234.816 186.547C234.894 186.547 234.97 186.574 235.03 186.624C235.09 186.674 235.13 186.744 235.144 186.821L237.346 199.377C237.429 199.839 237.627 200.274 237.922 200.64C238.217 201.006 238.599 201.292 239.033 201.471C239.467 201.651 239.94 201.718 240.407 201.667C240.874 201.616 241.321 201.449 241.707 201.18L252.141 193.857C252.205 193.803 252.287 193.775 252.371 193.779C252.455 193.782 252.534 193.817 252.593 193.876C252.652 193.936 252.687 194.015 252.691 194.099C252.694 194.182 252.666 194.264 252.612 194.328Z" fill="white"/>
</g>
<g opacity="0.8">
<rect x="178.925" y="221.473" width="64.7065" height="64.9816" rx="6.14836" transform="rotate(45 178.925 221.473)" stroke="#5C15EC" stroke-width="0.874412"/>
<path d="M196.77 250.17L189.448 260.605C189.179 260.99 189.011 261.437 188.96 261.904C188.909 262.371 188.977 262.844 189.156 263.278C189.336 263.712 189.622 264.095 189.988 264.389C190.354 264.684 190.788 264.882 191.251 264.965L203.807 267.167C203.884 267.181 203.953 267.221 204.003 267.282C204.053 267.342 204.081 267.417 204.081 267.496C204.081 267.574 204.053 267.65 204.003 267.71C203.953 267.77 203.884 267.81 203.807 267.824L191.251 270.026C190.788 270.109 190.354 270.307 189.988 270.602C189.622 270.897 189.336 271.279 189.156 271.713C188.977 272.147 188.909 272.62 188.96 273.087C189.011 273.554 189.179 274.001 189.448 274.386L196.77 284.821C196.816 284.886 196.837 284.964 196.83 285.043C196.824 285.121 196.789 285.195 196.734 285.25C196.678 285.306 196.604 285.34 196.526 285.347C196.447 285.354 196.369 285.332 196.305 285.287L185.87 277.965C185.484 277.696 185.037 277.528 184.57 277.477C184.103 277.426 183.631 277.493 183.196 277.673C182.762 277.853 182.38 278.139 182.085 278.505C181.79 278.871 181.592 279.305 181.509 279.767L179.308 292.323C179.293 292.4 179.253 292.47 179.193 292.52C179.133 292.57 179.057 292.598 178.979 292.598C178.901 292.598 178.825 292.57 178.765 292.52C178.705 292.47 178.664 292.4 178.65 292.323L176.448 279.767C176.365 279.305 176.167 278.871 175.873 278.505C175.578 278.139 175.196 277.853 174.761 277.673C174.327 277.493 173.855 277.426 173.387 277.477C172.92 277.528 172.473 277.696 172.088 277.965L161.653 285.287C161.589 285.332 161.51 285.354 161.432 285.347C161.353 285.34 161.28 285.306 161.224 285.25C161.168 285.195 161.134 285.121 161.127 285.043C161.121 284.964 161.142 284.886 161.187 284.821L168.51 274.386C168.779 274.001 168.946 273.554 168.997 273.087C169.048 272.62 168.981 272.147 168.801 271.713C168.622 271.279 168.336 270.897 167.97 270.602C167.604 270.307 167.17 270.109 166.707 270.026L154.136 267.829C154.059 267.815 153.989 267.775 153.939 267.715C153.889 267.655 153.861 267.579 153.861 267.501C153.861 267.422 153.889 267.347 153.939 267.287C153.989 267.227 154.059 267.186 154.136 267.172L166.692 264.97C167.154 264.887 167.588 264.689 167.954 264.395C168.32 264.1 168.606 263.718 168.786 263.283C168.966 262.849 169.033 262.376 168.982 261.909C168.931 261.442 168.763 260.995 168.494 260.61L161.172 250.175C161.127 250.111 161.105 250.032 161.112 249.954C161.119 249.875 161.153 249.802 161.209 249.746C161.264 249.69 161.338 249.656 161.416 249.649C161.495 249.643 161.573 249.664 161.638 249.709L172.072 257.032C172.458 257.301 172.905 257.468 173.372 257.519C173.839 257.57 174.312 257.503 174.746 257.323C175.18 257.144 175.562 256.858 175.857 256.492C176.152 256.126 176.35 255.691 176.433 255.229L178.645 242.663C178.659 242.586 178.7 242.516 178.76 242.466C178.82 242.416 178.895 242.388 178.974 242.388C179.052 242.388 179.128 242.416 179.188 242.466C179.248 242.516 179.288 242.586 179.302 242.663L181.504 255.219C181.587 255.681 181.785 256.115 182.08 256.481C182.375 256.847 182.757 257.133 183.191 257.313C183.625 257.493 184.098 257.56 184.565 257.509C185.032 257.458 185.479 257.29 185.865 257.021L196.299 249.699C196.363 249.645 196.445 249.617 196.529 249.621C196.613 249.624 196.692 249.659 196.751 249.718C196.81 249.777 196.845 249.857 196.849 249.94C196.852 250.024 196.824 250.106 196.77 250.17Z" fill="white"/>
</g>
<g opacity="0.8">
<rect x="123.083" y="277.315" width="64.7065" height="64.9816" rx="6.14836" transform="rotate(45 123.083 277.315)" stroke="#5C15EC" stroke-width="0.874412"/>
<path d="M140.928 306.011L133.606 316.446C133.337 316.831 133.169 317.278 133.118 317.745C133.067 318.213 133.135 318.685 133.314 319.119C133.494 319.554 133.78 319.936 134.146 320.231C134.512 320.525 134.946 320.723 135.409 320.806L147.965 323.008C148.042 323.022 148.111 323.063 148.162 323.123C148.212 323.183 148.239 323.259 148.239 323.337C148.239 323.415 148.212 323.491 148.162 323.551C148.111 323.611 148.042 323.651 147.965 323.665L135.409 325.867C134.946 325.95 134.512 326.148 134.146 326.443C133.78 326.738 133.494 327.12 133.314 327.554C133.135 327.989 133.068 328.461 133.118 328.928C133.169 329.395 133.337 329.842 133.606 330.228L140.928 340.662C140.974 340.727 140.995 340.805 140.988 340.884C140.982 340.962 140.947 341.036 140.892 341.092C140.836 341.147 140.762 341.181 140.684 341.188C140.605 341.195 140.527 341.174 140.463 341.128L130.028 333.806C129.643 333.537 129.196 333.369 128.728 333.318C128.261 333.267 127.789 333.335 127.354 333.514C126.92 333.694 126.538 333.98 126.243 334.346C125.948 334.712 125.75 335.146 125.667 335.609L123.466 348.165C123.452 348.242 123.411 348.311 123.351 348.361C123.291 348.411 123.215 348.439 123.137 348.439C123.059 348.439 122.983 348.411 122.923 348.361C122.863 348.311 122.822 348.242 122.808 348.165L120.607 335.609C120.524 335.146 120.326 334.712 120.031 334.346C119.736 333.98 119.354 333.694 118.92 333.514C118.485 333.335 118.013 333.267 117.546 333.318C117.078 333.369 116.631 333.537 116.246 333.806L105.811 341.128C105.747 341.174 105.669 341.195 105.59 341.188C105.512 341.181 105.438 341.147 105.382 341.092C105.327 341.036 105.292 340.962 105.286 340.884C105.279 340.805 105.3 340.727 105.346 340.662L112.668 330.228C112.937 329.842 113.105 329.395 113.156 328.928C113.207 328.461 113.139 327.989 112.96 327.554C112.78 327.12 112.494 326.738 112.128 326.443C111.762 326.148 111.328 325.95 110.865 325.867L98.2938 323.671C98.2168 323.657 98.1472 323.616 98.0971 323.556C98.047 323.496 98.0195 323.42 98.0195 323.342C98.0195 323.264 98.047 323.188 98.0971 323.128C98.1472 323.068 98.2168 323.027 98.2938 323.013L110.85 320.812C111.312 320.729 111.747 320.531 112.113 320.236C112.479 319.941 112.765 319.559 112.944 319.124C113.124 318.69 113.191 318.218 113.14 317.75C113.089 317.283 112.922 316.836 112.653 316.451L105.33 306.016C105.285 305.952 105.263 305.873 105.27 305.795C105.277 305.716 105.311 305.643 105.367 305.587C105.423 305.531 105.496 305.497 105.575 305.49C105.653 305.484 105.732 305.505 105.796 305.55L116.231 312.873C116.616 313.142 117.063 313.309 117.53 313.36C117.997 313.411 118.47 313.344 118.904 313.164C119.338 312.985 119.721 312.699 120.015 312.333C120.31 311.967 120.508 311.533 120.591 311.07L122.803 298.504C122.817 298.427 122.858 298.357 122.918 298.307C122.978 298.257 123.054 298.23 123.132 298.23C123.21 298.23 123.286 298.257 123.346 298.307C123.406 298.357 123.447 298.427 123.461 298.504L125.662 311.06C125.745 311.522 125.943 311.957 126.238 312.323C126.533 312.689 126.915 312.975 127.349 313.154C127.784 313.334 128.256 313.401 128.723 313.35C129.191 313.299 129.637 313.132 130.023 312.863L140.458 305.54C140.522 305.486 140.604 305.458 140.687 305.462C140.771 305.465 140.85 305.5 140.909 305.559C140.968 305.619 141.003 305.698 141.007 305.781C141.01 305.865 140.982 305.947 140.928 306.011Z" fill="white"/>
</g>
</svg>
