<svg width="82" height="20" viewBox="0 0 82 20" fill="none" xmlns="http://www.w3.org/2000/svg">
<rect x="0.266357" y="0.333374" width="18.8964" height="18.9757" rx="1.89756" fill="white"/>
<path d="M9.87482 2.67012L10.509 6.28805C10.5327 6.42137 10.5896 6.54658 10.6744 6.65216C10.7592 6.75773 10.8692 6.84027 10.9943 6.89217C11.1193 6.94408 11.2555 6.96368 11.3901 6.94918C11.5247 6.93468 11.6536 6.88653 11.7647 6.80918L14.7715 4.69954C14.7901 4.68671 14.8125 4.6808 14.835 4.68283C14.8574 4.68486 14.8784 4.6947 14.8944 4.71064C14.9103 4.72657 14.9201 4.7476 14.9222 4.77005C14.9242 4.7925 14.9183 4.81494 14.9055 4.83348L12.7958 7.84029C12.7185 7.95144 12.6703 8.08026 12.6558 8.2149C12.6413 8.34954 12.6609 8.48566 12.7128 8.61073C12.7647 8.73581 12.8473 8.84581 12.9528 8.93062C13.0584 9.01542 13.1836 9.07231 13.317 9.09603L16.9349 9.73018C16.9573 9.73403 16.9775 9.74566 16.9922 9.76302C17.0068 9.78038 17.0148 9.80235 17.0148 9.82506C17.0148 9.84776 17.0068 9.86973 16.9922 9.88709C16.9775 9.90445 16.9573 9.91608 16.9349 9.91993L13.317 10.5541C13.1836 10.5778 13.0584 10.6347 12.9528 10.7195C12.8473 10.8043 12.7647 10.9143 12.7128 11.0394C12.6609 11.1645 12.6413 11.3006 12.6558 11.4352C12.6703 11.5699 12.7185 11.6987 12.7958 11.8098L14.9055 14.8166C14.9183 14.8352 14.9242 14.8576 14.9222 14.8801C14.9201 14.9025 14.9103 14.9235 14.8944 14.9395C14.8784 14.9554 14.8574 14.9653 14.835 14.9673C14.8125 14.9693 14.7901 14.9634 14.7715 14.9506L11.7647 12.8409C11.6536 12.7636 11.5247 12.7154 11.3901 12.7009C11.2555 12.6864 11.1193 12.706 10.9943 12.7579C10.8692 12.8098 10.7592 12.8924 10.6744 12.998C10.5896 13.1035 10.5327 13.2287 10.509 13.3621L9.87482 16.98C9.87097 17.0024 9.85934 17.0227 9.84198 17.0373C9.82462 17.0519 9.80265 17.0599 9.77994 17.0599C9.75724 17.0599 9.73527 17.0519 9.71791 17.0373C9.70055 17.0227 9.68892 17.0024 9.68507 16.98L9.05092 13.3621C9.0272 13.2287 8.97031 13.1035 8.88551 12.998C8.8007 12.8924 8.6907 12.8098 8.56562 12.7579C8.44055 12.706 8.30443 12.6864 8.16979 12.7009C8.03515 12.7154 7.90632 12.7636 7.79517 12.8409L4.78628 14.9548C4.76774 14.9676 4.74529 14.9735 4.72284 14.9715C4.70039 14.9694 4.67937 14.9596 4.66343 14.9437C4.64749 14.9277 4.63765 14.9067 4.63562 14.8843C4.6336 14.8618 4.63951 14.8394 4.65233 14.8208L6.76198 11.814C6.83933 11.7029 6.88747 11.574 6.90197 11.4394C6.91648 11.3048 6.89687 11.1686 6.84497 11.0436C6.79306 10.9185 6.71052 10.8085 6.60495 10.7237C6.49938 10.6389 6.37417 10.582 6.24084 10.5583L2.62291 9.92412C2.60054 9.92027 2.58025 9.90864 2.56562 9.89128C2.55099 9.87392 2.54297 9.85194 2.54297 9.82924C2.54297 9.80654 2.55099 9.78457 2.56562 9.76721C2.58025 9.74985 2.60054 9.73821 2.62291 9.73436L6.24084 9.10021C6.37417 9.07649 6.49938 9.01961 6.60495 8.9348C6.71052 8.85 6.79306 8.73999 6.84497 8.61492C6.89687 8.48985 6.91648 8.35372 6.90197 8.21909C6.88747 8.08445 6.83933 7.95562 6.76198 7.84447L4.65233 4.83348C4.63951 4.81494 4.6336 4.7925 4.63562 4.77005C4.63765 4.7476 4.64749 4.72657 4.66343 4.71064C4.67937 4.6947 4.70039 4.68486 4.72284 4.68283C4.74529 4.6808 4.76774 4.68671 4.78628 4.69954L7.79308 6.80918C7.90423 6.88653 8.03306 6.93468 8.16769 6.94918C8.30233 6.96368 8.43846 6.94408 8.56353 6.89217C8.6886 6.84027 8.79861 6.75773 8.88341 6.65216C8.96822 6.54658 9.0251 6.42137 9.04882 6.28805L9.68297 2.67012C9.68502 2.64609 9.69602 2.6237 9.71378 2.60739C9.73154 2.59108 9.75478 2.58203 9.7789 2.58203C9.80301 2.58203 9.82625 2.59108 9.84401 2.60739C9.86178 2.6237 9.87277 2.64609 9.87482 2.67012Z" fill="#5C15EC"/>
<path d="M30.6764 15.0826H28.8128V7.23727C28.8128 7.22424 28.8128 7.22424 28.7998 7.2112C28.7737 7.18514 28.7607 7.17211 28.7476 7.17211H26.6494V5.30851H32.8658V7.17211H30.7546L30.6764 7.23727V15.0826ZM35.6463 13.5709C36.2979 13.5709 36.8062 13.3624 37.4057 13.0496L38.1224 14.3137C37.2493 14.9393 36.5456 15.1869 35.4769 15.1869C33.5221 15.1869 32.1016 13.7664 32.1016 11.8116C32.1016 9.96099 33.5351 8.47533 35.3857 8.47533C37.3275 8.47533 38.3701 9.80461 38.3701 11.6812C38.3701 11.9549 38.357 12.1634 38.331 12.4241H34.0694C34.0434 12.4241 34.0303 12.4501 34.0303 12.4892C34.2258 13.1278 34.8514 13.5709 35.6463 13.5709ZM35.3205 10.0262C34.9687 10.0262 34.6168 10.1956 34.3822 10.4302C34.1216 10.6908 34.0043 10.9905 34.0043 11.0818C34.0043 11.1078 34.0173 11.1209 34.0564 11.1209H36.5195C36.5586 11.1209 36.5716 11.1078 36.5716 11.0948C36.5716 10.9123 36.4934 10.5865 36.2849 10.378C36.0764 10.1695 35.8027 10.0262 35.3205 10.0262ZM42.5169 8.46229C43.6507 8.46229 44.7585 9.12694 45.2798 9.93493L43.9635 10.9123C43.6377 10.6256 43.3119 10.2347 42.543 10.2347C41.6568 10.2347 40.9531 10.9384 40.9531 11.8116C40.9531 12.6978 41.6568 13.4015 42.543 13.4015C43.1555 13.4015 43.5465 13.1148 43.9505 12.5544L45.5013 13.3363C44.9279 14.431 43.8202 15.1869 42.5169 15.1869C40.6403 15.1869 39.1416 13.6882 39.1416 11.8116C39.1416 9.96099 40.6403 8.46229 42.5169 8.46229ZM48.2731 5.94708V8.69687C48.625 8.55352 48.9899 8.46229 49.3939 8.46229C51.2314 8.46229 52.3 9.50487 52.3 11.3424V15.0826H50.5277V11.3685C50.5277 10.7429 50.0194 10.2347 49.3939 10.2347C48.7683 10.2347 48.2601 10.7429 48.2601 11.3685V15.0826H46.5007V5.94708H48.2731ZM61.386 15.0826H59.5224V7.23727C59.5224 7.22424 59.5224 7.22424 59.5094 7.2112C59.4833 7.18514 59.4703 7.17211 59.4572 7.17211H57.3591V5.30851H63.5754V7.17211H61.4642L61.386 7.23727V15.0826ZM64.5445 11.8246C64.5445 12.7368 65.2482 13.4406 66.1474 13.4406C67.0467 13.4406 67.7504 12.7368 67.7504 11.8246C67.7504 10.9123 67.0467 10.2086 66.1474 10.2086C65.2482 10.2086 64.5445 10.9123 64.5445 11.8246ZM67.9068 8.56655H69.5228V15.0826H67.9068V14.7047C67.3855 15.0305 66.786 15.1869 66.1474 15.1869C64.3099 15.1869 62.7851 13.6621 62.7851 11.8246C62.7851 9.98706 64.3099 8.46229 66.1474 8.46229C66.786 8.46229 67.3985 8.64474 67.9068 8.95752V8.56655ZM70.8088 15.0826V5.96012H72.5812V15.0826H70.8088ZM75.6483 5.29547V11.186C75.6483 11.2121 75.6483 11.2251 75.6613 11.2251C75.6744 11.2251 75.6874 11.2121 75.7004 11.1991L77.3555 8.56655H79.2973L77.3164 11.7334C77.3034 11.7725 77.2904 11.7855 77.2904 11.7985C77.2904 11.8116 77.3034 11.8376 77.3164 11.8767L79.3364 15.0826H77.3425C76.6127 13.9228 76.2087 13.2451 75.9611 12.8672C75.8177 12.6456 75.7265 12.4892 75.6744 12.398C75.6613 12.398 75.6483 12.4241 75.6483 12.4632V15.0826H73.8759V5.29547H75.6483Z" fill="white"/>
</svg>
