<svg width="29" height="28" viewBox="0 0 29 28" fill="none" xmlns="http://www.w3.org/2000/svg">
<path d="M24.0962 7.80672C24.0962 6.97599 23.7662 6.17929 23.1788 5.59188C22.5914 5.00446 21.7947 4.67446 20.964 4.67446H20.1809V3.91342C20.1809 3.49203 19.8569 3.13035 19.4355 3.10931C19.3297 3.1042 19.2239 3.12065 19.1245 3.15765C19.0252 3.19465 18.9344 3.25144 18.8577 3.32456C18.7809 3.39769 18.7198 3.48563 18.6781 3.58306C18.6363 3.6805 18.6148 3.78539 18.6148 3.89139V4.67446H7.65187V3.91342C7.65187 3.49203 7.32788 3.13035 6.90649 3.10931C6.80061 3.1042 6.6948 3.12065 6.59547 3.15765C6.49613 3.19465 6.40535 3.25144 6.32861 3.32456C6.25187 3.39769 6.19077 3.48563 6.14903 3.58306C6.10728 3.6805 6.08575 3.78539 6.08574 3.89139V4.67446H5.30267C4.47195 4.67446 3.67524 5.00446 3.08783 5.59188C2.50042 6.17929 2.17041 6.97599 2.17041 7.80672V8.39402C2.17041 8.44594 2.19104 8.49574 2.22775 8.53245C2.26446 8.56916 2.31426 8.58979 2.36618 8.58979H23.9005C23.9524 8.58979 24.0022 8.56916 24.0389 8.53245C24.0756 8.49574 24.0962 8.44594 24.0962 8.39402V7.80672ZM2.17041 21.9019C2.17041 22.7326 2.50042 23.5293 3.08783 24.1167C3.67524 24.7042 4.47195 25.0342 5.30267 25.0342H20.964C21.7947 25.0342 22.5914 24.7042 23.1788 24.1167C23.7662 23.5293 24.0962 22.7326 24.0962 21.9019V10.3027C24.0962 10.2638 24.0808 10.2265 24.0532 10.1989C24.0257 10.1714 23.9884 10.1559 23.9494 10.1559H2.31723C2.27829 10.1559 2.24095 10.1714 2.21341 10.1989C2.18588 10.2265 2.17041 10.2638 2.17041 10.3027V21.9019ZM19.0063 11.722C19.2386 11.722 19.4657 11.7909 19.6589 11.92C19.8521 12.0491 20.0026 12.2325 20.0915 12.4471C20.1804 12.6618 20.2037 12.898 20.1584 13.1258C20.113 13.3537 20.0012 13.5629 19.8369 13.7272C19.6726 13.8915 19.4633 14.0034 19.2355 14.0487C19.0076 14.094 18.7715 14.0707 18.5568 13.9818C18.3422 13.8929 18.1587 13.7424 18.0297 13.5492C17.9006 13.3561 17.8317 13.129 17.8317 12.8966C17.8317 12.5851 17.9555 12.2864 18.1758 12.0661C18.396 11.8458 18.6948 11.722 19.0063 11.722ZM19.0063 15.6374C19.2386 15.6374 19.4657 15.7063 19.6589 15.8353C19.8521 15.9644 20.0026 16.1478 20.0915 16.3625C20.1804 16.5771 20.2037 16.8133 20.1584 17.0411C20.113 17.269 20.0012 17.4783 19.8369 17.6425C19.6726 17.8068 19.4633 17.9187 19.2355 17.964C19.0076 18.0093 18.7715 17.9861 18.5568 17.8972C18.3422 17.8083 18.1587 17.6577 18.0297 17.4645C17.9006 17.2714 17.8317 17.0443 17.8317 16.812C17.8317 16.5005 17.9555 16.2017 18.1758 15.9814C18.396 15.7611 18.6948 15.6374 19.0063 15.6374ZM15.091 11.722C15.3233 11.722 15.5504 11.7909 15.7436 11.92C15.9367 12.0491 16.0873 12.2325 16.1762 12.4471C16.2651 12.6618 16.2883 12.898 16.243 13.1258C16.1977 13.3537 16.0858 13.5629 15.9216 13.7272C15.7573 13.8915 15.548 14.0034 15.3201 14.0487C15.0923 14.094 14.8561 14.0707 14.6415 13.9818C14.4269 13.8929 14.2434 13.7424 14.1144 13.5492C13.9853 13.3561 13.9164 13.129 13.9164 12.8966C13.9164 12.5851 14.0401 12.2864 14.2604 12.0661C14.4807 11.8458 14.7795 11.722 15.091 11.722ZM15.091 15.6374C15.3233 15.6374 15.5504 15.7063 15.7436 15.8353C15.9367 15.9644 16.0873 16.1478 16.1762 16.3625C16.2651 16.5771 16.2883 16.8133 16.243 17.0411C16.1977 17.269 16.0858 17.4783 15.9216 17.6425C15.7573 17.8068 15.548 17.9187 15.3201 17.964C15.0923 18.0093 14.8561 17.9861 14.6415 17.8972C14.4269 17.8083 14.2434 17.6577 14.1144 17.4645C13.9853 17.2714 13.9164 17.0443 13.9164 16.812C13.9164 16.5005 14.0401 16.2017 14.2604 15.9814C14.4807 15.7611 14.7795 15.6374 15.091 15.6374ZM15.091 19.5527C15.3233 19.5527 15.5504 19.6216 15.7436 19.7507C15.9367 19.8797 16.0873 20.0632 16.1762 20.2778C16.2651 20.4924 16.2883 20.7286 16.243 20.9565C16.1977 21.1843 16.0858 21.3936 15.9216 21.5579C15.7573 21.7221 15.548 21.834 15.3201 21.8793C15.0923 21.9247 14.8561 21.9014 14.6415 21.8125C14.4269 21.7236 14.2434 21.573 14.1144 21.3799C13.9853 21.1867 13.9164 20.9596 13.9164 20.7273C13.9164 20.4158 14.0401 20.117 14.2604 19.8967C14.4807 19.6765 14.7795 19.5527 15.091 19.5527ZM11.1757 15.6374C11.408 15.6374 11.6351 15.7063 11.8282 15.8353C12.0214 15.9644 12.172 16.1478 12.2609 16.3625C12.3498 16.5771 12.373 16.8133 12.3277 17.0411C12.2824 17.269 12.1705 17.4783 12.0062 17.6425C11.842 17.8068 11.6327 17.9187 11.4048 17.964C11.177 18.0093 10.9408 17.9861 10.7262 17.8972C10.5115 17.8083 10.3281 17.6577 10.199 17.4645C10.07 17.2714 10.0011 17.0443 10.0011 16.812C10.0011 16.5005 10.1248 16.2017 10.3451 15.9814C10.5654 15.7611 10.8641 15.6374 11.1757 15.6374ZM11.1757 19.5527C11.408 19.5527 11.6351 19.6216 11.8282 19.7507C12.0214 19.8797 12.172 20.0632 12.2609 20.2778C12.3498 20.4924 12.373 20.7286 12.3277 20.9565C12.2824 21.1843 12.1705 21.3936 12.0062 21.5579C11.842 21.7221 11.6327 21.834 11.4048 21.8793C11.177 21.9247 10.9408 21.9014 10.7262 21.8125C10.5115 21.7236 10.3281 21.573 10.199 21.3799C10.07 21.1867 10.0011 20.9596 10.0011 20.7273C10.0011 20.4158 10.1248 20.117 10.3451 19.8967C10.5654 19.6765 10.8641 19.5527 11.1757 19.5527ZM7.26034 15.6374C7.49265 15.6374 7.71975 15.7063 7.91291 15.8353C8.10607 15.9644 8.25662 16.1478 8.34552 16.3625C8.43443 16.5771 8.45769 16.8133 8.41237 17.0411C8.36704 17.269 8.25517 17.4783 8.0909 17.6425C7.92663 17.8068 7.71734 17.9187 7.48949 17.964C7.26164 18.0093 7.02547 17.9861 6.81084 17.8972C6.59621 17.8083 6.41276 17.6577 6.28369 17.4645C6.15463 17.2714 6.08574 17.0443 6.08574 16.812C6.08574 16.5005 6.20949 16.2017 6.42977 15.9814C6.65005 15.7611 6.94881 15.6374 7.26034 15.6374ZM7.26034 19.5527C7.49265 19.5527 7.71975 19.6216 7.91291 19.7507C8.10607 19.8797 8.25662 20.0632 8.34552 20.2778C8.43443 20.4924 8.45769 20.7286 8.41237 20.9565C8.36704 21.1843 8.25517 21.3936 8.0909 21.5579C7.92663 21.7221 7.71734 21.834 7.48949 21.8793C7.26164 21.9247 7.02547 21.9014 6.81084 21.8125C6.59621 21.7236 6.41276 21.573 6.28369 21.3799C6.15463 21.1867 6.08574 20.9596 6.08574 20.7273C6.08574 20.4158 6.20949 20.117 6.42977 19.8967C6.65005 19.6765 6.94881 19.5527 7.26034 19.5527Z" fill="#9363F2"/>
</svg>
