<svg width="42" height="43" viewBox="0 0 42 43" fill="none" xmlns="http://www.w3.org/2000/svg">
<path fill-rule="evenodd" clip-rule="evenodd" d="M30.6702 6.41322L31.0825 6.46495C32.1721 6.6153 33.6142 6.81738 34.4306 7.63542C35.0999 8.3031 35.357 9.3895 35.5105 10.3595L35.6011 10.9835C35.8048 12.4547 35.8581 14.3818 35.5105 16.5222C34.8251 20.7466 32.5763 25.7874 26.9293 29.69C26.8986 29.9939 26.8969 30.3011 26.9034 30.6083L26.9196 31.0674C26.9454 31.7739 26.9713 32.4804 26.7741 33.1658C26.4669 34.2328 25.3724 34.9361 24.3491 35.4405L23.8479 35.6781L23.2012 35.9627C21.992 36.4768 20.3591 37.0038 19.3358 35.9788C18.7215 35.3661 18.4693 34.4672 18.2639 33.5732L18.188 33.2386C18.1011 32.8163 17.9932 32.3987 17.8646 31.9873C17.7838 31.7502 17.6965 31.5104 17.6027 31.2679C17.4995 31.3946 17.39 31.516 17.2745 31.6316C16.7168 32.1894 15.8842 32.579 15.1987 32.8522C14.4502 33.148 13.6031 33.4067 12.819 33.6201L12.4165 33.7268L11.6453 33.9192L10.9469 34.0809L10.1111 34.2587L9.5889 34.3605C9.32847 34.4088 9.06022 34.3929 8.80729 34.3143C8.55435 34.2358 8.32432 34.0969 8.13704 33.9096C7.94976 33.7223 7.81085 33.4923 7.73228 33.2393C7.65372 32.9864 7.63786 32.7181 7.68608 32.4577L7.82512 31.7609L8.07408 30.6325L8.27455 29.808L8.42652 29.226C8.63992 28.4435 8.89858 27.5964 9.19605 26.8495C9.46765 26.1624 9.85727 25.3298 10.415 24.7721L10.5444 24.6476L10.4409 24.6056C10.1646 24.5006 9.88471 24.4052 9.60183 24.3194L9.15402 24.182C8.03205 23.8425 6.83248 23.4771 6.0872 22.7302C5.18187 21.8265 5.48742 20.4507 5.92392 19.3061L6.10175 18.8632L6.3879 18.2165L6.62555 17.7153C7.12995 16.6936 7.8332 15.5991 8.9002 15.292C9.46603 15.1303 10.0545 15.1206 10.6462 15.1368L11.0019 15.1481C11.4642 15.1642 11.925 15.182 12.376 15.1384C16.2787 9.48973 21.3194 7.24095 25.5438 6.55548C27.2384 6.27754 28.9628 6.22968 30.6702 6.41322ZM14.8075 26.9045C14.5531 26.7159 14.249 26.6063 13.9329 26.589C13.6168 26.5718 13.3025 26.6477 13.0292 26.8075L12.8513 26.9271L12.701 27.0613L12.4989 27.3167C12.0786 27.9246 11.8393 28.7653 11.6534 29.551L11.4788 30.3076L11.3963 30.6519L11.7051 30.5775L12.3809 30.4223C13.3153 30.2041 14.3516 29.9212 14.9886 29.3473C15.2655 29.0704 15.4326 28.7025 15.4588 28.3118C15.4849 27.9211 15.3684 27.5342 15.1308 27.223L14.9983 27.071L14.9595 27.0338L14.8075 26.9045ZM26.42 15.6298C26.1198 15.3295 25.7634 15.0913 25.3711 14.9287C24.9789 14.7662 24.5584 14.6825 24.1338 14.6824C23.7092 14.6823 23.2887 14.7659 22.8964 14.9283C22.5041 15.0907 22.1476 15.3288 21.8473 15.629C21.547 15.9292 21.3087 16.2856 21.1462 16.6779C20.9836 17.0702 20.8999 17.4906 20.8998 17.9152C20.8998 18.3398 20.9833 18.7603 21.1457 19.1526C21.3082 19.545 21.5463 19.9015 21.8465 20.2018C22.4527 20.8083 23.2751 21.1491 24.1327 21.1492C24.9902 21.1494 25.8127 20.8089 26.4192 20.2026C27.0257 19.5963 27.3665 18.7739 27.3667 17.9164C27.3668 17.0588 27.0263 16.2363 26.42 15.6298Z" fill="#9363F2"/>
</svg>
