<svg width="40" height="40" viewBox="0 0 40 40" fill="none" xmlns="http://www.w3.org/2000/svg">
<path d="M30.9375 5.78125C30.9375 5.17695 30.448 4.6875 29.8438 4.6875H25.4688C24.8645 4.6875 24.375 5.17695 24.375 5.78125V9.0625H30.9375V5.78125ZM6.86885 13.4368C6.69727 19.8523 2.73652 21.2455 2.5 30.1172V33.125C2.5 34.3329 3.47959 35.3125 4.6875 35.3125H11.25C12.4579 35.3125 13.4375 34.3329 13.4375 33.125V22.1875H15.625V11.25H9.05156C7.84639 11.25 6.90166 12.2323 6.86885 13.4368ZM33.1312 13.4368C33.0983 12.2323 32.1536 11.25 30.9484 11.25H24.375V22.1875H26.5625V33.125C26.5625 34.3329 27.5421 35.3125 28.75 35.3125H35.3125C36.5204 35.3125 37.5 34.3329 37.5 33.125V30.1172C37.2635 21.2455 33.3027 19.8523 33.1312 13.4368ZM14.5312 4.6875H10.1562C9.55195 4.6875 9.0625 5.17695 9.0625 5.78125V9.0625H15.625V5.78125C15.625 5.17695 15.1355 4.6875 14.5312 4.6875ZM17.8125 22.1875H22.1875V11.25H17.8125V22.1875Z" fill="#5E16EC"/>
</svg>
