<svg width="22" height="22" viewBox="0 0 22 22" fill="none" xmlns="http://www.w3.org/2000/svg">
<path opacity="0.6" d="M2.71094 10.9458C2.71094 6.85286 2.71094 4.8064 3.98205 3.53442C5.2549 2.26331 7.30049 2.26331 11.3934 2.26331C15.4863 2.26331 17.5328 2.26331 18.8039 3.53442C20.0759 4.80727 20.0759 6.85286 20.0759 10.9458C20.0759 15.0387 20.0759 17.0851 18.8039 18.3563C17.5336 19.6282 15.4863 19.6282 11.3934 19.6282C7.30049 19.6282 5.25403 19.6282 3.98205 18.3563C2.71094 17.086 2.71094 15.0387 2.71094 10.9458Z" stroke="#5E16EC" stroke-width="1.30237"/>
<path d="M15.7347 13.5509H11.3935M7.05225 9.20966L7.25542 9.37896C8.36851 10.3063 8.92505 10.7699 8.92505 11.3803C8.92505 11.9907 8.36938 12.4543 7.25542 13.3816L7.05225 13.5509" stroke="#5E16EC" stroke-width="1.30237" stroke-linecap="round"/>
</svg>
